<mxfile modified="2024-04-28T05:28:26.790Z" host="app.diagrams.net" agent="Mozilla/5.0 (Windows NT 10.0; Win64; x64) AppleWebKit/537.36 (KHTML, like Gecko) Chrome/124.0.0.0 Safari/537.36" etag="ZBXsUq-VuVU52OT2Cn6h" version="24.3.1" type="github">
  <diagram id="WI9T0HZ2pTsCkuznbFz-" name="Page-1">
    <mxGraphModel dx="4213" dy="2169" grid="1" gridSize="10" guides="1" tooltips="1" connect="1" arrows="1" fold="1" page="1" pageScale="1" pageWidth="1169" pageHeight="827" math="0" shadow="0">
      <root>
        <mxCell id="0" />
        <mxCell id="1" parent="0" />
        <mxCell id="PgJAh9kEpaXaDXCcuAF9-8" value="API" style="ellipse;whiteSpace=wrap;html=1;" parent="1" vertex="1">
          <mxGeometry x="90" y="150" width="70" height="60" as="geometry" />
        </mxCell>
        <mxCell id="PgJAh9kEpaXaDXCcuAF9-9" value="LOGIC" style="shape=ext;double=1;rounded=0;whiteSpace=wrap;html=1;" parent="1" vertex="1">
          <mxGeometry x="180" y="140" width="60" height="80" as="geometry" />
        </mxCell>
        <mxCell id="PgJAh9kEpaXaDXCcuAF9-10" value="Database" style="shape=cylinder3;whiteSpace=wrap;html=1;boundedLbl=1;backgroundOutline=1;size=15;" parent="1" vertex="1">
          <mxGeometry x="260" y="140" width="60" height="80" as="geometry" />
        </mxCell>
        <mxCell id="PgJAh9kEpaXaDXCcuAF9-12" value="" style="swimlane;startSize=0;" parent="1" vertex="1">
          <mxGeometry x="70" y="80" width="280" height="170" as="geometry" />
        </mxCell>
        <mxCell id="PgJAh9kEpaXaDXCcuAF9-13" value="Microservice 1" style="text;html=1;align=center;verticalAlign=middle;resizable=0;points=[];autosize=1;strokeColor=none;fillColor=none;" parent="PgJAh9kEpaXaDXCcuAF9-12" vertex="1">
          <mxGeometry x="80" y="8" width="100" height="30" as="geometry" />
        </mxCell>
        <mxCell id="PgJAh9kEpaXaDXCcuAF9-14" value="" style="swimlane;startSize=0;" parent="1" vertex="1">
          <mxGeometry x="70" y="370" width="280" height="170" as="geometry" />
        </mxCell>
        <mxCell id="PgJAh9kEpaXaDXCcuAF9-15" value="Microservice 2" style="text;html=1;align=center;verticalAlign=middle;resizable=0;points=[];autosize=1;strokeColor=none;fillColor=none;" parent="PgJAh9kEpaXaDXCcuAF9-14" vertex="1">
          <mxGeometry x="80" y="8" width="100" height="30" as="geometry" />
        </mxCell>
        <mxCell id="PgJAh9kEpaXaDXCcuAF9-16" value="API" style="ellipse;whiteSpace=wrap;html=1;" parent="PgJAh9kEpaXaDXCcuAF9-14" vertex="1">
          <mxGeometry x="20" y="50" width="70" height="60" as="geometry" />
        </mxCell>
        <mxCell id="PgJAh9kEpaXaDXCcuAF9-17" value="LOGIC" style="shape=ext;double=1;rounded=0;whiteSpace=wrap;html=1;" parent="PgJAh9kEpaXaDXCcuAF9-14" vertex="1">
          <mxGeometry x="110" y="45" width="60" height="80" as="geometry" />
        </mxCell>
        <mxCell id="PgJAh9kEpaXaDXCcuAF9-18" value="Database" style="shape=cylinder3;whiteSpace=wrap;html=1;boundedLbl=1;backgroundOutline=1;size=15;" parent="PgJAh9kEpaXaDXCcuAF9-14" vertex="1">
          <mxGeometry x="200" y="45" width="60" height="80" as="geometry" />
        </mxCell>
        <mxCell id="PgJAh9kEpaXaDXCcuAF9-25" value="API" style="text;html=1;align=center;verticalAlign=middle;resizable=0;points=[];autosize=1;strokeColor=none;fillColor=none;" parent="1" vertex="1">
          <mxGeometry x="190" y="298" width="40" height="30" as="geometry" />
        </mxCell>
        <mxCell id="PgJAh9kEpaXaDXCcuAF9-28" value="" style="endArrow=classic;startArrow=classic;html=1;rounded=0;" parent="1" edge="1">
          <mxGeometry width="50" height="50" relative="1" as="geometry">
            <mxPoint x="320" y="338" as="sourcePoint" />
            <mxPoint x="320" y="260" as="targetPoint" />
          </mxGeometry>
        </mxCell>
        <mxCell id="PgJAh9kEpaXaDXCcuAF9-30" value="" style="endArrow=classic;html=1;rounded=0;entryX=0.001;entryY=0.594;entryDx=0;entryDy=0;entryPerimeter=0;" parent="1" edge="1">
          <mxGeometry width="50" height="50" relative="1" as="geometry">
            <mxPoint x="-10.28" y="470" as="sourcePoint" />
            <mxPoint x="69.99999999999997" y="470.97999999999996" as="targetPoint" />
          </mxGeometry>
        </mxCell>
        <mxCell id="PgJAh9kEpaXaDXCcuAF9-31" value="" style="endArrow=classic;html=1;rounded=0;entryX=0.001;entryY=0.434;entryDx=0;entryDy=0;entryPerimeter=0;exitX=0.003;exitY=0.597;exitDx=0;exitDy=0;exitPerimeter=0;" parent="1" source="PgJAh9kEpaXaDXCcuAF9-14" target="PgJAh9kEpaXaDXCcuAF9-12" edge="1">
          <mxGeometry width="50" height="50" relative="1" as="geometry">
            <mxPoint x="-220" y="474" as="sourcePoint" />
            <mxPoint x="-210" y="152" as="targetPoint" />
            <Array as="points">
              <mxPoint x="-10" y="470" />
              <mxPoint x="-10" y="152" />
            </Array>
          </mxGeometry>
        </mxCell>
        <mxCell id="PgJAh9kEpaXaDXCcuAF9-33" value="" style="endArrow=classic;html=1;rounded=0;" parent="1" edge="1">
          <mxGeometry width="50" height="50" relative="1" as="geometry">
            <mxPoint y="400" as="sourcePoint" />
            <mxPoint x="-110" y="400" as="targetPoint" />
          </mxGeometry>
        </mxCell>
        <mxCell id="PgJAh9kEpaXaDXCcuAF9-34" value="" style="endArrow=classic;html=1;rounded=0;" parent="1" edge="1">
          <mxGeometry width="50" height="50" relative="1" as="geometry">
            <mxPoint y="270" as="sourcePoint" />
            <mxPoint x="-110" y="270" as="targetPoint" />
          </mxGeometry>
        </mxCell>
        <mxCell id="PgJAh9kEpaXaDXCcuAF9-37" value="" style="html=1;verticalLabelPosition=bottom;align=center;labelBackgroundColor=#ffffff;verticalAlign=top;strokeWidth=2;strokeColor=#0080F0;shadow=0;dashed=0;shape=mxgraph.ios7.icons.smartphone;" parent="1" vertex="1">
          <mxGeometry x="-160" y="238" width="38" height="70" as="geometry" />
        </mxCell>
        <mxCell id="PgJAh9kEpaXaDXCcuAF9-39" value="" style="sketch=0;aspect=fixed;pointerEvents=1;shadow=0;dashed=0;html=1;strokeColor=none;labelPosition=center;verticalLabelPosition=bottom;verticalAlign=top;align=center;fillColor=#00188D;shape=mxgraph.azure.computer" parent="1" vertex="1">
          <mxGeometry x="-191.66" y="360" width="83.33" height="75" as="geometry" />
        </mxCell>
        <mxCell id="PgJAh9kEpaXaDXCcuAF9-40" value="&lt;font style=&quot;font-size: 18px;&quot;&gt;MOBILE APPLICATION&lt;/font&gt;&lt;div&gt;&lt;br&gt;&lt;/div&gt;" style="text;html=1;align=center;verticalAlign=middle;resizable=0;points=[];autosize=1;strokeColor=none;fillColor=none;" parent="1" vertex="1">
          <mxGeometry x="-255" y="188" width="210" height="50" as="geometry" />
        </mxCell>
        <mxCell id="PgJAh9kEpaXaDXCcuAF9-41" value="&lt;font style=&quot;font-size: 18px;&quot;&gt;WEB APPLICATION&lt;/font&gt;&lt;div&gt;&lt;br&gt;&lt;/div&gt;" style="text;html=1;align=center;verticalAlign=middle;resizable=0;points=[];autosize=1;strokeColor=none;fillColor=none;" parent="1" vertex="1">
          <mxGeometry x="-244.99" y="475" width="190" height="50" as="geometry" />
        </mxCell>
        <mxCell id="PgJAh9kEpaXaDXCcuAF9-43" value="" style="points=[[0.35,0,0],[0.98,0.51,0],[1,0.71,0],[0.67,1,0],[0,0.795,0],[0,0.65,0]];verticalLabelPosition=bottom;sketch=0;html=1;verticalAlign=top;aspect=fixed;align=center;pointerEvents=1;shape=mxgraph.cisco19.user;fillColor=#005073;strokeColor=none;" parent="1" vertex="1">
          <mxGeometry x="-470" y="258" width="90" height="90" as="geometry" />
        </mxCell>
        <mxCell id="PgJAh9kEpaXaDXCcuAF9-45" value="&lt;font style=&quot;font-size: 18px;&quot;&gt;USER&lt;/font&gt;&lt;div&gt;&lt;br&gt;&lt;/div&gt;" style="text;html=1;align=center;verticalAlign=middle;resizable=0;points=[];autosize=1;strokeColor=none;fillColor=none;" parent="1" vertex="1">
          <mxGeometry x="-365" y="303" width="70" height="50" as="geometry" />
        </mxCell>
        <mxCell id="PgJAh9kEpaXaDXCcuAF9-46" value="" style="shape=curlyBracket;whiteSpace=wrap;html=1;rounded=1;flipH=1;labelPosition=right;verticalLabelPosition=middle;align=left;verticalAlign=middle;" parent="1" vertex="1">
          <mxGeometry x="380" y="90" width="20" height="120" as="geometry" />
        </mxCell>
        <mxCell id="PgJAh9kEpaXaDXCcuAF9-48" value="" style="shape=image;verticalLabelPosition=bottom;labelBackgroundColor=#ffffff;verticalAlign=top;aspect=fixed;imageAspect=0;image=data:image/svg+xml,PHN2ZyB4bWxuczpjYz0iaHR0cDovL2NyZWF0aXZlY29tbW9ucy5vcmcvbnMjIiB4bWxuczpkYz0iaHR0cDovL3B1cmwub3JnL2RjL2VsZW1lbnRzLzEuMS8iIHhtbG5zOmlua3NjYXBlPSJodHRwOi8vd3d3Lmlua3NjYXBlLm9yZy9uYW1lc3BhY2VzL2lua3NjYXBlIiB4bWxuczpyZGY9Imh0dHA6Ly93d3cudzMub3JnLzE5OTkvMDIvMjItcmRmLXN5bnRheC1ucyMiIHhtbG5zOnNvZGlwb2RpPSJodHRwOi8vc29kaXBvZGkuc291cmNlZm9yZ2UubmV0L0RURC9zb2RpcG9kaS0wLmR0ZCIgeG1sbnM6c3ZnPSJodHRwOi8vd3d3LnczLm9yZy8yMDAwL3N2ZyIgeG1sbnM9Imh0dHA6Ly93d3cudzMub3JnLzIwMDAvc3ZnIiB4bWxuczp4bGluaz0iaHR0cDovL3d3dy53My5vcmcvMTk5OS94bGluayIgdmVyc2lvbj0iMS4xIiBpZD0ic3ZnMTk2OTUxIiBpbmtzY2FwZTp2ZXJzaW9uPSIwLjkyLjMgKDI0MDU1NDYsIDIwMTgtMDMtMTEpIiBzb2RpcG9kaTpkb2NuYW1lPSJweXRob25fdG9vbHNfYW5kX3Nkay5zdmciIHg9IjBweCIgeT0iMHB4IiB2aWV3Qm94PSIwIDAgNDggNDgiIHN0eWxlPSJlbmFibGUtYmFja2dyb3VuZDpuZXcgMCAwIDQ4IDQ4OyIgeG1sOnNwYWNlPSJwcmVzZXJ2ZSI+JiN4YTs8c29kaXBvZGk6bmFtZWR2aWV3IGJvcmRlcmNvbG9yPSIjNjY2NjY2IiBib3JkZXJvcGFjaXR5PSIxIiBmaXQtbWFyZ2luLWJvdHRvbT0iMCIgZml0LW1hcmdpbi1sZWZ0PSIwIiBmaXQtbWFyZ2luLXJpZ2h0PSIwIiBmaXQtbWFyZ2luLXRvcD0iMCIgZ3JpZHRvbGVyYW5jZT0iMTAiIGd1aWRldG9sZXJhbmNlPSIxMCIgaWQ9Im5hbWVkdmlldzE5Njk1MyIgaW5rc2NhcGU6Y3VycmVudC1sYXllcj0ic3ZnMTk2OTUxIiBpbmtzY2FwZTpjeD0iMzIuMDAwMDE1IiBpbmtzY2FwZTpjeT0iMzIuMDAwNTg2IiBpbmtzY2FwZTpwYWdlb3BhY2l0eT0iMCIgaW5rc2NhcGU6cGFnZXNoYWRvdz0iMiIgaW5rc2NhcGU6d2luZG93LWhlaWdodD0iMTAxNyIgaW5rc2NhcGU6d2luZG93LW1heGltaXplZD0iMSIgaW5rc2NhcGU6d2luZG93LXdpZHRoPSIxOTIwIiBpbmtzY2FwZTp3aW5kb3cteD0iLTgiIGlua3NjYXBlOndpbmRvdy15PSItOCIgaW5rc2NhcGU6em9vbT0iMTAuMjcyOTE3IiBvYmplY3R0b2xlcmFuY2U9IjEwIiBwYWdlY29sb3I9IiNmZmZmZmYiIHNob3dncmlkPSJmYWxzZSI+JiN4YTsJPC9zb2RpcG9kaTpuYW1lZHZpZXc+JiN4YTs8ZyBpZD0iZzE5Njk0OSIgdHJhbnNmb3JtPSJ0cmFuc2xhdGUoLTcuNjUsLTcuNjQ5MjgwNikiPiYjeGE7CTx0aXRsZSBpZD0idGl0bGUxOTY5MDUiPlBhZ2UtMTwvdGl0bGU+JiN4YTsJPGcgaWQ9Imdyb3VwMTE3Ny0xIiB0cmFuc2Zvcm09InRyYW5zbGF0ZSg3LjY1LC03LjYxMzQyKSI+JiN4YTsJCTx0aXRsZSBpZD0idGl0bGUxOTY5MDciPlB5dGhvbiBUb29scyBhbmQgU0RLPC90aXRsZT4mI3hhOwkJPGcgaWQ9Imdyb3VwMTE3OC0yIj4mI3hhOwkJCTx0aXRsZSBpZD0idGl0bGUxOTY5MDkiPlNoZWV0LjExNzg8L3RpdGxlPiYjeGE7CQkJPGcgaWQ9Imdyb3VwMTE3OS0zIiB0cmFuc2Zvcm09InRyYW5zbGF0ZSgwLC0xMi4zMTQ3KSI+JiN4YTsJCQkJPHRpdGxlIGlkPSJ0aXRsZTE5NjkxMSI+U2hlZXQuMTE3OTwvdGl0bGU+JiN4YTsJCQkJPGcgaWQ9InNoYXBlMTE4MC00Ij4mI3hhOwkJCQkJPHRpdGxlIGlkPSJ0aXRsZTE5NjkxMyI+U2hlZXQuMTE4MDwvdGl0bGU+JiN4YTsJCQkJCTxwYXRoIGlkPSJwYXRoMTk2OTE1IiBpbmtzY2FwZTpjb25uZWN0b3ItY3VydmF0dXJlPSIwIiBzdHlsZT0iZmlsbDojMzc3MkE0OyIgZD0iTTAsNTEuMTdjMC4wMi0wLjA2LDAuMDQtMC4xMywwLjA1LTAuMiAgICAgICBjMC4wNC0wLjcsMC4wNC0xLjQsMC4xMS0yLjFjMC4yNC0yLjI2LDAuNzYtNC40NCwyLjE4LTYuMjhjMS4xLTEuNDQsMi41NC0yLjMsNC4zMy0yLjU0YzAuMjUtMC4wMywwLjUxLTAuMDQsMC43Ni0wLjA0ICAgICAgIGM1LjM5LDAsMTAuNzksMCwxNi4xOCwwYzAuMzEsMCwwLjMxLDAsMC4zMi0wLjMyYzAtMC4zNy0wLjAyLTAuNzUsMC0xLjEyYzAuMDEtMC4yMy0wLjA3LTAuMjktMC4yOS0wLjI5ICAgICAgIGMtMi45OCwwLjAxLTUuOTUsMC4wMS04LjkzLDAuMDFjLTAuNywwLTEuMzktMC4wMS0yLjA5LDBjLTAuMTksMC0wLjI2LTAuMDUtMC4yNS0wLjI1YzAtMS44My0wLjAxLTMuNjcsMC01LjUgICAgICAgYzAuMDEtMC44MiwwLjQtMS41MSwwLjkzLTIuMTFjMC43NC0wLjg0LDEuNjktMS4zNiwyLjcxLTEuNzVjMS4yNi0wLjQ4LDIuNTctMC43MywzLjg5LTAuODljMS44My0wLjIzLDMuNjYtMC4yNSw1LjQ5LTAuMTcgICAgICAgYzEuOTcsMC4wOCwzLjkyLDAuMzUsNS43OCwxLjA3YzEuMjYsMC40OSwyLjQsMS4xNiwzLjIzLDIuMjZjMC42OSwwLjkxLDEuMDEsMS45MiwwLjk1LDMuMDhjLTAuMDUsMC45My0wLjAyLDEuODctMC4wMSwyLjgxICAgICAgIGMwLDEuNzMsMC4wMSwzLjQ2LDAuMDEsNS4xOWMwLDEuMDIsMC4wMiwyLjA0LTAuMDUsMy4wNmMtMC4xNCwyLjQtMS4yOSw0LjExLTMuNTEsNS4wNGMtMS4wMSwwLjQyLTIuMDYsMC42MS0zLjE0LDAuNjEgICAgICAgYy0zLjgyLDAtNy42NS0wLjAxLTExLjQ3LDBjLTEuMjIsMC0yLjM5LDAuMjctMy40NSwwLjkxYy0xLjQsMC44NS0yLjIsMi4xNS0yLjY1LDMuN2MtMC4yMiwwLjc3LTAuMzEsMS41Ny0wLjMyLDIuMzcgICAgICAgYzAsMS43MywwLDMuNDYsMCw1LjE5YzAsMC4zNSwwLDAuMzUtMC4zNCwwLjM1Yy0xLjI1LDAtMi40OSwwLjA0LTMuNzQsMC4wMWMtMS4yNy0wLjA0LTIuMzctMC41NC0zLjMyLTEuMzcgICAgICAgYy0xLjEyLTAuOTYtMS44Mi0yLjE5LTIuMzEtMy41NmMtMC40Ni0xLjI1LTAuNzMtMi41NC0wLjg0LTMuODZjLTAuMDgtMC44NC0wLjExLTEuNjgtMC4xNi0yLjUyICAgICAgIEMwLjA0LDUxLjg3LDAuMDIsNTEuNzgsMCw1MS42OUMwLDUxLjUyLDAsNTEuMzUsMCw1MS4xN3oiLz4mI3hhOwkJCQk8L2c+JiN4YTsJCQkJPGcgaWQ9InNoYXBlMTE4MS02IiB0cmFuc2Zvcm09InRyYW5zbGF0ZSgxNS4yMDMzLC0yNy44MzIpIj4mI3hhOwkJCQkJPHRpdGxlIGlkPSJ0aXRsZTE5NjkxOCI+U2hlZXQuMTE4MTwvdGl0bGU+JiN4YTsJCQkJCTxwYXRoIGlkPSJwYXRoMTk2OTIwIiBpbmtzY2FwZTpjb25uZWN0b3ItY3VydmF0dXJlPSIwIiBkPSJNMCw2MS4xNWMwLDEuMTksMC45NCwyLjE1LDIuMTEsMi4xNWMxLjE1LDAsMi4xMS0wLjk3LDIuMTEtMi4xMyAgICAgICBjMC0xLjE5LTAuOTUtMi4xNi0yLjExLTIuMTVDMC45Myw1OS4wMywwLDU5Ljk3LDAsNjEuMTV6Ii8+JiN4YTsJCQkJPC9nPiYjeGE7CQkJCTxnIGlkPSJzaGFwZTExODItOCIgdHJhbnNmb3JtPSJ0cmFuc2xhdGUoMTUuMjAzMywtMjcuODMyKSI+JiN4YTsJCQkJCTx0aXRsZSBpZD0idGl0bGUxOTY5MjMiPlNoZWV0LjExODI8L3RpdGxlPiYjeGE7CQkJCQk8cGF0aCBpZD0icGF0aDE5NjkyNSIgaW5rc2NhcGU6Y29ubmVjdG9yLWN1cnZhdHVyZT0iMCIgc3R5bGU9ImZpbGw6I0ZGRkZGRjsiIGQ9Ik0wLDYxLjE1YzAtMS4xOCwwLjkzLTIuMTIsMi4xMS0yLjEzICAgICAgIGMxLjE2LTAuMDEsMi4xMSwwLjk2LDIuMTEsMi4xNWMwLDEuMTYtMC45NiwyLjEzLTIuMTEsMi4xM0MwLjk0LDYzLjMsMCw2Mi4zNCwwLDYxLjE1eiIvPiYjeGE7CQkJCTwvZz4mI3hhOwkJCTwvZz4mI3hhOwkJCTxnIGlkPSJncm91cDExODMtMTAiIHRyYW5zZm9ybT0idHJhbnNsYXRlKDEyLjU5NCkiPiYjeGE7CQkJCTx0aXRsZSBpZD0idGl0bGUxOTY5MjkiPlNoZWV0LjExODM8L3RpdGxlPiYjeGE7CQkJCTxnIGlkPSJzaGFwZTExODQtMTEiPiYjeGE7CQkJCQk8dGl0bGUgaWQ9InRpdGxlMTk2OTMxIj5TaGVldC4xMTg0PC90aXRsZT4mI3hhOwkJCQkJPHBhdGggaWQ9InBhdGgxOTY5MzMiIGlua3NjYXBlOmNvbm5lY3Rvci1jdXJ2YXR1cmU9IjAiIHN0eWxlPSJmaWxsOiNGRkRBNEI7IiBkPSJNMzUuNDEsMzkuNjZjLTAuMDIsMC4wNy0wLjA1LDAuMTQtMC4wNSwwLjIxICAgICAgIGMtMC4wNCwwLjctMC4wNSwxLjQtMC4xMiwyLjA5Yy0wLjIzLDIuMjctMC43NSw0LjQ1LTIuMTcsNi4yOWMtMS4xLDEuNDQtMi41NCwyLjMtNC4zNCwyLjUzYy0wLjI1LDAuMDQtMC41LDAuMDUtMC43NiwwLjA1ICAgICAgIGMtNS4zOSwwLTEwLjc4LDAtMTYuMTcsMGMtMC4zMiwwLTAuMzIsMC0wLjMyLDAuMzJjMCwwLjM3LDAuMDEsMC43NSwwLDEuMTJjLTAuMDIsMC4yMywwLjA3LDAuMjksMC4yOCwwLjI5ICAgICAgIGMyLjk4LTAuMDEsNS45Ni0wLjAxLDguOTQtMC4wMWMwLjY5LDAsMS4zOSwwLjAxLDIuMDksMGMwLjE5LDAsMC4yNSwwLjA1LDAuMjUsMC4yNWMtMC4wMSwxLjgzLDAuMDEsMy42Ny0wLjAxLDUuNSAgICAgICBjLTAuMDEsMC44Mi0wLjM5LDEuNTEtMC45MywyLjExYy0wLjc0LDAuODMtMS42OCwxLjM2LTIuNywxLjc1Yy0xLjI2LDAuNDgtMi41NywwLjcyLTMuOSwwLjg5Yy0xLjgyLDAuMjMtMy42NSwwLjI1LTUuNDgsMC4xNyAgICAgICBjLTEuOTctMC4wOS0zLjkyLTAuMzUtNS43OC0xLjA3Yy0xLjI2LTAuNDktMi40LTEuMTYtMy4yNC0yLjI3Yy0wLjY4LTAuOS0xLTEuOTItMC45NC0zLjA3YzAuMDUtMC45MywwLjAxLTEuODcsMC4wMS0yLjgxICAgICAgIGMwLTEuNzMtMC4wMS0zLjQ2LTAuMDEtNS4xOWMwLTEuMDItMC4wMi0yLjA0LDAuMDQtMy4wNmMwLjE0LTIuNCwxLjI5LTQuMTEsMy41Mi01LjA0YzEtMC40MywyLjA2LTAuNjEsMy4xNC0wLjYxICAgICAgIGMzLjgyLDAsNy42NCwwLjAxLDExLjQ2LDBjMS4yMywwLDIuNC0wLjI3LDMuNDYtMC45MWMxLjQtMC44NSwyLjItMi4xNSwyLjY0LTMuN2MwLjIyLTAuNzcsMC4zMi0xLjU3LDAuMzItMi4zNyAgICAgICBjMC4wMS0xLjczLDAtMy40NiwwLTUuMmMwLTAuMzQsMC0wLjM0LDAuMzUtMC4zNGMxLjI0LDAsMi40OS0wLjA0LDMuNzMtMC4wMWMxLjI3LDAuMDQsMi4zNywwLjU0LDMuMzMsMS4zNyAgICAgICBjMS4xMSwwLjk2LDEuODEsMi4xOSwyLjMxLDMuNTZjMC40NSwxLjI1LDAuNzIsMi41NCwwLjg0LDMuODZjMC4wNywwLjg0LDAuMTEsMS42OCwwLjE2LDIuNTFjMCwwLjEsMC4wMywwLjE5LDAuMDUsMC4yOCAgICAgICBDMzUuNDEsMzkuMzIsMzUuNDEsMzkuNDksMzUuNDEsMzkuNjZ6Ii8+JiN4YTsJCQkJPC9nPiYjeGE7CQkJCTxnIGlkPSJzaGFwZTExODUtMTMiIHRyYW5zZm9ybT0idHJhbnNsYXRlKDE1Ljk4MTMsLTMuOTEyKSI+JiN4YTsJCQkJCTx0aXRsZSBpZD0idGl0bGUxOTY5MzYiPlNoZWV0LjExODU8L3RpdGxlPiYjeGE7CQkJCQk8cGF0aCBpZD0icGF0aDE5NjkzOCIgaW5rc2NhcGU6Y29ubmVjdG9yLWN1cnZhdHVyZT0iMCIgZD0iTTQuMjIsNjEuMTZjMC0xLjE5LTAuOTQtMi4xNS0yLjExLTIuMTVDMC45Niw1OS4wMiwwLDU5Ljk4LDAsNjEuMTQgICAgICAgYzAsMS4xOSwwLjk1LDIuMTYsMi4xMiwyLjE1UzQuMjIsNjIuMzQsNC4yMiw2MS4xNnoiLz4mI3hhOwkJCQk8L2c+JiN4YTsJCQkJPGcgaWQ9InNoYXBlMTE4Ni0xNSIgdHJhbnNmb3JtPSJ0cmFuc2xhdGUoMTUuOTgwNywtMy45MTIpIj4mI3hhOwkJCQkJPHRpdGxlIGlkPSJ0aXRsZTE5Njk0MSI+U2hlZXQuMTE4NjwvdGl0bGU+JiN4YTsJCQkJCTxwYXRoIGlkPSJwYXRoMTk2OTQzIiBpbmtzY2FwZTpjb25uZWN0b3ItY3VydmF0dXJlPSIwIiBzdHlsZT0iZmlsbDojRkZGRkZGOyIgZD0iTTQuMjIsNjEuMTZjMCwxLjE4LTAuOTMsMi4xMi0yLjEsMi4xMyAgICAgICBDMC45NSw2My4zLDAsNjIuMzMsMCw2MS4xNGMwLTEuMTYsMC45Ni0yLjEyLDIuMTEtMi4xM0MzLjI4LDU5LjAxLDQuMjIsNTkuOTcsNC4yMiw2MS4xNnoiLz4mI3hhOwkJCQk8L2c+JiN4YTsJCQk8L2c+JiN4YTsJCTwvZz4mI3hhOwk8L2c+JiN4YTs8L2c+JiN4YTs8L3N2Zz4=;" parent="1" vertex="1">
          <mxGeometry x="436.8" y="100" width="47" height="47" as="geometry" />
        </mxCell>
        <mxCell id="PgJAh9kEpaXaDXCcuAF9-50" value="" style="dashed=0;outlineConnect=0;html=1;align=center;labelPosition=center;verticalLabelPosition=bottom;verticalAlign=top;shape=mxgraph.weblogos.java" parent="1" vertex="1">
          <mxGeometry x="443.6" y="414" width="34.4" height="65" as="geometry" />
        </mxCell>
        <mxCell id="PgJAh9kEpaXaDXCcuAF9-51" value="" style="shape=curlyBracket;whiteSpace=wrap;html=1;rounded=1;flipH=1;labelPosition=right;verticalLabelPosition=middle;align=left;verticalAlign=middle;" parent="1" vertex="1">
          <mxGeometry x="410" y="386.5" width="20" height="120" as="geometry" />
        </mxCell>
        <mxCell id="PgJAh9kEpaXaDXCcuAF9-52" value="" style="html=1;labelBackgroundColor=#ffffff;startArrow=none;startFill=0;startSize=6;endArrow=classic;endFill=1;endSize=6;jettySize=auto;orthogonalLoop=1;strokeWidth=1;dashed=1;fontSize=14;rounded=0;" parent="1" target="PgJAh9kEpaXaDXCcuAF9-72" edge="1">
          <mxGeometry width="60" height="60" relative="1" as="geometry">
            <mxPoint x="530" y="180" as="sourcePoint" />
            <mxPoint x="952" y="179.33" as="targetPoint" />
            <Array as="points">
              <mxPoint x="840" y="180" />
              <mxPoint x="1050" y="180" />
            </Array>
          </mxGeometry>
        </mxCell>
        <mxCell id="PgJAh9kEpaXaDXCcuAF9-54" value="&lt;font style=&quot;font-size: 24px;&quot;&gt;deploy&lt;/font&gt;" style="text;html=1;align=center;verticalAlign=middle;resizable=0;points=[];autosize=1;strokeColor=none;fillColor=none;" parent="1" vertex="1">
          <mxGeometry x="525" y="103" width="90" height="40" as="geometry" />
        </mxCell>
        <mxCell id="PgJAh9kEpaXaDXCcuAF9-55" value="&lt;h2&gt;&lt;font style=&quot;font-size: 24px; font-weight: normal; background-color: rgb(255, 51, 255);&quot;&gt;deploy&lt;/font&gt;&lt;/h2&gt;" style="text;html=1;align=center;verticalAlign=middle;resizable=0;points=[];autosize=1;strokeColor=none;fillColor=none;" parent="1" vertex="1">
          <mxGeometry x="540" y="379" width="90" height="70" as="geometry" />
        </mxCell>
        <mxCell id="PgJAh9kEpaXaDXCcuAF9-59" value="" style="endArrow=none;dashed=1;html=1;dashPattern=1 3;strokeWidth=2;rounded=0;" parent="1" edge="1">
          <mxGeometry width="50" height="50" relative="1" as="geometry">
            <mxPoint x="840" y="453" as="sourcePoint" />
            <mxPoint x="840" y="180" as="targetPoint" />
          </mxGeometry>
        </mxCell>
        <mxCell id="PgJAh9kEpaXaDXCcuAF9-62" value="&lt;h1&gt;&lt;br&gt;&lt;/h1&gt;" style="ellipse;whiteSpace=wrap;html=1;" parent="1" vertex="1">
          <mxGeometry x="800" y="268" width="80" height="80" as="geometry" />
        </mxCell>
        <mxCell id="PgJAh9kEpaXaDXCcuAF9-70" value="" style="sketch=0;outlineConnect=0;fontColor=#232F3E;gradientColor=none;fillColor=#7AA116;strokeColor=none;dashed=0;verticalLabelPosition=bottom;verticalAlign=top;align=center;html=1;fontSize=12;fontStyle=0;aspect=fixed;pointerEvents=1;shape=mxgraph.aws4.iot_analytics_pipeline;" parent="1" vertex="1">
          <mxGeometry x="801" y="159" width="78" height="42" as="geometry" />
        </mxCell>
        <mxCell id="PgJAh9kEpaXaDXCcuAF9-71" value="" style="sketch=0;outlineConnect=0;fontColor=#232F3E;gradientColor=none;fillColor=#7AA116;strokeColor=none;dashed=0;verticalLabelPosition=bottom;verticalAlign=top;align=center;html=1;fontSize=12;fontStyle=0;aspect=fixed;pointerEvents=1;shape=mxgraph.aws4.iot_analytics_pipeline;" parent="1" vertex="1">
          <mxGeometry x="802" y="425.5" width="78" height="42" as="geometry" />
        </mxCell>
        <mxCell id="PgJAh9kEpaXaDXCcuAF9-72" value="" style="ellipse;shape=cloud;whiteSpace=wrap;html=1;" parent="1" vertex="1">
          <mxGeometry x="930" y="180" width="260" height="230" as="geometry" />
        </mxCell>
        <mxCell id="PgJAh9kEpaXaDXCcuAF9-73" value="" style="outlineConnect=0;dashed=0;verticalLabelPosition=bottom;verticalAlign=top;align=center;html=1;shape=mxgraph.aws3.cloud_2;fillColor=#F58534;gradientColor=none;" parent="1" vertex="1">
          <mxGeometry x="980" y="253" width="57.5" height="52" as="geometry" />
        </mxCell>
        <mxCell id="PgJAh9kEpaXaDXCcuAF9-75" value="" style="html=1;labelBackgroundColor=#ffffff;startArrow=none;startFill=0;startSize=6;endArrow=classic;endFill=1;endSize=6;jettySize=auto;orthogonalLoop=1;strokeWidth=1;dashed=1;fontSize=14;rounded=0;" parent="1" edge="1">
          <mxGeometry width="60" height="60" relative="1" as="geometry">
            <mxPoint x="525" y="479.67" as="sourcePoint" />
            <mxPoint x="1055" y="414" as="targetPoint" />
            <Array as="points">
              <mxPoint x="1055" y="480" />
            </Array>
          </mxGeometry>
        </mxCell>
        <mxCell id="PgJAh9kEpaXaDXCcuAF9-74" value="&lt;h1&gt;&lt;font style=&quot;font-size: 24px; background-color: rgb(255, 51, 255);&quot;&gt;cloud provider&lt;/font&gt;&lt;/h1&gt;&lt;div&gt;&lt;font size=&quot;3&quot; style=&quot;&quot;&gt;&lt;br&gt;&lt;/font&gt;&lt;/div&gt;&lt;div&gt;&lt;br&gt;&lt;/div&gt;" style="text;html=1;align=center;verticalAlign=middle;resizable=0;points=[];autosize=1;strokeColor=none;fillColor=none;" parent="1" vertex="1">
          <mxGeometry x="980" y="296.5" width="190" height="110" as="geometry" />
        </mxCell>
        <mxCell id="PgJAh9kEpaXaDXCcuAF9-76" value="&lt;h2&gt;&lt;font style=&quot;font-weight: normal; background-color: rgb(255, 51, 255); font-size: 24px;&quot;&gt;deploy&lt;/font&gt;&lt;/h2&gt;" style="text;html=1;align=center;verticalAlign=middle;resizable=0;points=[];autosize=1;strokeColor=none;fillColor=none;" parent="1" vertex="1">
          <mxGeometry x="525" y="88" width="90" height="70" as="geometry" />
        </mxCell>
        <mxCell id="PgJAh9kEpaXaDXCcuAF9-77" value="&lt;h2&gt;&lt;font style=&quot;font-size: 24px; font-weight: normal; background-color: rgb(255, 51, 255);&quot;&gt;ci/cd&lt;/font&gt;&lt;/h2&gt;&lt;div&gt;&lt;font style=&quot;font-size: 24px; font-weight: normal; background-color: rgb(255, 51, 255);&quot;&gt;&lt;br&gt;&lt;/font&gt;&lt;/div&gt;" style="text;html=1;align=center;verticalAlign=middle;resizable=0;points=[];autosize=1;strokeColor=none;fillColor=none;" parent="1" vertex="1">
          <mxGeometry x="809" y="270" width="70" height="100" as="geometry" />
        </mxCell>
        <mxCell id="PgJAh9kEpaXaDXCcuAF9-80" value="" style="image;sketch=0;aspect=fixed;html=1;points=[];align=center;fontSize=12;image=img/lib/mscae/Docker.svg;" parent="1" vertex="1">
          <mxGeometry x="416.83" y="-70" width="123.17" height="101" as="geometry" />
        </mxCell>
        <mxCell id="PgJAh9kEpaXaDXCcuAF9-82" value="&lt;font style=&quot;font-size: 36px;&quot;&gt;&lt;b style=&quot;background-color: rgb(255, 51, 255);&quot;&gt;Containerization&lt;/b&gt;&lt;/font&gt;" style="text;html=1;align=center;verticalAlign=middle;resizable=0;points=[];autosize=1;strokeColor=none;fillColor=none;" parent="1" vertex="1">
          <mxGeometry x="400" y="-150" width="310" height="60" as="geometry" />
        </mxCell>
        <mxCell id="PgJAh9kEpaXaDXCcuAF9-83" value="" style="image;sketch=0;aspect=fixed;html=1;points=[];align=center;fontSize=12;image=img/lib/mscae/Docker.svg;" parent="1" vertex="1">
          <mxGeometry x="550" y="-80" width="123.17" height="101" as="geometry" />
        </mxCell>
        <mxCell id="PgJAh9kEpaXaDXCcuAF9-84" value="" style="image;sketch=0;aspect=fixed;html=1;points=[];align=center;fontSize=12;image=img/lib/mscae/Docker.svg;" parent="1" vertex="1">
          <mxGeometry x="700" y="-80" width="123.17" height="101" as="geometry" />
        </mxCell>
        <mxCell id="PgJAh9kEpaXaDXCcuAF9-85" value="" style="aspect=fixed;sketch=0;html=1;dashed=0;whitespace=wrap;fillColor=#2875E2;strokeColor=#ffffff;points=[[0.005,0.63,0],[0.1,0.2,0],[0.9,0.2,0],[0.5,0,0],[0.995,0.63,0],[0.72,0.99,0],[0.5,1,0],[0.28,0.99,0]];shape=mxgraph.kubernetes.icon2;prIcon=api" parent="1" vertex="1">
          <mxGeometry x="830" y="-290" width="125.75" height="120.72" as="geometry" />
        </mxCell>
        <mxCell id="PgJAh9kEpaXaDXCcuAF9-86" value="&lt;font style=&quot;font-size: 36px;&quot;&gt;&lt;b style=&quot;background-color: rgb(255, 51, 255);&quot;&gt;Container orchestration system&lt;/b&gt;&lt;/font&gt;" style="text;html=1;align=center;verticalAlign=middle;resizable=0;points=[];autosize=1;strokeColor=none;fillColor=none;" parent="1" vertex="1">
          <mxGeometry x="259.99999999999994" y="-250" width="570" height="60" as="geometry" />
        </mxCell>
        <mxCell id="PgJAh9kEpaXaDXCcuAF9-87" value="" style="shape=image;verticalLabelPosition=bottom;labelBackgroundColor=#ffffff;verticalAlign=top;aspect=fixed;imageAspect=0;image=data:image/svg+xml,PHN2ZyB4bWxuczpjYz0iaHR0cDovL2NyZWF0aXZlY29tbW9ucy5vcmcvbnMjIiB4bWxuczpkYz0iaHR0cDovL3B1cmwub3JnL2RjL2VsZW1lbnRzLzEuMS8iIHhtbG5zOmlua3NjYXBlPSJodHRwOi8vd3d3Lmlua3NjYXBlLm9yZy9uYW1lc3BhY2VzL2lua3NjYXBlIiB4bWxuczpyZGY9Imh0dHA6Ly93d3cudzMub3JnLzE5OTkvMDIvMjItcmRmLXN5bnRheC1ucyMiIHhtbG5zOnNvZGlwb2RpPSJodHRwOi8vc29kaXBvZGkuc291cmNlZm9yZ2UubmV0L0RURC9zb2RpcG9kaS0wLmR0ZCIgeG1sbnM6c3ZnPSJodHRwOi8vd3d3LnczLm9yZy8yMDAwL3N2ZyIgeG1sbnM9Imh0dHA6Ly93d3cudzMub3JnLzIwMDAvc3ZnIiB4bWxuczp4bGluaz0iaHR0cDovL3d3dy53My5vcmcvMTk5OS94bGluayIgdmVyc2lvbj0iMS4xIiBpZD0ic3ZnODA0NzkiIGlua3NjYXBlOnZlcnNpb249IjAuOTIuMyAoMjQwNTU0NiwgMjAxOC0wMy0xMSkiIHNvZGlwb2RpOmRvY25hbWU9ImdpdC5zdmciIHg9IjBweCIgeT0iMHB4IiB2aWV3Qm94PSIwIDAgMzAuMzcgMzAuMzciIHN0eWxlPSJlbmFibGUtYmFja2dyb3VuZDpuZXcgMCAwIDMwLjM3IDMwLjM3OyIgeG1sOnNwYWNlPSJwcmVzZXJ2ZSI+JiN4YTs8c29kaXBvZGk6bmFtZWR2aWV3IGJvcmRlcmNvbG9yPSIjNjY2NjY2IiBib3JkZXJvcGFjaXR5PSIxIiBmaXQtbWFyZ2luLWJvdHRvbT0iMCIgZml0LW1hcmdpbi1sZWZ0PSIwIiBmaXQtbWFyZ2luLXJpZ2h0PSIwIiBmaXQtbWFyZ2luLXRvcD0iMCIgZ3JpZHRvbGVyYW5jZT0iMTAiIGd1aWRldG9sZXJhbmNlPSIxMCIgaWQ9Im5hbWVkdmlldzgwNDgxIiBpbmtzY2FwZTpjdXJyZW50LWxheWVyPSJzdmc4MDQ3OSIgaW5rc2NhcGU6Y3g9IjI0LjU0MDUyIiBpbmtzY2FwZTpjeT0iLTcuOTc4NjcxNyIgaW5rc2NhcGU6cGFnZW9wYWNpdHk9IjAiIGlua3NjYXBlOnBhZ2VzaGFkb3c9IjIiIGlua3NjYXBlOndpbmRvdy1oZWlnaHQ9IjEwMTciIGlua3NjYXBlOndpbmRvdy1tYXhpbWl6ZWQ9IjEiIGlua3NjYXBlOndpbmRvdy13aWR0aD0iMTkyMCIgaW5rc2NhcGU6d2luZG93LXg9Ii04IiBpbmtzY2FwZTp3aW5kb3cteT0iLTgiIGlua3NjYXBlOnpvb209IjYuOTUyMzU1MSIgb2JqZWN0dG9sZXJhbmNlPSIxMCIgcGFnZWNvbG9yPSIjZmZmZmZmIiBzaG93Z3JpZD0iZmFsc2UiPiYjeGE7CTwvc29kaXBvZGk6bmFtZWR2aWV3PiYjeGE7PGcgaWQ9Imc4MDQ3NyIgdHJhbnNmb3JtPSJ0cmFuc2xhdGUoLTIwLjgxNTYsLTAuNzQyMikiPiYjeGE7CTx0aXRsZSBpZD0idGl0bGU4MDQ2NyI+UGFnZS0xPC90aXRsZT4mI3hhOwk8ZyBpZD0iZ3JvdXA0MjQ4LTEiIHRyYW5zZm9ybT0idHJhbnNsYXRlKDIwLjYzMDYsLTM0Ljg0MjgpIj4mI3hhOwkJPHRpdGxlIGlkPSJ0aXRsZTgwNDY5Ij5HaXQ8L3RpdGxlPiYjeGE7CQk8ZyBpZD0ic2hhcGU0MjQ5LTIiPiYjeGE7CQkJPHRpdGxlIGlkPSJ0aXRsZTgwNDcxIj5TaGVldC40MjQ5PC90aXRsZT4mI3hhOwkJCTxwYXRoIGlkPSJwYXRoODA0NzMiIGlua3NjYXBlOmNvbm5lY3Rvci1jdXJ2YXR1cmU9IjAiIHN0eWxlPSJmaWxsOiNGNTREMjc7IiBkPSJNMzAsNDkuNDRsLTEzLjMtMTMuMyAgICAgYy0wLjc0LTAuNzQtMS45Mi0wLjc0LTIuNjYsMGwtMi44NSwyLjg1bDMuNDMsMy40M2MwLjI2LTAuMSwwLjUzLTAuMTYsMC44NC0wLjE2YzEuMjcsMCwyLjMsMS4wMywyLjMsMi4zMiAgICAgYzAsMC4yOS0wLjA1LDAuNTgtMC4xNSwwLjg0bDMuMzYsMy4zNmMwLjI1LTAuMTEsMC41NS0wLjE3LDAuODMtMC4xN2MxLjI4LDAsMi4zMSwxLjA1LDIuMzEsMi4zMmMwLDEuMjktMS4wMywyLjMxLTIuMzEsMi4zMSAgICAgYy0xLjI3LDAtMi4zMS0xLjAyLTIuMzEtMi4zMWMwLTAuMjksMC4wNi0wLjU4LDAuMTYtMC44NGwtMy4xNy0zLjE3djguMjZjMC43NywwLjM5LDEuMjcsMS4xNywxLjI3LDIuMDYgICAgIGMwLDEuMjktMS4wMiwyLjMyLTIuMjksMi4zMmMtMS4yOSwwLTIuMzItMS4wMy0yLjMyLTIuMzJjMC0wLjk4LDAuNjEtMS44MiwxLjQ5LTIuMTV2LTguMzZjLTAuODgtMC4zMy0xLjQ5LTEuMTctMS40OS0yLjE1ICAgICBjMC0wLjMsMC4wNi0wLjU4LDAuMTYtMC44NWwtMy40My0zLjQybC05LjEzLDkuMTNDMCw1MC4xOCwwLDUxLjM2LDAuNzQsNTIuMDlsMTMuMywxMy4zMWMwLjczLDAuNzQsMS45MiwwLjc0LDIuNjYsMEwzMCw1Mi4wOSAgICAgQzMwLjc0LDUxLjM2LDMwLjc0LDUwLjE4LDMwLDQ5LjQ0eiIvPiYjeGE7CQk8L2c+JiN4YTsJPC9nPiYjeGE7PC9nPiYjeGE7PC9zdmc+;" parent="1" vertex="1">
          <mxGeometry x="680" y="270" width="60" height="60" as="geometry" />
        </mxCell>
        <mxCell id="PgJAh9kEpaXaDXCcuAF9-88" value="" style="image;sketch=0;aspect=fixed;html=1;points=[];align=center;fontSize=12;image=img/lib/mscae/Azure_Pipelines.svg;" parent="1" vertex="1">
          <mxGeometry x="750" y="268" width="50" height="50" as="geometry" />
        </mxCell>
        <mxCell id="PgJAh9kEpaXaDXCcuAF9-89" value="" style="verticalLabelPosition=bottom;html=1;verticalAlign=top;align=center;strokeColor=none;fillColor=#00BEF2;shape=mxgraph.azure.azure_subscription;" parent="1" vertex="1">
          <mxGeometry x="1060" y="240" width="60" height="56.5" as="geometry" />
        </mxCell>
        <mxCell id="PgJAh9kEpaXaDXCcuAF9-93" value="" style="shape=image;verticalLabelPosition=bottom;labelBackgroundColor=default;verticalAlign=top;aspect=fixed;imageAspect=0;image=data:image/png,iVBORw0KGgoAAAANSUhEUgAAAIoAAABZCAYAAADhLbzlAAAAAXNSR0IArs4c6QAAAARnQU1BAACxjwv8YQUAAAAJcEhZcwAADsMAAA7DAcdvqGQAAABfaVRYdFNuaXBNZXRhZGF0YQAAAAAAeyJjbGlwUG9pbnRzIjpbeyJ4IjowLCJ5IjowfSx7IngiOjEzOCwieSI6MH0seyJ4IjoxMzgsInkiOjg5fSx7IngiOjAsInkiOjg5fV191b3ELQAAJ2RJREFUeF7tfQm0XVWZ5nemO777huRlgiQEjEZBaQ1GmRwoqCrasaTVNLYTVY1aKtqNCIsGaVtludqirQXiQGWxFLWhEReotezGlhZtNCoREKyAQAiQQIb3kjfcd4czn/6+fe59SZTou8GqtWzPDzvn3jPsc+75v/3937/PPvtZGQ2FFfZ7zO4tCyvsd1oBlMIWZAVQCluQFUApbEFWAKWwBVkBlMIWZAVQCluQFUApbEFWAKWwBVkBlMIWZAVQCluQFUApbEFWAKWwBVkBlMIWZAVQCluQFUApbEFWAKWwBVkBlMIWZAVQCluQFUApbEFWAKWwBdmzHoUfP34Pgntu43Iz0qkdSJvDCIMWIdhFrW7DKTvoJAliYtIuVTHUKcOfGUI4MwInsVGpRLDdAEHXRrfrwqs5sNyUx3VhVXzYlS7gdpG5PutMEbarsK0MLo+1fBtJ00EyV0XSqgJhGV4wijQEUt9B5nPfsGbWIywhjXnBTn7dlmXp18PyHDjHLkLplcei+vaTUDplTb5DYYfYswLK3M2XI/z5N3jTWYWVIOO9d8IGgqCDJA7hESSlqovEBSJuj5FhOK4jnGsgmh2CFTnw3BC2kyEKbQKsBKfEqpwEVjkyYAGL7flIuR9hidgvgaeBHaWwQg9olwiSCsFSQRZ48PwRpJFNoLj8XoId1LkfKxVQuD6zdTTP0eNSAxizzG9D+bwNGP3Cm83nwg7YEYee2S++G8HPboZwlqZcEbOp0tmOF8L1LDrTQ9hxEAcVeFYVJduFlXaRliKg6sMZ9mHVAoIoNiBKyzZcMlDm0mFkFNisl5dH7kCS0ekpS0a2oaOzLOW61Jzbci2Ci+crE6hehJQgyzxCkoWUxe387HBfN2G9/E5WUiHnHFTAugz80L3+59j/mk1mXWEH7IiA0rrpMqQP/4QsnrdG0AeMLnQmwwC6cF2HpYY0KSPqWEgIIAYKODxbQmdatRBOvQ273jHASQSMcgZnSA4nkDw5lvU5Ft3IEKJ4QZDos9ULHSnRmdDh2s8uETAVfi6TdUoEiMDhqp7IgAcewaN1+nwQQPps0rc+uYb/5xHMvP+b5nNhuQ0MlOiRexD+4FZkCR3IVig2SXmDM8YXK3IZPmI6wIbnuXDp1TCgrujQYaEFN/NM+Mm8ADZZxa4EPceyYk/OJoiqdDaXav2Z0REsOk8OtTxEqPRDCMMWSnQ6GcQqsz6BQyAhMFS3+axz9ADTZxSLjJUDRgDhufQbekCRiVnCzU/0vhU2MFC6d/wjUuoCE/MTjyzC8EBhiZRswFYfEUBxotBDYHA324oQ+QEL+SBpULsohCgMMPRQe1gMNQofFh1qU7RaBjxyLvehBBFYpCvkWFMkQHk6m6wFFrFKYostQlgGEHkIykvOIhn1TZ9RLJv1GoAIcApf+t4zE34OWOfrv+h9KmxwoPz8fiQdDymFYspQY4DCG8x7TlnBG51WKUxTxEw9XGoET2GEcSmiLk0oRGMK2CRh600DOi2GZ1Ob2A4Bxf2sDmyygl2hwOVxFrWFARJDkE2wcFfDJhZjmOOQwbgUByQZQeAQBNQpcMgsPT2S2gKLdEr+3Sx5xAE2OcAglDyHMIos+NFjvU+FDQyU8Mk9zB6oFxR6eiBhkzdhge6jwyuImJFEYYeODOBRP+gk0ikJs5QsVpqqkEUQ0DtyPnFCpqATM7FCwu90NovSYcMg8yW/BlsHETzSGBlVETmFlyAg0NESrgKCYSDtTFEsFmFJhWaVebD8bkufmOp9KmxgoLjKbtpkhH0x3MkMtXYZVbJIQrC0khh2K4IXULxGYh2Pvq6h4o3Ci6vo7gswynXlVg1Zs4YwZMZT2oe4vgdxpQ2fDJFwv9QtwxriyYa7SCh6I4ao2NBJVSihswkMMETZXTgUwq5D7ZLwuLAMpxrDoViWXpEWymxfObthLwEwbLBO6qOU362UMpmgdQh4h8AhSR1qsUBVmGxgoGQEhFJVdV4lvMkKI0kidlBUUCvV3VaWkqezWiUdIAFJf6I7F9OhDvcoM2WussFzHzZ4MYxaumKAZXQD9ydDOBSrtsKPYQQJZQnbQy3XLTq3GIPHmu9iK51TIYuMp8vSr2U4VPptUf8Y9mH9hpF+Q58UdqgNDBRLApaskpExFE6M9gjoGLY++cpKPfqJXqB+SalJVeQ/mxs9ilu/lSHuChxV7lsxoMvUcgk2gSSLmfVQc0izKJ1Wn4wAJkbIQFHa82eWI9OEGRNqCBBpmdTSPmQQilebl2HzeJNBEWwZAWL6U5iKM0KSdVgPWSbm+Qqw/G4bnFHk2KRkspfYJ6OwpARLGrLliwjIKOpPEZikY9S/IrJQq3fZqrOoTGDx2I7FTIghg4CzCSy5yE65M8OXQGcJLISGYRUxgCo3IGBlZAExS84k2sZiWIfilcgkFFmbNEue6fTTZNO7y88Ww5NV434sSTkXvPrvkAyosENsYKDkh9DjCcNPRMCQHRKf1B7Q6WSYvKFzH4FFXen0Tc4qDAFEQ9mrUrM6CFopC90TcT3rc9iaM2kc7pcJWbEQRodL9JIx1F+SERAyE2SUJelSFGoIor6YzftDlPEoVBEESo2ZOmflLosPt0ptw2VGnZLVqWGoZ1AmcMQ0DG2FPbMdAVD6IUYCUs9PWMxzFYJHfSvMXPotUxoliQkWFumZNLFRdqlPiKaYQjb22cojMZEApkLQkLHkr5jhLA4JJFESTTrDYQwyz2rEKgo5vSUIEFtd9xKoFCMqBpVGjyhtZipe8SlymYmJSSRmKZ6zagfOUAS3RoCWUiNwC3tmGxwo9KISD9t26aPSAbAw48hCOogUYmUSJ2QBEYBCEFkDSqlDsUfAY3P9oZSaEQYxQ01GUSywuPxPIExMik3tEBEA6sxjqDGdbDTTY0vrp8xaCjBiHsehQHZKxAn3VQqtVLtEMFRDuPUQNpcW2SXx2kjLHdgEjlPj9TD8MA6aegv7bRsYKBKZQgD5JGcBwywSpHI6gQJpBAUHGrfn3fxkFPpBjJISRNIUZY+goCMldMUqqXQJD7HkYALDRB2CRFmV6XPheoGzrzcFDu5mrkV5i6mI62ym1o5NACvTkQg2glaMwbSZIcZWj6/0iqPufoKozPSaotb02xhtU9gz2cBAsY5iax+O4GOOLOCDbRdVqwabjOI3CZCZxbA6Q8w8efdFAOqZZQhI6NSEoGozJERDpP2RvQTKBOpzPkambIwwfA1Rb7STGUKtq955lByPKbQjecwTqy+EGsPtwBVDlPWkmkAkNaWsM2V2kzGbqS3Zyb33muti9kswTQPD0+iMNDFJbZKWmmSVLsoMN26JGsWZQ1KdgrO8icraLjqULDGv0ybC1IFYWG5HwCjSAyxerhckHhNmK9KfNpgyx8wwSB+pKIGOdygSXbZij9SuIQg1zKJih0yV2eorw/C9IbQItNm4jOmwwjrERnkYMWFFKXMvIzFd7Dxn/6mv6ZnVd7OvjrEwx+jhlz2EdV7fMF09RLxWeN6Sj1GGHNN7qyxJbMPfITRpaIIp1CjV0RbDFMGTMTQlRSjq2+BAIcW7bMVeia2ON13jQmLqiZSUIc1iQMKSMcTogaAtgJD2NfjIdX1Ukv1wohaiOIOfeuiy5bYYT7qMIwHTafW3uCy26ThT34nEM1HIklLQSNCaZzw5inhFBqFcR8VDoIT8irqLqO6zdBBXuoiSJjw6vmF3DDDUvyKmUzEPEglkpdEa8lBfMQ27MUNpNWdCXmG5DR56TKOmvtAQQlJ/yhXKTKRVbDOIhFVSyBpioH6w6WzHpmBUVzqYZXjaP0PgM6sh+zgMM1WnibrTxohNoauOM9MhQ7AYHIidBEQqH67OSAVG2JqufIlVm595TepbYd1DPG68Sg1kz7KuWe4TISR69KTbcsoGuPmQA+kT6qkKgVLRkusIFG+MAleDqqhd0v4wuMIGB4oEqzrglYFovKm6w03PKFu2QOSyuRpBqjChzIfeVckYipQ6p6U6YpuahmxS4wHDXgtDziTKyV544dSB4wzY1Cei/hVeprDDFFtiVmAxorYHEkkJnVIhJWu3CDQCM9zHMOejURpiXSOIrDF0s7rpXNPwA4vClidl+OPnKtcx+0mrARmI34fITg2Cvp6HuMKOBCgh01w6mVxBsPCGlqgDSmzhYgK2fkdpMz2XMRRlTItNP4p50ky+j0to8fg48hgKPFTofSedRZehYZZOn64uMlonZw8GHQFE4FBRBx+LebYk3aLwxM0KOaKexGRbEfa54xS1DbR8fieTeFYdTlI142SaEcFK1jKdaz2w2BoZJ3CIWaoU6crwq0yzxxLYi5gZFWZscKCYZzx0HFNetWi37JpnOKbDK+WN1cNAgYMgibnMIt75mCI1qZFZqgh9OomZhQaepVGIuSTGzNAYguedjtKrzuOxSoeZTquHlr4zI+kIMj06AEt/rKwxiWmCxEQIhUAyV3LKW4AXnYG50RVkED1zIqCZertWQME6w/0FFp5cYFF3PsONrXEshlmotxQaCRiMzMJdui8/T2GDA0W9rKmcKO6noxyxiktnKO5Qj1jaxrCRyOG838bBBI9tlcgzFaa8LsouGUWDUHh6n7ohXnocGhtej7HXftAwiSmmnrxYAqXYReNmjVDOgZI/7+E+1EJ6qKdM66jX/zWs014Ha+XzEJFZFJM86pQqNUijIYYg+hQq9ThAVeoZEcGh3l1lRCm1TuIRVDWGsNFnMR5lcjNuvu5KXPKBK3DVV27HtmZv/QAW7N6KzQ9MakDFH86CSWz96VZMDljpwECJOwwBLTq5xS8saaCWDDrFQ1QrY2etjr3UCUtKoxh+ZJJhpcZWvAylXT7S2T3YXdqPoLuIFO9jcmoXNc0+LN5+N6KVRzOv7WIk2gln137MxcfAb2/HjsY+hoht1BxV1LcFmPAXYe/oHmZPTyIKtpPJZlAfaSJYPgl/dj86eoVj/GQ859HvoT2yBr9KKqiVn0ZpiFkW1sJ+4blIK4vQKO+lBHkQ0UiI7WQYdeOPJI+iXG6jVAqYXRGseqZ1BBbcdy3O2fBhbNoKrD1xFYItV+KsM8/DVx8czDvNLZ/D267bjCPA2OFtajM+d+7nsHnANjAwUJQC62lvHhL6LZ2soiyF+Fk1k2LFvhr2OFXMXn0hdrzqRZjaMQlnzQvwy9f9Bda1noex489E+5VvxqqT34XFeAGCpwO0Kx7mwhgPWVV0TzoLY+tfi3F7MVZP1dGaXYKp570ScyefgnWl1UxSXo1deD2Coy5G56jLsDd5O+zuS7HCKaGS7kYazqJ13Esw3t6CxctquO/FF+Cpf3oMQw2GwtktmNq5Czt/nTAiroa1xMfomi6aPG87PcvoLQ1toNQy4XRw24qvXnYVln72VtxxzWU4/73n47LP34Fbz53FV7/xB3b6v6ANDBQrKRvNIWEq/aGXqsjX5rmNy1BUmWJK+ppXY/mN16O94RU4+ZyNGN54Jva95lU47U0X44lrPwD7NWdj6cv/HLj0PyO48ELso4hdGQ+jMdJgKjuEJf/mQ6i9/h1kqwT1FutcejqWv+6DsF/+amYqJdTe+nGs/MgNGD/3bzC28d1Y+qH/BvvNH6FADdFl+Gt7LsId96F05vk46m//DsevCFFfM4LqsuXwz/sClr3l7Rh77ip4ztGwfl3B6r0x6snDmF2+lZqLMp0C165QnKuvZVBrTmDng8ALj13VWyErY/2FBM7Hz8Bwb03QJAvqQ9zEtvs2YzPDwc622XQYC9DsH3OwBU2u7689aB8TYljvfdvQZLT9fabrOVDPb9vgQEmr/HFltlq9mUcVS3GrIQd67uNQQ+wvN+Gf+nzMhCVUP78Fs//qAtT+8V78+olJYNFauJM85Wevx8T7P4Knf3Y/wuPPxoqXnIMOf02LKe3RT/vAkmOxe9EInohn6HzmM9XlzEDWoJyWEFRGUBl/MTpPPIQHP34qHvrkKejufhz11S9Bp1aDUx1GrUQwHXsc9r/0vQin9qH80HeQVcfw1GNbsezuq+G+8jyEH/0+48LLMbLrETDOobpkFcPTRD5mhYDLs6IjYJThtTiBeL7h85tw72Hp/V5sOvFi3PzDm3HJWSfivE9ci2s/8z684oRX4JJbtv02GGS7b8fFPOb23b3vPZv83sU48dLbwbs7v8/N37kWb/vLc3HlF67FFe85CyeedQluf8rs/gwWYOv15+H0Mz+GO5skgcPYwECBQg6LFTP8mKfGZBfpAn7XtvHRIczdeQ9qFJb1y96Ckav+GjO/fAyn14/DFqbBK3/wOND+Ben9AYT3/wSNziKMnPZmBMuGMVTzMR6zWXUnMEcBNMqqqZTR6Uyj2+4wewkww8yKn+A1n8Dx2X4Grm2odnZxbxdz3N/t+HDa+2G978dwvDp2feEdeHimSr8nOMrfA9xyHfZ+9Ay07vrvmP2r9yK4/rvY9eJ1CPZHWLxrPWI7ZEaugU7MrtQ5N7CtwsbP3oiN7X/AOes34KwPXUlA7HyGkHM7rvjoZqy/7gHcdduNuPG2u/DALRvx6EfPxVV3Hb5l/35jvV8GLvrOHbjxazfijp/egU+suRkfu/Xe3vaDTSB5H979pWFcftvVeOPK3upnsMGBwhuuDrCUYScjs4BgMeNQQqauoQO7thzV792Lh99+CXY+9Qh+8s6Xo/73FwCzbWzwqvhRZRpz3iQaSxixRskQPDybehwzu3awbhfNGum+HmKFetH22ug8NEOBScHQiHicjSpbufKlGd/DLI9tscyEDcKkgXqD14Eq/E4Me+cv0Bgfw/i6l2EpAdVgCu5WF2Nq/DRk1DDLgntQdrq83hPgt0bhtScI/q3MnfQAMzLvCpkTHYktOhUX3bQFW267HBuHt+Had78CJ77pCtz5G636jIsvwsZ1/WBEMtrwQXzy0qXY9L1np2XOv/B8rO9X667FGW84G5MP78xZZ94CbLvp4gWBRDYwUDQKTeNbTRpshhYwDOkVjMCDZhCYeMrH9PIRvOjRaSx79SdwWusYNJ5/GvZMkIeDFk5YcxIae5ehsn0YK4c2oJx0kD59F5aR6oHlmCLYMCV+9dBZ9nI8tvgElNatNUMKotk6hifnsIiks3SuRlahL2cbGGsNYaTrYWh3RMfXGbpWw77hDbAmH0XtnZswuvJY7JuexD9N2Rg99mhU/+6XCN72BVS+8Sl4b1mOo+95ENnq49Fatt085Tb9M0q79dDwWdiSl7wR53/qy7jrgTvwX4/9Xzjvgk2Uun07AaeecLCOyW3t8acCX99KnjxSOxsvXHtoCKk8Q/L26C0X49xLv43Jl/0Z1v8ekMgGBop5UJbmXet6tqPMRz2vZhQbha031cBR3/wv2HvreYiufCtmhxp4cpIOHFuC3eUQ4xtOxo6r/hPuv+E6uGefifCnd+PxO25EdYy/hlhZXV2Lvb9+kqHHxcoLP4YXXH4lRk4/mSBk1psdiz1HDyOrR/ArE+gsZUa9NEDgTSGpxti5YhzhxK9NjO/wMqMvvw5+rYH2f/gRRks+nrt+PcILbsDwXV9Cdv44skcfwO7nvAz+shStPdsRumcwlc9BIrDkzwUGt2DqN0QndcvGCy/H2ffdg23zrDKB4HAik2x7eLVwqPmHq+N32u249mvA5TeRSe7+FK76zs7e+sPbwECxJxbBmaagbFdRCm24GoHfZdrZYUv2FyFcUkblXddj/H8+ivJ4BTOf+DS8yz+DRtDh769j7ovXY/kD9+PFDz0B54sfxMzVH8Di0efBvfl6RN/6j5hcXEZ860046pq/Be7/GZIffgPNTV9D48uXwr//s3C3PQnri+9CZett8NsnotV8PsoPfAbOTX+DarIEI7/6Coa//CZkq04hKS2Fd82foX7NnyMcOg6dxx5A8J7jELFOq7YarSjBcFkv1SuZGoGzf4ainC4SWFyfkmu696sHsC1X4fT1vy06Eft5OJnH3iR+sOUAv+QW4J4ffwv4yxOodA5jh8imJjOb23ufB7FT8YmvEySnvBGf/PS/xmbqqG8fVuzmNjijaDSbGESiVuNb9cRY4lahiD9iNOLnh/dg+ps/wfSm/w18/1cY3tuGF2nIAGN/FuKR//szbN/0PzD9oy2IGMq6pPiJhx/Btm99HyWme/7kDkw8eC9m7r4T2+/7MfY8dC/2bfslprc/BItCtfv0Y2jtehy2Pw2nM4X2ru1ctx3W3DTaex5Gc3YHQn8CcTRFIbwP3e4kkngOthOhVK7DshkqEz1LykOLyCPLYsqvUENoqFXsvOhJ+KC2YSMuP+cefPj9V1GT5LwS7L4XX73mKmx+9RlYv8Ksoi3Bzi99DFf9sNfzyjR5KzXDh69bhcvediCNnrcVa3HS8bfjhhvvxKRhkQA7b/0Yrvwh6WdgG8ZI7wTDZ12Ez7yd1/vpb+N38crAd0IP+WJqk0RZj14R1esWSo8pcK3Ywv6ah7heQ5Vit7arjfJMwLBTh7tmEWbZHIY8F0OzHYztYaF4XbKIDFUroRzGWB3YGBsuYwkFaokOtmaexlB3P0aSWQwxG6oxXa4mXYQze5E0J9CwIwwzQ4lnJpgG7+W2DvxZ/lym2SWnA8/u0NlzvF6CxPYpilO4Fb1tKKCQBWOyoRmCqS59AtnyYZMh9SzK/B6m+4PbKrzxkzfh6vX34uLT12HNmjVYd8o52BRcgO9es/EgppjExo9fBFz3GqzjPmvWnojXXhfgPbd8Becf39vlEDsB77zyIlRuOQ8b1nL/Nafjkq1/hasvPam3/UhtGGdc+Bm88+4P44qbDg+VgWdcetK5QhkrnLJGubH5ObqrEbMNMUaMp8a6WJk6GCFguhWfAnSGqTDBddYLMfPml+KoG25Dc9t2giSAO16lc5oUsHOkforREvPbbBat9hxjAQFYYVaURGbsS5ml22mjOlJHGPpGPpTrdDqXQdwxkC9VKgicOTisy2WR8TTIfFIGw6Sjh4tRDVEQcX1snhPpOZXDuvX0Wb/B7oyZ50umQsfG0q/81NRzRNZuoqlQ4QxjmJH5gN2La9ecA9z2BD74El5/r5OsPDz8+7UJf1CzY/bGMBvVv5QNDJQd7hWkbo12t0zPpa00Uq3RPObXsEcmqBE/E0ARRWeZ2xw6u1VN8PQocEwjxP5ghg71qQ8yNBivHPWmMu2d5jFjocXMg/VXPVhkFg2z1EwG9CrvUQh3SBpCD/B4fhaNtNd7PfkL6MJXxPUaK6NtZA2CVg+1JYY1sjFL1N/DQyLyCBmF1KIEi6AU8AkOZlYarZdQpGvWqKVf/0nvl/8h7VCg/DHYwKHHYxqrsSdmIFLE7Ecj7zV6LC3TX0yRkyq6bh2d0hCaVgX7LBctMQKJ59g99NRUG5VKDRZbT4e0kJLeXafCll1BWGJdlTFUh5fAqzC7IQPIWUKMzX3KtTGEZvBShaAsI6SziUkyQdl8jxgW7bgCvdscM4xJR+nVDbfCayM7WWUyhx2aIZxmLA2vTX1Cmd4C4FKmLnwzXoXtJ9VrroUZGxgoGv/q6FVNir9Ub/PRWea1UALGTsp4grQ4QYd1k5KZvG8iSPG4k2Bfgw5bPIJpho8KnTgeVFANS2iz9U6zniiMsDQum/d5JIqjbhf+XBNJt40s6CLuBgRmjIrGxsZkjSiERxZRsfnZoSjWtvmhKvplGvFGltJ4WLsawRsie1XFRgSDSIr7Omb4JgFDsISBRrxxJZlSL8SLbP55bC3OvulGnH1M7+sfgQ0MFJcgyV8Y14i2fNyIesPyl9NdHOOMY1mrjOV7Mqzea+P54TCW2w2T8M/u2Q+XcluTKjX2+KhJWpBZglEFcBejTToxjaglYnhyvMRvyWZxUGW48ZgxVZSWBNQw/hwq3K9MwGb8bkUtbksZMqSZuI5CN6E4DZMW/GSa+rSJ2J4jY/BaNYsB0WimvSCrkYfM+Bm/q0Hg3EbG0Uvw/3yDq4ex9pRTsXZR7+sfgQ2sUXYuudR0BdganEQWgM+bySzIpVs9hohu1mFocikQuQ9bbuIRDZUWkkqbAoItX694EilWrYtU41YpJkkJ3JcZB3VLRCqQUJXQVFDJ1KyN/tCAakY56RKuN6Pa9OIOi8S19IrZLs1CGOezNfGzEdzcrsHXBFvWYZhimEkUmliygBsjnpNhitUiHWYq71JkkxX1ntKqGx9gfYUNzCjKcNRiNUOSGaQmJxmnEi96rYJeNqPOyDJqkFql+C+20XvFyOgoLs1Ylkw6ggeqD8ZkGrJ8vfB7cDFepLFWszzUtH9ehxmUPb+On+fr7Z1D4KL41WutZsytirn+vCRdiuVAL7Z6qFT7xxZ2BEDR3Gukdwo+MYZSS8u8tkGgaLNAovsrx2mAtcQiGUevnUrwImUKzKWyD/PiOh1rAEWfKkMxDlMFrNCATOHNACWv2yzNvzSBgvup40wdfsKQACMCMsfrGsx3XUd+DjPtl8Qqi9EqDDPKnHQ4JS6Spou47SBjOq355QrLbeA7kc9TopRYaWhPGCqN5Y1PNRJfzjSMwJuvDEWzRRMAenhoabBToslz8g4v89hIzhVAVDQYmlmQ2Caf2WkeEqZe8zK6wUxv2QNBHyxKa1WPSYkJIrONl5sDsbeffrHCEtN4M7hag5P0GwgKvcfjcB+RZkZRne9cmOyIgKJ3idV3YlhFsxdpcDJveFJihmGqFBv0nE02gWY5YNH4lXy6rhwAB0DFLwRJqpBktuXr9X5QDpB8f5n5qP3FJvpf+4stxFymkIHoY2kOw2jqXVXoEwAEFB1v8zNB7pTyogmNzfs+BEy1Rq2jF9aZGsfM6ArLbfAm03NafsPVGumlsl55YEjSS9/0eu5sVa1nQfnUGBoJpzlU9KqpPCvAGZ1AP6qvxLySwf1y7cLjuMGmSrWpis3MBGaUfw5Dpw8cXQRLHwyGwQxzcBuXhpF4eWYfhTkBiedKyBwSzGZuOI1kM9N45Uv9ppjX2A18BF1da2GywYFC56dyAgGhVyR0YzWlhF6m0nu8sTSHoQjSuJSuOsz0IJHMksY8Vp3VtrrgpXHodOoD83qoGbBNVtGhhI6muHD03pCrZc4sB9v8hetcYhE94BOTGOAQFP3Qw3X63gdQIqbhdZlXU+dZhb+jBxbNPql+Nr0/lE+FUZhsYKBoELUOM9Oa82ZquiwVxXq1Tq412+lqLvXyKfcnQ5jWrNivJ270WD6dp5YKLXmd2k8hJz+ejMI0WyAyszr2gKLZDYzHZQLJ/Ed+7rFIX9vkzJaDR4QkyzQbE+s3m8ypGHLEbnqBjcBwS3U45QrK1RJqQwR5YcYGBgpMf4d6Z3nzNV2jjOrPcrvwSh2UFvuIy/sRaV4STVbD1hrVphGN7wCe8zhK1DE2wZBEdYRB1UzVpo4xS9kUkeRAOoZws7rUpU2kXpuExJZOdgmlYwihfFIdvXQmlmAFetmdx5SENYUa8/JZSgbTYwb1IBOhKdlBwI5YbxTya8Ldsvxtkwr3H+JvGOH11p+GN7Yf9ljTDIgqLLeBgaIor6kpLJODshVCcbzXrOlMb2iv+Ts9WbaYNF/juhbKtSb0MDcLh7lrD1xc5i2d9am1S3/oA0EkIBnTksWwCYsJUT2bF7n9QhPAVJ/MjCURwxBYJvToXLzMPrOYn96rW8VmCJyfpYm/Q88hFfIKy+3AnV+gSYBqtgBTrF53udJl3XAJ0KE9KNUS3uQaIcQQRT3iVX2UyrzzIUUtOSN/YZ1OYFZhm0FPEqmqlyHAiFk6TA8aTbqsIo3C4+g9QVIlH64ox8qz+fqYebDJeBR6VMQupn5lQyzUSPpsANoDqWweLKrPVeFnMebAd+f/Xxv4Vujm5jeWHjHPfPqag9vUcUXv2LUWnMZ+hpRZhEab6M/CeQwPLXqYGoHilqoRdkgwaDZJiV05VpdDR2oglNYpxdXM1v1Qo3McrFdM+DHr85+haUdzkPCLQCLWUiak+EJgqk/HYsqsWSjnMyZz3rwuySlDb0Z36fB5+vmTt/wOD2Ca8sI4WXdSHrHU0RYZVtGo9TAcRVaegzP2CMGyi+GnjKi9HEmXIjFr0jF0lnEgQSKG8VkCZjxmND/XsW7jYIIk1YyTZAEdw9wqByjDgokLLBKk+m7WGXwQxASCITjDJgSPQKFOP9ZrOvaUJqt/RB1q2qfHKmIogUXjWlT0512gZ0WFGZO3B7NlK2CmCtV4WZOt5M1XMwqoxOGIEadZfQLO8DRTZgtRUEPcKZFBSkY7qE/DdMCZVzwIEr+KNKjQgRU6ktVJe2q6UTlYbGNASWNrV7psWv9BZhjGsJzQ0isCnM4jRlGY07iZkKyidUboEjASvQKTwMJr1+HmFQ1pMGZk9vhhhzj/ydnAQHE2vIBO5Y1na1dHmZyTt0JmF/Sy0mTNo6a/tuHVLVQaLcb8WST6+z7tlYYF1BcjvWBAQoAkIUESlLmk+FVvqpyspWEV1q/PdKaKmemJDCL2UF+Hln2GUTGhsQcWsYsRzwp/qoPMpIzIPPdh1mMGV0vXzLMK8aIpPKRTGEZLzz3FrC/sCIAy9O9exnurHlSxie4slwQK77gp+suiMUGQMMNx3RLKQ204pf2mJaetVXSkduM/ciKBoMHZeusw1aClmGHIbFNLV6hQa+d+styXuSZR06f1HSwzYUlFGU7f8TpWgCFo5wWuNvXqzZIcJAfXY8iKP0nnqZz0lnxlYYMDpXLqGtTfeirCWYYfMoAm/NOINzsL4ZhMOUNJHWnMiJI4n6W62nDhNrroejsR71kMa2YMTjACN62zuPA6Dpxp7jMphhliXRV4ZAdHGY/ebaa+cclgFTKJH1iIJXQdlwAku1BHmHnxjdL1zBxsZjQDfW8x5Nianz/gNr1GQrDmc/bzeAppW+GP2zUjE+IuwdQmhggg1uVtOBfeMS/Nf3RhR6BRaGP/cA7Kr1pHNqCTqCPyXqu8KtMnMl+tAoNELhNlL4JbEd1rXjcep/4vLs3f/NF3hQYtxTB0oMa9auS8hKj0hr7rz74c3Pr71mcYfsg/95e0PmPMF4af/Gm1QhFBw5KHNrIbl3qm5B13Ghpv+LQ5vrDc+h4d2JZ899+j9G9PN39SReEjzy11o3nz5ShWnf+VC9KMo+k4A3gV3wBL7wYlBJeW5i9wmCXDlXRLl9kPM6Fc6HK9/lq6/igDS9olVdCeASvzwFDI6Ieng8Gig5Q+SxybVJlL/U3EPkjMOn4vrz8Xw+/4mjmusANG7fdMt33hFt69De1b70T8iweR7ppijSFvOOlfY1/ZOh2bwFHfCR0hp3QfP4bhQg/iCCDNSW+HJnQIsnKsrc66ahd2tWPAlTALyUrMQLjOKXPfMYYIkYYAaHLgHmtIqLISQopg5A7cLIYy27SPMGb6SAgK/m9mrdb0oZoqfflRKK17GSrrzynCzWHsWQOlsD8NO+LQU9iflhVAKWxBVgClsAVZAZTCFmQFUApbkBVAKWwBBvw/c0FWu3iF5d4AAAAASUVORK5CYII=;" parent="1" vertex="1">
          <mxGeometry x="240" y="610" width="139.55" height="90" as="geometry" />
        </mxCell>
        <mxCell id="PgJAh9kEpaXaDXCcuAF9-94" value="&lt;font style=&quot;font-size: 36px;&quot;&gt;&lt;b style=&quot;background-color: rgb(255, 51, 255);&quot;&gt;Loging/audit/&amp;nbsp;&lt;/b&gt;&lt;/font&gt;" style="text;html=1;align=center;verticalAlign=middle;resizable=0;points=[];autosize=1;strokeColor=none;fillColor=none;" parent="1" vertex="1">
          <mxGeometry x="-30" y="-20" width="260" height="60" as="geometry" />
        </mxCell>
        <mxCell id="PgJAh9kEpaXaDXCcuAF9-98" value="" style="shape=image;verticalLabelPosition=bottom;labelBackgroundColor=default;verticalAlign=top;aspect=fixed;imageAspect=0;image=data:image/png,iVBORw0KGgoAAAANSUhEUgAAALMAAADMCAYAAAA4YJLnAAAAAXNSR0IArs4c6QAAAARnQU1BAACxjwv8YQUAAAAJcEhZcwAADsMAAA7DAcdvqGQAAABhaVRYdFNuaXBNZXRhZGF0YQAAAAAAeyJjbGlwUG9pbnRzIjpbeyJ4IjowLCJ5IjowfSx7IngiOjE3OSwieSI6MH0seyJ4IjoxNzksInkiOjIwNH0seyJ4IjowLCJ5IjoyMDR9XX2QAfEDAABUtklEQVR4Xu1dB2Bb1dX+rGnJe29n29l7J2RBGIGwoVBWKbSMn7assssoUKClFAqEVRqghRbKCCQECDN7k8TZcex476Vlbfk/5+rJlveSZCX4Iw/7PVnSe/d+99xzzj33nJAmAgYxiFMAMunnIAZx0mOQzIM4ZTBI5kGcMgjJLbM0fbJdh/UHDDhcYkWN3gGna1CNHkRwQC4LQXykAmPS1Vg4PgIXzYrCyBS19GprhKT/cn/TBbNiMH9sOMZkaJBAb+QPGMQgggEsWKtJwB4uNmPTISM+3V6PMyZF4sHLktqROqS0ztk0SN5BnCxgcr/2VRWe/4yOG9Jw/elx0itE5oqGQZ1iECcfDhSa8fu3inHlghj8/sJEcW3QABzESYnxQzRY+bth+M+Geqz8tlZcG5TMgzipwRL64qePY/dfswfJPIiTHyu+qERRlW2QzIM4+cFG4ay7D3VPZllIE5QyJxSyJsjpCMEg909WcBSOy+mC0yEdziY4bE447U1o1NmhqzdDV9eImjIjKooNKD+uR3xaOG57doH0Cf4Bs8rpCoGDDrtLDldT771rj79f1jmZmcShCqcg8iBOHriIoFaLA2aTDWajXRyNOhtMDfR7nQNGvRl6nRW6BjOMDVbUlDRCV2qBudoBmYr6PTQEIfIQyBRuQiUPj8ATny4TvwcKTGiLo3ek/n6/vmMyq+ROaBQO6WwQwQYHSdVGvRX6egsaakma1phRX2lG5RGTIKXd7oDVYYfFbofVTMQ2MKkdsOldRFSy+vmQ8U8irowO5kwnvFHbVXh+zwWQ0d8GGmaHAjYn3WwPUEGDtR2Z1XKHkMiDGFiwGtBQ04j6ajOqSvSoLqGpv8CI8lw96g5Z3CEHSjoUTWgiYrpIh2Cp3EQHg8kqCEpMFTTsIxdVNgWe3nwuwiI7XkL2N1hCW50K6axzcHu0IvOgRPYPXNTEbh2VdVX37w4r6aq2JuhqLaitMKC6wohK0lOri40oPWSArsgKF70eouIpH5CrZKQGsApAqkAApaTCKsej685EQmqEdCXw6KmEbiYz68gRKpu4OIjegQ0rNqTMZprajaSrmhwwkZ7a2EBHHeusdphMpKeSgaWno77KjOrCRhiLbeK9ctJTWV8NIT2Vieqe/qUPH2AoIced7yzA8HEJ0pWBgcGm6laHbiazVukYNPa6gaXRDkODBfo691Ff3YjqE43QV1hhqSUiW0lHdTjET0sj6ap6+qlzwEWTHUtX4oVbR+WfPP2fBOuvctJhbnpxNibNS5euDAzYKGy0d61uCDIPSuUWsMFUQ1N+TbkR1aUGVBSSnnrUgLI9BjKgaLCraOyz+kht5gKpDKynsjxgkUCCw21M8S/in/S/kxdyGnE/f3QK5p83QroycOhOOgsyn4pGn7dPla1/oa/a6Hc6hE+1zoyaSiPqKkwoL9CjLE+PikMmmMsdkGt42ndP/R5ddSCs+WCAjAbmslvHYPkvx0tXBg7dGYOCzGFKOxQyl3Tp5AEbVsL1ZLLBStO6ycB6qh36KiusegcajW5/qk5ncbuvKugotcBW7x64rKuGKJmo1BBEVo9vNRjQRN3BBqDT2iQGFZ/zoJLT/QYS/L2nXTgc1zwyXboycHC4ZDDZldJZewgyR6ptNBsK1TnowJvHDTor9LVsPFmEJGVS1hVbYCyzweEkw8tCZLaTrkoGmNnggLHGBqeFfapEVhrIHoOK9dVmVSBYQd3A6kxsugZj5ycjPTMa2hiVMCiPH6zC7tWlUGhptggQqV32JkyZnYFbXp3jbr8BBK8U6q00sjuBIHOU2iqdDgxYFWCy1pFBVV7QQPoq/TxhQOlhPYwlNtgNJB7U1MsK0lNJVxUqBP2vyUG/eMgpDiItf+DAtnm/4GxowiUPj8esM4dCG6WCKlQBGZGIZyGLyS7UoTfv34rK4yYoI/1vQTKZJ0xJxS2vz4VS3b17zN/QWTv3d/uUzEwyNobc/lTST+1uXZWnS5vZKSRrLeupVSYyrowoy9ejaI8ODblWMZXK1DKa+ummSJLK+XeWPicxMXsFajsetL94bhoWLB8lXSQpbXGIdtRGtEik+moT3rlnFw7sqnBLaD+2kYsERvaERNz08hxERFHnDDACRuZD2ytQsLte+FQNenZdmcSiAOupBlIJnJYmyMNIetIAZ/2UO6J5+v8pg4lsduGsX2fjZ3dMkS660Uh2wI5vCzBlQQaiYjXSVbputOGTF/Zj4yf5gnDcpv4ArygOHxuHXz8/B7GJYdLVgUNXZPbpPLV3Uwn++9QefPnmEWz5pABHttSgItdIRpoT6lg5tGkKqKPlUEXIodCQ3keE/skTmeBodGHczCQsu36sdKUFKo0CpjoHtq0tFLOcB9pwFa64dwouvWMiTf8yIp30gq9B3WO1kT1CBnaww6dkThsVKaKuFGGkIlADC8krGV/+nArZ4naQwWclw4kP/p1VnpMBfO+xqRqcdctohEe1lzoKhQwJqWFE5hMwkiHsDTm9tvhno3D5PZOhUFED++WZQ2C1EplJXw92+JTMSRmRQj8OBJgETFi5U4aoMA1Ou3Iorv/rNHHMuXQIIrRqYbz4A+K7W4Rk30lE7+MOWPjzERg/O6VTL0t8RhiMhXaUHNFJV1rAhD7tohFYem02fZ7vJQbfE9s75p8amWMTtHCavHvZ9+DB0kQCKjE9DDNOz8DNr87Bk9+eg188NBsLz88Sx42PzcGDH52OuecPE1Lal2C/b1RcKLJnJEDG5KGPD4tmR7D7NUZPVCdWCzgo/rRLRpB6MU662jG0EUpowpXYv7VUutIa7O0491djMePMDNj1Pm5/ehQOIWX/fbDDp2SOIQPB5adVcafVJVbnRs2Kw2V3T8Kv/jIHv3x6FibOToNK3X5VKDYpHFc/PA0LLxvRvEjSH7AkNlc4MO2cNFz/5EzEZ0ZASyS++HcTSa+Vw250YcqZqZhz/hBxr13BQcaeWi3HpXdNEipCd6uLCqUMqnA59n5XJl1pD26DKx+agrHzEoUO7kuwZLYag3+F2KdkVqrkiB6lpo733fTOYZKWOifGzEvAH9aciVv/ehpOvyYLQ0bHQi7v+PbZJ8sH388Ft43D6PkJcPRjxmB1hhcybvjbDPzi0VnQRCqhjgjB3f9cBGeIA2qZAve8uxhXPzAdm1cWwdpA03Ktg37SQe+zm9yHVeeEqciOMfMTcfsbC7GUnoPvsTvI6DkVKhmKtujEMnxnCItQ46pHpyE6LbS1GtRPOBqpD0gyB3v2Y58vmjx14zrk76zv/9IwtZuM9OFR82Jx0W8mYWh2bI89H9VlBuGbTc6MEjrf8ZxqrHxgO6qKTL1aORO6sdM9KH5272ScdvEIIUU5eo4RqlVi13cFmL5kqDgvyq2n79aLe+fBZDM7YNBZYNK5/z4xPRzjZqbSrNE7F5e+wYLXbt2CA1sqcPWfp2Dp5WOkV9qDv/f7d3Lx32f2QKbtZx9I4Fnnwt+Mw7k3jxM6+kCiK9ec/O77HnnUl0FG+QeqUbC3oX/LrUxkIs1o0kvHL0ihztdCG6kW021PwOQ7vq+a1B6t+J3JkzwqAuVH9agtaBQxDp0ZW0L3pdmAQzTj07UYNjIOC68YiQWXj2juSIVSLg5G6rBo8ZMRFadB6tBocaTR9cysWIyckIixM1LEMSQ7jnTfzpdjOwPrxHvXlqG62oTK40bMv2RY8/e3Bd93TGooio41oLbU5BPXJw/o9NHRGDM7acDJ3FWgkc/vLCEtXDjx+wN+Py+dxhAJo2O19FMrlnV7CtYf2Y3Fu4w9GEdkuvHZWTjv5rHQkkS10ZTP24y8wbquvc6FiYuTceX9U/CrP8/BTS/OwRnXZgkX2UCBB2RYslrEROvKLTi4vVx6pWOw7bLwZ8Mhc/jmntm1atJb27VXsMHnPZSUHgmXZNX3Fckjw3HZPRMw/YJ0zDg7E9Hx2s4laSfInpqEdf85Ip25kTwkCuf/bjzu/fcSXPj7ccIbYSq1C93WVGLHpKXJeGTNWbjxT3PIcByJYWP7Jkn9gcypkUIqOkKc2PpuYbOq0xmmLM7AkGnR/RYsDJbujSabiN0OZviczHGJJJn7o4JTe5UfMuK/D+2HvKnva7QpRNwjq2tIOhukK26wqpIyLAoX3DQRr+27HE9tXIZrnpmCpzYtw23PLcKQ8TEiDoKn9kCCyWk22kTsdUcYMTFB2BBsixw9VIV9G8q6NMj4OdlbYq3xgQpJTaGvtbRagQxG+JzM4TFqqCLoY/swiIXBRcb6rPMy8Yc1pyN7uju7Y1+x8P+G4uO/7ZfOOkbGqBicfukY8bO30t+XYGOyOK8eB7eVouBwXbspPWNEDKkPGuEpMusc+PrNo2io6tyzwRg1kfT1MxOEDdAfsGRuqLLARUZ1MMPnZFaoZYgdru31cjJPh2z0sd/15w9PFZ6I/mLO2cOx6aMiVBS3XzkLRmRNSkJEjAabPjuBVa/uh8XcEg/Bkva8O8fAXOkUmwryc+rw4fP7pFc7xzm/GAs72Qf9AQ9yfaVVLPIEM3xOZrmKrOlk9nP2/MFZckTEqnHvW6djybWjfJajIS45HEmjtdi6ulC6EvwYNjYeZ1+bjYIddbj3tDXIzamSXgGmnzEEo5fGiWV6ZbgMWz8pxP9e2iO92jEyR8cgISusf35nIrOF1BV7Y3AvnPheMstliObpsKfGAv1ZTKpGRIAV5dcKvdFXYIky48x0HPm2GrrarqfkYAHfc3xKOH7z+mlk9EXhT8u+w6oVOSLQhz0qCy4d0bxErwyT4esVuVj/ca7wq3cEXgbnpff+qgjCk9Jgkc6CE76XzNTgkVFMZulCN2C3Dwfhv333LpQc0CGsg8ix/mDS/HQUHqhDAU3LJxPYNXn7ioVY/OsR+OKVI3jn0V0ivcGR3ZWtF6RUTVj1zEHs/LJQbIhoC4VKjriEfhrlBI5+1Nc2SmfBCb+QOSoylCSBdKEbsG5dU9CI+BFanHN95ytbfQWvuoWoQ3B0exXstuCeJtuC2/KKe6Zg6Q1Z2PlFMd57ajeO76oT4bUeMMmMjVZ8+GQONq3Ok662gIWFigjd3xAD3glUU2WSzoITPiczG3FhMW4Hf0/Bf7vo56PE4oivodLKMXJOLHZ9X4xG/cmXG4QXi86/eTwWXjUcu78qga7SLAjqDV7RNFgsePfBPfj3X3a2ktCcDsxgtEJGA7pfoLc3VP/EJDMvp2pjlVBG9MxHzLp1ZlY0xs1LFC4gX4PJkDkqFsU79Cg+2iBdPbnAz3D1/dMxYVEyHJ0sSIlNEBrgu3/m4bFLvsS+H0pE3ro93xZjw0d5kIf2r6tlShlqK4Lb7vA5mRlhcWoRg9sTXzNb2dFRYYhNDpeu+BYcw5CYFgF1jBzrV+VKV09O3PKX+Rg/N1kE/nQGpVaGsnwD/vbLjbj3jNV45f+2CuncXx867zGsOKGXzoITfiFzRLRKkLknvmah00Uo/Bb7wJ0YO1SL2EwNdn9UJmIMTlawUXjtY9ORPSWhy5hldo/y4FWGy8Xey7ZqSV/AK6Ll+1piXYIRfmGQNlyJUDVL5u7ZzJLZWm/3q3EWm6RBVLwadqurld/2ZAQHXy2/cyxi07T98x33FiQUGivdaQ+CFX4hc2i4CqGhPVMzWNer1bvzaPgLEbGhCNOGiqQp29acPAsoHYFnmrEzUzDv4qGcuzHgMJExGazwC5k1WqXYfdFTNaPihAG5u6pFYLk/wNvyQ+VK4c8++Fk1bNaTP6H60quzkcIRij6IiuspOKGkoTZ4F078QmaOv1VFKsTU1BNwZs7tawtFwhN/gPVxucb9qC6lC5VFrSPpghkVRTpsXpuHH1Ydw+HdFc1uN17yv/LxqTDT1B8osAuwNoh9zX4hMyM+Syv2rvUEcnUIjmysxoHNHe8+9gXYVcgqTZOiCWUnTg4XHeunn71+AG/ftRvvP74PL964GQ+dsbZZ78+anIBpl6b2Oyqup+CFE06wHqzwG5kTMonMvfAHKSJC8I97d7ZLdOIrOIwusQrmJEW+9Fhwu5g84Ei59BHRcLhc7sTmMidq601E6k3Y80OxsEnOuCJbPFsgwFvheCtWsMJvZOb9dyG9aGOxYEJK9ut3bxGbQH0JDnjngjjc+bxIU5Nn7pE+Hwx4/9EcESHnAdc9aTTZ8dGfc9BQbUZGdjTiR2p7HtjVD/BMW1UcvO45v5GZN3eG9DLDDsccHCZ146tXj/rUSDPUm2FqtApjk6WzpcHmk88vK9Bh4+rj+N/ze7HyoR1Y+YcdWP3mARQecVfZ9wWikjl1g3QigeOZS47oxV5ANRnbo6bGkyEovehHsGSuzPsJkjkyJhQhzt6RmSHTAt/9Lxe715WQ9PSNtKkoMqKmhqZHlv70z+5wws6Sug9gj8vRvZV48pKv8eT53+C9x/bgm3/lYuuaE9j6eQE+f/kQdq4r9pln5sybsmA3tL9Xzuf34/oisZCSnBbpt1Rk3mBhYCgL3sxGfiNzRHQoZK7ek5nJ5nC68O8ndiF3T02/1QHehJm3tRY1+Y3NS7p8zUl6aG/B+vx7T+3C42d/g4LjdXAonSLpOesvIjaCPl8JhSib4Ks9hPPOG47o1Pbx4Vy6oihHJxLhRESGuhOvBwDWaocovRGM8BuZOXwxZmzfMuuwBLBZnHjh1vXY+WVRv1YHS47VY+NneaR3tpCLCSCX9e7RuYbf63dtwboVuQhLU7aOKfaCHQ58+16uzxINRtAMt/SaUWR/0P1685VGTqPe4R5AGrlwmwUEahrUQRqk7zcyM1KzI/rsNmKy2InQbz+6E2tfPSSSa/cWnOx85V07UFNsEpJTgG5HKZdDRdNzb7DhvTwc2lgFTXLXsa2sXez6vBh5OTXSlf6BPRrzLhqOSWemiBx1nJyRd5qwWsHtwwiNUSA0qhcxt/1Ak7wJhiCNb/EvmUdEkmTuu9uICeiwO/H5q4fx78d29UranThUgz+d9x1KS3SioI0HPEjCUlQdJlvsDLraRhzeVomQHlRB4FmlocKCyiNGn+n8UfEaXPfwTCz55QhMPicZC64ZJn7aKt1tqw5TiKTkrSS3vxDSJKp6BSP8S+ZhUSLpXr9AApXjdLd9VoQHl3+Oo7uqxD7BzojCeu2Gj4/juWvXQ2dpbJcmjCZkkeylp6uTjLoqsyjB1uN4a/qzRpNvMwCFRapw1e9n4La/LMR1980SP9+uuFK8xtJbzgtC4sy/4FQmpvqfoGSOT41Ak4+sbPa1GuqseOay7/DPP2zHpo/zUXi0TmTF5MSC5YU6bF9TiNfv2YK37tsFq8MpfLLe4NzFY6cmYeK8NOlKz8Ck5EWLnoKNNZVK0XPy9xMcbqsOkGRm12ZDTXAG6fuXzMlhoiiPr8BbspQxMuz5qgzvPvkj/nHvVrz+Wzpu24o37t6KlY/swKHNVVBGyEhFkd5EEGGmtU7MXp6Ja56Z1isVgxEWqYRW08M0XfS42jgl4oeEBSwrUmJGBNKzowNCZvbeNFT+BCWzNkINdZxCjGafgfjB0VucALvkkB65B6pxdH8VSnJ11JdNIs7DGzaDC3K7DFc/ORVXPzYdUXG932fIW/+jw8O6XWVjo8xmcCIjMxojpsVJV/0Pjgq8/K7JCFUo/Z7ckAWDvvQnSGZ2GyVmE3n80L6/eHIGLnlgPFQWMuaaFFAqWBsOEfEgcpcMCpscKpMSy+8cjT99fw7OuCpb5JDrC3jr1cIbh9F3tEzl3KlM3hD6T+GSQ+1QYsLiZFzx+CRc++wMkewxkIhLCcOd/14AZ6373vwFsYJa5wjKvHN+r9D68j3rseeLCrGVxycgMnEW+esfn4npSzNFSGRJfgPqKk2iJK+cvRVRasSRipOcGdlpdv2+4JOXckRZOAepTvFDtEhJiMTIxXEYNycFacOjeq2++APff3gM7z+1T6gDLEx8DY6fHjclGTe9NGdAMqQGrKhlR/jwpR+x9uVjYqOlT0Bk5hoiv3xiFqYsTpcuBgY8cDZ/egIN5Y0YMz8ZGVnRIuFhMIFX595/Zg82fJjfTuXyBVjVGjk+ATe9MLtPKlt/EbCilh2BcyL7o5zaQNTX4FXN0y4ajmU3jcOoyQlBR2QGezXOuC4LaVzGzh/xGjQ+rDZ7UJZS8zuZ45LCfeaeE6DG5KB13p0yEGB3G/t1gxns3z/j1lFC1/c9yPi2cnxG30MM/AW/90pUTKjPy6nZjS5YO4gkG0QL5i0bQbp8UocRd/0CS2YuY/dTlMyhYQqEpfRsp3ZPwbVHbEZnvyPqTmWwT/7KP0xBWKzKp94N1sItRlIz9D9BMnNaqPhh7ozvvgLHbDQ22uAK8rIEAw1W8S6+cwIsVT4M2SQ2m2ptMFYFX3yG38nMeltCOunNvpQOJOgb6ho7rf9xKoOfmeuf8NYyTmRYV25CTYkRNUVG1JaZmndvezB1SQZSJkf4dFsVG/TBODP63TXHDc+pWLd8XNDv5H0esJU+cnos/u9vCxDu43zOQQcijMlgRXmhHlX5RjoMqKoi8pYbUV9phqHaBqvOISp8KaPkuOGZmZizbJj0ZpCx5sRHf92Hr985JpKT+wI2nQuX3jER59w8usc78H2FAXXNcc6KqGgNqQTSBR+AwzgLc3SwNQbnjgdfobJEj09fycFr/7cVb967DW89sgOfvnwIOz4rwokf66GrsIrtWapIOUITOLAJ+Oqto9K73eAcJmmjokQCHF+BUxCbLcFXSs3vZGbfbEREqM/dcyaSSPkHfBMAH4zI2VKKp8//Hl+8eRSHcypRW24WtoIqSiZmOA5tZfK2XeVTtZn9+PW4IVpEJYX6zgiXu0sgB9uStt/JzH5ZbZwKcl+tAErgyLhNq/Ols1ML7Eff8MYJGB0W4l+TmImYuN2BM4POXJ4pnbWAVTFNRM/SpfUE3Ke88yfYKrb6ncyM8DgltFG+dc9xWoIfV5WLXSCnHEiaqqJJ/PVCM2CiqhQKzFzqLkrvDbVGDpWS40Z80wE8sPT1P0HJzNBGq0gyKH3J5WbkHzr1VA22M+ZdOQzKJnmPl6Rt9U4s+202IqPb7+1inzP/56sOYDLrqklf98dyeT8QEDLzlh9tWEv4pK8gI2EfzPmC+4Mx05Pwh0/ORCzpuzZ919YzR7KljAvHaReNkK60gY/bndUMXRVJ5iBr+8BIZpLKoaEq91zoQ/D2+oqCkyNvXG/Bu1RSRkTisffPxpKfj4TMJhOSsF0T0rnMGYJl14zrtMCR1eKEzeEgFvZCb+kGlnpH0FVsDQiZQ7UqqDhfs48Hslwpw9Et1e7Ao1NUQnNk3lUPT8ctr83FpNlpRFiNSDfA+xltDU402YHFV4zE1HPSiKsdk9XYYIXZQH/oOy7D1dgEA31uMMHviyYMXsp+7fat+HFDcUv+Ch9BZVXijvcXiN3JmdmxvhQ+QQerxYHCI3UoP6KHvoameZsLKaOiMH5hcpclmretLsDKh3f4VHRZaSDdumIO0rNiRIrg0lwdzrhiNMKi/BuwP6DB+R68+6fdWP+/vB65mHoDNpLmXz0U4dFqnHX1GOEuEjuVT2GwqsFxKfyzu3BUXt7mJDqfvHigVTbR/oJnWWWIXCTHdIW40Fhtx7OblyM+0z9VwzwY0BVAD7jaU2/yNfcUDpkL2z8rxtFtVSgv0OG5W74XS+i+hI0kYl2FKWhUGW5GXozqSVw17zwpzKvzefouFkqOECfsMtKdicysPw90jHPAyJyQ6p+t97zjxES6W/6+OhzYXo5j39Zi9SsHfUpoXjL+/M1DWPPSARETEQw4vrcGZmP3z6irMYu0Ym2T4fgaTO66moH1+QeMzJxiKqQvWUF7ANbDOUXt+v/kQxETIupMF+f6rtQDG2Gn/zwLOVvL8fpvtmLPDyUDuvpVdkKHD1/YC1MPqgzs2VACc4Pdp7YES2G7yZ33zgOZJgT11QM70ANG5ui4UJqvpRM/gAndUGEWEqi2yIS87TUifqAnHd4T8FakO15fCIfcgZev3YL/PLUbFrNv1ZmegPO8/e+ZPYiMCu3W2GK1aNUzB0UgUl/BPmwmrrnGAUOeDU6LC6NmxeKCO8Zi2vlpYqMEg4OPOJP/QCJgZI6I0RCZ/TvVeVxPLCW2fVMAY70Vj164zmcqB+ecvvP1JRh7djzWvXIM9y9bIxIqii1EARDUJr0N7zy+A3vWlGPa0ozOt/rTvXDc85p/7heJ1btyybERybHOwodNP3mlUE46g8KugNKkRObYaLGyeNd/FuCVvIvxj4NX4N43luKCmyZi8gJ3ZlJGCAmRuqqBVTMC5s1g3DnzU5icgfkuu8GFxb8Yju9fz6fOGI0LbpsgwiF9AdabVz23H1tXFQkSzL4sE3PPH4Yxs5P8ttm1hNSmD5/fiz2flyE5OwLLbxuLcbOTEUlCotFkE2XnjPU26KrMMFTa0ED661f/PAqnvMVoZQ+Eh7guGn/qaDki49SIiFIjPJQkfYIKKeMiMGR0NBLTI8ROFc7M3xlytpXi2cvXQ5OgEKmLs+fH4fevnCG96h8EhWuO8exN3+Ho9moRKxAI8KKKg6bB2AQNbnx2DkZOjJde6T84+fgP/zqOj/+6X9QY5MWMkVMSsOia4RgzLVn6q/6Djc8ju6rw8d/2ofBAvfBKMCnDo1VIJLJFRGto5rGJ+GIT70Cps8JcbxfqgVwlEy48p5nIS12cND4MKaPCkZIejbiEMESnaxCdEoposmc4qbkmTNUr3ZoTVz648AuRfJ0HSTgNjOe+vVB61T8IGjL/94XdWPdqru8SwvQQDpLSF/52ApbdPEa4tHwFzh19cHMFXrtnC2yNNJ3LQqBWyDF0XCwuf3AyMrNjiBz9G7jr3j2ET544BGeoq7WPntSDZiOUVQUiOPuUnY1M3CaRg3rErGiR32PYmHgkpkVAG60UkpYP3s7WX+8SZ5H6v6xPEDnSre5wnr2Vx9xpdv2FoCHz+s+OYeWdu6AOUJZ3D1hKZc2Mwy3PnuaXbVbHc6qx8u4dqCozCsnJ1j5vIp18YTKW/WIc0rKjRHLDnqo57NcuzzfgvWd34dCXVdDy7naCUBNIUjMFebuSnAZKiMNd0iJ9WgSy5ySQihCLIVmxpD5o/J6FlA3MaxPfQ8RwN5n1x214s+RnIhbHXwgaMh/ZU4Enl38HbVKAV+hYipG0euyzs5E6Ikq66FtUFOuw6ulDyNlVKsozcEA965H2BhcyZ0Ri0tx0DJkQg7SsKETEqqGlKd0zS7CENZPeq6u1oPSYTiwAbV9dRKqD3Z1iSxLAaXTvkdpQhMeHInVCuEhjm5gejtjEsAHLc/fL7P82ryyaSu3487bzkDrUP23MCBoyV5cZ8LvxnyJimH/X7zuCpdaJW1bMxmyvzZ6+BsdO7FpXhK/ePoKKPENzHAqTlad/TYwCiRlhCCNjK1RFUz6XQCbpySGeNjvpu40WUTTS3OAQpSs8agXXMJm5LBPLbx2HGNL/ByJhoQe6WrOo8ejB7Qs/dhcKons1Vzvw+/8txIRZvUvm3hsEDZm5U6+KeReRowLfGXaTE6ffOBJX3T1DutJ3sG7K/t66KhNqaIDWVJhQXWxC2TE9ak6YYdJb3bsw2s7yrNs2NQl1gX8X6jQLXj6nn0wIoWN7vY8XJsbOSsINz8wSC08DiZwtJaJ2yugpLQbuH6/5AsX79MK/b9U58Ku/z8S8ZSOlV32Prsgsjf3AgL0YCRMDUxq3LdiyLz5aL531HSyJro59D7eM+hB/WPIV/n79Frz/cA6+X5mP3O21YhsXr0aKpDf0j3NG8/O2EDZEqCBiQyrv7aM24d/d+/xaiCzq+pFNOWZuIm59cd6AE5n14389tEdIZm/EJlN/8rMR+DkqCg3ukwFAQMnMSMn2bUKYnoKlXtnh/i+3Jo4IR/hQJcKHqBAaLxd6rzpSgbgMLVJHRWDY2DiMnZyMqQsycMY1WVj+27GYODcV8WlaOIykQxvdZc94saIVmPusjpBKAQfpx6R3Lv/NWNz1+uKgyDaas7EEDYVm1Fe3XhjhJOdi4BLYKK0ZwELxAVUzGP96Zgd+eDsfCk2AxxG1d2OZHf+quEq60Dd47p+l0LBJMZh31ghRgy8ymQyzaJWw5LXhaoTSdCwkLYFXIMtO6FG2X0eGoh7FJ+pQsL8BuhJSR8xuIijCQ5A4OhxZk+MxamIismbFk34dGbC6KF2Bd2KvvH8Hdq8rxhk3j8TP72hR1T5/6wA+/NN+qEj/ZyGVOTYKD717lvSq7xE0OjPji38dxAeP54iHDzT0uTa8VXlFv+KdPffPu8PHLUnAHS8skV7pGbjaLLveuCaL1eggothFdn9thAKqMAXUWjp4IPTTP+1L5Gwuw8oHdsBQa8Wks5Pxm2cXSq8Am9fk4Y3f7RCriYxQmwov7PffwknQ6MyMhORwuHxYgao3YDdXfwP3E1IixP1zNauyY71XW9jXzLtCeL9e8ohIDJ8UhyHjY5AwJELoxaxSBBOROb3Xwe8qoCu1kI4PVB1vrUaER6hbJfjhFVdeWh8IBJzMIvn4AGTV4oWTYYuipbO+Iymdq86yfhiC8j0Gsdx8KqO21IjtXxRCESETz2wsszXryIxwTr3mxV2uYss+84FAwMkcHqOGKibwKoaDDK9Zy4ZIZ32HNlKJ0DgSUdSf7HHgpIanMn745Dj01VZhQDNsDS5YzC3SKCy8tXHKtbX1A7TRNeBkVobKEJMRGlCPBnsO1NEKzFjSPnVVb8GVrmIzNOIzZaQ311YMnPXub3D12y+fPSZSoTVD2UR6fgtZFdQGisgWtagphHdtW6SzwCLgZGZ/b0yyb5OPdwen2YV5FwxFdCd5JXoDjsQT9+8kvZmEEi+anIrgxZ2PX9wHRSwR1VuFp0nJqGtRI7g/o9NahFOTjCTzAJUjDjiZFWS5c8hhoBZOuJET0sMw58JhUIf2z/hjsF9Z3D8NRq5tWFkSnGTmpfXDuyv7rNOX5euw84NSKNpkFWWyeqtWMmqPiAQ1s1+c84/6ip8ImVmyRce1rBr5Gy49cPrVozB0bKx0pX/g4PuYWLp/UhtZKpXnBccG17bY/U0x/nnPdrz72G7UVfbuHjnsYP2/8+FUdrDbmhjDO3g84HwlEWQHSVwWg6f2xE+FzCSZOV+zP2oDtoWl3om512Rg0RWjRDJCX4DvPzyc7t/uds+VHtJJrwQP6qtN2PSffLEnb8NHeXj2qvU4QlLaQ7juwBtmOcKxia3cNuBr+roWnZg9HJowZYuaQQPBVGUfEC9PwMnMS55hooa1H32p1I5MtglnJuKXj87pcutPb8GdxwlnPDEW9ScsQr8MFjCJflxXitz9Ne6YD3UIqquNeOrS7/DZKzlik29Xt8vvP/hDBUoO65uj/rzhosbVVXpLZu5Pksxe5HVYnXDYAp9DI+Bk5vUAbayqXzuGuwS1KXfWpMUpuOXPp0kXfYvwZBXCEsj6o+/hvYYGH+0A9wXYL/zNO0dbyQoedKGxcnz05AG8cOsP2LOupNNNvkZ6lm3ruP5Mx8KGJa++3EtnpkGt0VBbeLhLb7M5HTAPwM71gJOZEZGkRgTXp+tCQvQVHBA/aUkKrrxvmkil6w+E071ro+j++URNndsmkmwg8dkbB1FZYBIEbgtNsgJFB3R4++Gd+OAve6HzUhc8OLi1DAV76jt8P4PVCU7F5dmyxTNVWHhLX7KwsjocsA5A0csBIXM4EYGLXbrZ4DuwjjxxaRKuf3SWiObyF1rlm1YQmesHxq/aFod/rMCGlSe6zCnHqofZZsfmVSfw0OIvRIyyN/77p730/i5mTSKr3U5ktbgXTlgyq9WkM3PIKoMlM33+QKTqGhAya8IVCKUG8JVoZmnhMgELrxuK3/5tEbRCJ/cfwngVUEXfQffvCmkSeegGGrwq98+7dyA0sXv1Tazm0WFT2PHcFRvxzhM7UF/ZiPWfHkN9saV5ta8z2GwOUT+bwbYDB0d5IgRZNFvMLpiMgV/SHhAyh4aRZA5165z9BRM5VKbE+bePxdX39n8XSU+gCVOLwcjfzcbfQPlVPeCEL1+9eYjUnd7PEOp4uQhpffX2zfjsxUNCt+4KrEY46MHtEpkZodEKdw0WAlPaSvq4Rd/yeqAwMJJZq4Ra0f/qR6y3KSDHlX+YjKXXZkPlg0WRnkCllkMd4a675yJC1xYMLJmLjtRj+5oiNPWlN4l9ykgZ8g/ViRDPZgnbGehlq5XI6lWDMZTaguO3hXCi180GMgAHoLb2gJCZwyC1STRNd9NuXYFznHE5sD98uBSzlg/tcDcGb/VhVxT7XTnOwFe+T+7wuGFa8ZOte2O5vV2Z30CBp/vtnxWgqsgkBldf0bxtqzuQaLbZnLCYWsisJrWR9wZ6WpdTdll0Dl9pkT3GgJCZEcf5mvuykEENxAsuQyfG4onPzhV1P9ii9oA7d+tX+fjktX345+NbseKOjXjo3K9wy8xVuCHzffzfrA/x9zt+wPpPclFZqIeZdLu+NHpMeqh7Fwj9sztIUnlFkgUSlQVGfPuf45Br+iEZegH+Fou0qcADnqkUnP9ZakeOb+bSEy6etgKIASNzbJoGHfjku4XT1IRJC1Nw49OzEBnTvkwY54+Yc9ZwXHTTJPz6j/Nw38qleGnbRVix7QLc/v58TD09A3W5Frx1+27cf9ZarHx0O3bSFM3+1d4gITVcZI1nHdJC1rtlAGJ42aPwr0d3suIuXQkA+HmJzJwCzIPQMFIbRd4O930Ij0lj4IteDhyZk8NIxPbu680VDsy7ZCiueHAqkjN7nmiEp8/oeC0mzUvH9U/MxC0r5uKaJ+kzssKx7f1ivE2EeOePO1HVi6Ch6ARSM5zUs8Rmq506tweJvzuDQWcRaQt6u5K47t3DOLa9RmzhCiSseqdIK+CBOpSLZpIBKN0+70gx6C0BV70GjMwxRC5ZL56VibzkxuG48qGpiE/pe90MVg2SMiOx6MpRuHfl6Tj7tizoy6zY800pHl2yTvhqe4Ko2FCJzLzh0w6jvm+SmdMSrHvjKB6c8yWevu4bfP/JUaHjd4fi4/X4+qXc5r13gQTbCbyH0TP4WF9WylsMehYeRpE75CcimTnrJBzEhB6AdeTpl6Thsrun+mzbPevZnJnn8rum4uePTYacZglnuBPPXrgeWz/PF8ZjV+BczRyoz2gky91U3zcyFx6ux+pXDsEZ5RSlLN66azd+M2EVHr5kLb55nzMj6YURy6T3gO9t7WtHYAkh6dizJvQpON9Ho5l0YomsCgXpzN72D90TuwkDXY54wMgcHqluJkNXYF9uYkY4zr95ghSg5FtwJyy5NgtnXpeNJjMgjwU++GMOdq8r6nKa5LjmqOFqIaUaa0kyV/aezJww5s37t0IZJhO6t4ihiFGIFLHlxw149w97cd+Sz/HC//2Aj57bh02f5OPEoVrs+roIR3dUSp8SeHC0oIlmI4/kZQNQqZJccwSWzA2VFri6EQi+xoCRmSVjzEjeodD1VCQjI2v+xcNEelh/gYP2z755NKaflw6HmSzxRis+/FOOkJpdIWN8FFwkHHkpl/2qvXX9vf/MXlQeNwmDqS2Y2KoImVjU4HiKdSuPCd3+H/dtxaoXDsBQbxUDYCDALkBOQca5nxkcCSnUHel++L70FaRmBCDM1xsDRmZG6thIEarZFThj5ulXZ7Vyv/kDnHL2mkdnIG6ElsQu0KA34+83b+xS3UgbGSkKSzIZjSbqvF4YPNu+OoG935WJBYvuwMTmfXj8s7q4UZRb6GgABAoseU3GFp2YyauJUYrr7gsQiSp58SSQGFAyp49iydY5mbk+8+UPTgzYyh4Hmd/2l9PQZKCGIbJwANFrD2zqlKRcKkFsMiDy6xrMPSYzl5H4ZkWuSAjTW7BU7M/iiE9AZOUAfW+dmDPwy2mweSAjjbChLrA1Tga0WZJIF/Yuv+UN1pW53sbUhf3fUd0bpIyIwOIbR4hBptTIkPNZJfauL5VebY3kDBqMdP8skXhHck+sdybwpo/yUXiifkCla3/Az6uvtbWaVcOiyDD3GstcsIdtgkBigMkc1ZxrrS14SXT25ZnNCbkDBZ4FOL9GXKp7n2KTxoUN7+eJGiZtEZ9Kg7GxiVQgoL6SJHMPDB6Oo/ju7ePCiDqZoa+gwev1vOydCvEozQRuk0CnYRhQMsfEh3VKZk4PMG56inQWWAwbF4cRkxKELshS6NjuahzdVi292gI2HEOT3P7V2qLGHm0VeuXOzSIjfrN+eRKC1RyOHbd7xSzzVjJ4FS1l911Hwf/+xICSmTNmijIHHYCrI8UnR0hngQXPBouuGg65i8QL3R4vEOzbUNrhVqMhM9wrkeya4zxrnYF9sh++uAe1hWS8+biOtV9BA1XMUHT/Qq2gf+xhcpFObJYC9BlsQHvXRmeDndMVBBIDSmZG5vzITo1A2QDe3YhxCUgf4743eagMe78pRUNlex0wc0y0+BvWneuqOg8FPbi9At+8nOe/vY8+QhMJW3apOUwuOBpdpHbJkZgZhmGj4zBxairmnjcMP3t4Eh58fzFSh0dK72LjmWYob/uH+q4q7yekZjAyR0eLUd8WvL5vGqAEfAyWLOfcMhrWOqdQN0y1dlFovi3ShpMRSBKLq8LWVHQc28F5K7568zBcod3r1IEE+/jZAOeSZ+ZKh/g9aUQYpp6dimW/HoNrH54hYllufHo2bnphNm5+fS6u++MMLLowS5SC8M6oGqolUc3L+xI4bKDqwE+MzMK91YE7kncHFx6vlc4GBhPmpkEdy0m0m4Sf9/v3j4uFkepSA3b/UIgPXvpR7KXjxOlcO7qj7VPsvtq+qhhHNlcPuNHHg85mdKKRiGs4YRMRhlPPS8EVj0zCfR8uwVNfnIu731iC6x+ZhfNvG4+FV47A1CUZGDomDrFcrbWL0m+8L5JLXjSDfnWQceyr2uU9QcCTjbfFptV5ePOOHVBFtW4o1jFj07V44uNlPa6f5w+89eQ2bHy3QBCW78mYbxc6ryIiRKgfrPOzFGd9ecYFabj5ydbpDVhvfOqab2BtJAnvZ9EhAn1osLGOywYmZxsSYaq2ECg1cmTOjMTY+UkYkh2HoVmxfapaxW1gt5PxZ3UfVoMDxXn1KDxWh+/ezoPTK4aZS6n9Zdt5SPFhKbWgypzfFkd3VuHJi76BpoPagJZaBy4n/WzZL8YOmPWfs6kMf73qB4TGd71ww3pz+rgIPPLeMumKO974xVs24PD2Kp+XvWDC8ncKw4zUA96HF5UciogwNcI0akSlaZA8NlwsTCXR7MeStbdZnXgW4sThXJSHsyPpKi2oLzGjrsaEylI9So7qUHvUImZRGR3sl/cWzlxK7d6PFmHcjFTpSv8R1GSuPGHAPYtWd0gWljQqpQJXPjAZc8jw8PeSdkeoKTXi4Qu+hIMkjpex3h50ryF0vLrncukCUHC4Fg8t/lIEDvUH3A7CyCTDzElGGWcaSsjSInVkBJIzohEbq0UMkTcmQ4voOCJ0dCjUIgO/9AE9BMdbVJcZUVVsQPERHSpJ5zU3WkV9QoPOJvYI2km/5ixJ3Bd8H13NNryCe+PfZ+C080ZJV/qPoCYzb3F/+OIvRJ6FjhqfO1KplOOSOyZg4WUjRTqoQIKzFb10+3rk/+hOjML3w5Y+x2Swj7zJTvpipnurvSHfhpVlLTVTOGfbPXPW9JrMLHV5jyMHPTF5NbEKjFoQh5GT4zFkVCxSh0ZDE6WQ6mArRDJHsYWrF+Cl9yrS/QuO1OL43hoc3VyDepKy0NAzyel76SZ4ALGkFbMi/+vdV4jai+f+bgwuuWWydKX/CGoy80bTv/z6O1TmGgVZOgITyFLhwFVPTsGSn2f5NHdcd7CY7XjvT7ux+WPSm9UyRCaF4rTLhiJ9RBSSM6OFr/xJ0ol1FRY0ltvx153LkZThdlmx8XNjxv/aFfHk53H7b911sFnCyUnEyXjRwRyCuNEajD8jCSMmxmMo6bexSb1MaMMDjgxPLlQvdFsSFPoaK0oL6lGUW48j26pQuE0Hu8UFRZiMVCD6fno2X+v0PCBnXZqJXz06V7rSfwQ1mU16G954YDMObKiCvJtYBd5tcsEd43Dmr7IREdV+/58/wLEUn710AGtfP4wQMvzGL0rE7X9fLL0KsXfwld9vwrFtNbA2ONvpiNemvQdVnLxZt2XyRCawKqBGhCYUYdEqodtmjImmQRAhdtH0dgMC580w6SzQ11vFsnpDmRn1ZY2oqzOJ2aH0kAGGEhvk4aQeUBtzXmmhsnXd3L2GWFxhA5QHKqtF9iZRK/yJz1vsiP4iqMnskXxbSPKxd6A7cOYizrd8/u3jxKqTv8GutbWvHMbHz++HPCwEY+Yl4K4VLeXSeFXw3T/twtZPCuEgnfaap6fg9EtGS68C952/GlFxatJtIxGfEI7YjDARYRadqBVbrzj7Um9UBN6qxNF8NaTbVhTpRaxzXYG7xLHRRISus8JUZ4PT0kS6rVvqi8OHxGWSCh2eDVAHnXPkICF2BOntaaGIS9IKYRMVraHBGYH5P/NdvfKgJjPHM3z64gF8TpKvqxxpzeBRbwYuv2cyllw7yu9GIZP5CyLzR3/LITLLMI4k8x1ektn7/nmhZ/EvhuPq38+UXqXGrzGTNJRBpaLpnHT/3gZO8feX5DXgxOEa5O6pwaEvqsUiB0KJSDLSbckwFYtO3Ax0hDBr+9kkHsnqZNLayTYgVZp1d/ZahKWqkD4ukozPSCSmh4tScrGJYYikmYbrGHICdvaa8HO6Dx5IvuujoCYzu3++/sdR/PfPe6GKauloj17Jvwi/KZGWBRhLsRAHHzI8vGYpEof6N36DDaXPXzmIVS8dFP7lGRem46bH50mv8u014duVuSSdfyQVIgQjZ8Th3n+cIb3aNfgZ+fNZlREH6bZ1FY0ozqvDiUN1OLqzGsUb9eJzeSBxSQZWEXoNJqfUluJUcgWzjcLxFM3/2cjAtZFBm6JE6oQIJI+MQMqwCGEDxJHeHhWrCVhseWcIajIzNn18Av+8b7uQKDyI2WcaRiM9LEIBbagaGrUKoTFKJI3WIoGkQXxqGOKSw8RUpvDzggr7ij/48x788H6eIMGy32Tj0lunSK+6sXV1Ad56ZIe4f+pu/G3nBR36xZmwRtJtdbUWsUeuvpD029pGVFYYhDus5KAe5iqHKD3s0W15EHcLiaxCXyUpzfEVLjvdDskGXrnUctZSTlapUYoceSqFAgq5HHFZGlE5K5bUghhSe2ISNKT2qH22adgfCHoy5+XUYMtnJxAZSXpWnAbhCSpESEZSWBR3hGrAVgHZNffy7RuQt7sOdpMLNzw/Hactb+033b+lDCsf3E5GmB0KowLP7Ttf3C8Hp1eUGFCeT0bYYQMa8s1otNlgMJJuW0s6Lm+CJcIxcVlF4em4K48Ck1XsOWRjknVWMii5oCTvv4tKU4vEOkxKLrMRSQM9PJp08lglwuKoPaktOZ2ZhpNWEql5E+pALUT1B0FPZtYLea+d0LHk7p3KwYKaYiN+f9oaqOJkYnn2yfXnYEh262I/hUdq8ca920S+N3axjZwZi7I9RpH5p0lFklLuEuoUE1CQlUnLz9jBcwqjimYAQVbSWdmX7bLS+4m08eM1yJwYhWRSrZKH0NSfSAYl6au8T5KlOBc/Yn2V056Jn8LwO/kI2xWCnszBjE9fy8Gq5w5BRcapqdiOt0qvFIsU3qgpN+D1O7ah4EidkHaCtMLwcU//zbq/9DsTmv9OJqOBy/ZAE/2hhckYgvAM0ldHRyB1VBQZWGGks0YLfZVX9XprPJ6KGCRzH8FqwgNnr4WdjDQm6LCp0Xjw7bOkV1vQaLThtVu24MDOCmpR4iurAiSJuSpseIyqObm6WulO5atNVCE6MxTx6VpSq9xuumhWr0QukYELqjoZMEjmPuLNh7Zi8wcFZETJYal24Pq/zcCiS9rHGXAk2eevHkBJgQ7RMRphmIaFq6GNVyIikQ1ZIrRHXyXjaiCjAE92DJK5D9j5bSFW3rMTTi4WRqoBx+r+8dOzkZjRsSuQU9qyNGa/qtD9eZvMqaWuBgW6IvMpp4Qx8dig7CuYkLl7q/DxE/tF3C7DaXFh7gVDEBWvEecdgTPHc94NDngXwVCDRA44Tjkyc8qogkN1KD7W0Ot0WVwTesuaE3jrwZ2oqjAKlxl7FlifnX52ZqttQoMIPpx6agbxt+hYPT599SBikjSYu3wIMrNi23kgmkF/zzkx9m0sxY8fl+LYkWqxEudJ0OIyNmH5b8fi7BvHCKk7iIHFT05nZom8f0spVly3FfJwd3nj0UvjMXJyHGIStOJvOMCposCAw5uqULxDD2eoO2RShKFKKoKxwI5l92Xh0tumDErlIMFP1gDkxOF/v2IzHBqHFDTjPhjs6xULDWpeZGhRcEXQTlMIFHY5Ln1sPJZcli29MohgwE/am1FRqMOnLx1E7o81qCtuBO+QFqtwHq2DuUt6Me8Y4ZwWSUPCMTQrDouvG4kho2NOuRW0kx0/edccxxyfOEhG4b4G1NaYYGgwiwAiXkJn9YGr8vM+uoRh4cgYGy3SHwz6goMTP3kye8C6NBOYwy5FhBlJZXYHc7JsNhAHl4uDH4NkHsQpg67IPCiKBnHKYJDMgzhlMEjmQZwyGCTzIE4ZDJJ5EKcMBsk8iFMGg2QexCkD4WeWWfTSaXvwYi7nqhAB59KGSV+B4445Zap7d2cLODa4qxU4XvzgVT3fFRpvgjrUvWO5K5joXtuGlfKd83anvsQv8w4VDjtt+/xdQfSH3N0fnFDS10lwRG46m1Ok/OJqUp4EM8wBTmbDi0vcN5zQxpcr/Zx/RHy3tKjl4kPEydDX83dLmx6coS2lJ9pCkHnFLWuk0/ZQ0IfwVh/eUBkTrUXCkHAMmRgjdlz0d8k3Z3MJPn3pABQar8+hh5q7bLjI+NkZONniqhf3o+xEA7Vy/1vUZXNh6c9HY8bZmaLhOoLN6sDrv98q0gR4QxUixy+fmoWYxF4mNyRUlxmw4neboYroeTtyf3CS8KgYDWLjwpA0kvpjfAziksL7TGwbkai8QIfivQ0oyW9AdYUBNRUm6KussJgcIj4lNFyByHiVyFmSmBKFtFGRGDY5DqnD+pdInIVZ4dF6lB3SobxYLzYH62osMNTaRIF9JjMnrAyLUSI6IRQ3rzhPemd7CDLfPeMd6bRjCFlEo8RJQkSplYksN8MmxuGcX41GUmbnI6Ur8LLyk5d8jaLj7lSxHvAy8+ipifjVC3NEh3UErhHy6m+2Iu9grU8kk13vws/unYyzbhotJFBHOLC9DC/fuAWOkJZyYQzOrnTxveNx9nVjpSs9R0lePe6Z+XkfUt5K6QhsTdDEKZE2JBJj5yXjzOtHi3IMvUElEejLN44gd3c1Ko4beZOYyNwkArLail4SNCIFgoN4oCEeDI/EyInxOPOGLCSm944HLBx2rCvA9v+WoKJSh7oSs1B63bnxOv5uDj94dse10oX2EDoDB6J3dfAWeE5qyOmzQqjdywv12LKmAI+e8TW2fpkvPqi3OJZTicoig7seiPd3qWQozK1H3o+d1zPhB+W/4/vyfm9fj+5qjbBqse2DIjhl7qB976NJ2YSD31ZC39B5pamuIFJktfnM7g4OW+V249IZrAoUHqvHl28dwYNL16KiqOflynK2lODR07/GltUFqCo1iSyhnO/PkyXUnRLB66Br/N3KMDqhf2X5emz4OB/PX78RuTnt6yR2hloSRitu2ox3H96DI/sroau1Sql1u/5ub6HXEejP6H9Ejg4PoaGFiBhgd5wv/7X7g/kLXBFOvH7DDnz7/lGh5/QUrAtt+V8h7JxHqi3oKxvr7TiwsVxEtnUIvi1OP9Xkvsd2B907/WgFPu3wb+kQQUZ0dIbS4w0oyq/jhpKutIAbvpjUnbw9vism1K4fvA7uA05qyNJZgB+V7oEeBGaHDY8sXofcvdVCB+0MbKtsW3sCL1yxWfQhv9czoEU4LPUP9bDYlKugF/ngdmIILni+mt+ngNhi9vJtG1GcS2pfN6ijv/3HnVtJxSyHS0azAA1O/hyGmG043px+8neTRSC+W97k/v7usqUKNWPDv3dCE9F+euJRbyJiVec1op50qGLSp6wmpyhK4wE/eFSYBtc/OxNjZif3yCgoJsn7Oj1QZbHB3RHcQXQ0PxT9riWD7P73TkfS0PbTl9lkE7VGGkh37uj7qouN2LG6WOh7DB48GWOiMO3s9A4TlfPrWZOTMGxsbLvpjaXyd+8dwwd/3ivqQQtInSn1L+xGFxZdMQI/u3+KqNraU7Cacd/ctQhLd6sZ4rnDlDjvN2PEuTfcBpILxhobqo83oq7GiGLSMznLfSs1jYiePjQav/77HJH1qB3oO47tqiZCbUODgeO7W97L6lbcUC2GjIxB+sQoUUc8PEYt7svYYCU1xIDC7TSwC+pFvjxvHnBi8YSMMNz379MRFefezdMWbLS/+tvN2PddOVQxLf3AA5NrD/L3JcZFInVKJP0eLqq+cn+xoGzU20SdxbmXtc7z5w1B5iZDPaLjO74BBnc2J0TJ31eHTZ/kYe+XrW+G61xPX5aBXzw2U+xQ7gpMju/fzcX7TA4eP9RQnE8ufWwkcrfXgu5G/J1N5yRddByW/2qiOO8NDu2qwMoHtpMhYRVk54aecW46rn14Vrf31xacTPzl22ka3VUrpkCeTBJTw8VrVWVGIdFYooSqFHj4ozMRn+5+rSdoS2bWR2OTtXjmq+XivDOwvcGGUu62Wnz130MoP2yEgmwZD1iXPu/mMTj31+OE18EbZpMd7zy6Ezs+LxLTuge2eidmnpeJRdeNxLAxsZ0mT7SaHTi6owpr3ziE/IOcwUl6gWBrcGL+lUNxwxNzpCut8cmKHHz67EGovYlM3ApVKrHompGYujSd7LHILgVCt1FzzVNWJ+CplK31aUuJsI/PwvxLhotR7AGnWt35UTHqSruvYm822rB3c4kwNBg8UJJTInHxbZMQYmhpGd718enTh0XH9Rr80W0eSRojvQYXEDr8XbUgMoOnulkXZWD6+en0u7gkOpQl145vC9wX/AxWi5IzozD/suG47W+nYdiUGBqwXg9IXNmythAmnU260IKqE0Zs/5CI7JXYnfuS+/TqP07DmGlJXWYB5c0MExak4pYX5okNw9x/Hqii5dizthzFZNS3RWWJHt++dFwkefSGqz4EVz8xFctvHoehNIh6M7O1RcsT9RCcpfOcW0djyORoIZEEqJ+b6Pl3/VAoXegc1UUm5HxZ0Yocw2fFicKJM65Oh8MiNQ5LVJkL3310xH0+AOABsPadg6LmnwdKpxwzzxmCOecNhdLV0vAsGVf97aDwlQYKPOskD4nChb+dKEpLeAYsC5+yPQaU5LY3BjeuPU7TCP0iPRILsgxSKc66OVu4X3sC/l7mwR2vL4CtgkjgNY7Y2/Pj1yXSWQt2f10Mh4bapqUpRdL0q56fhJlnUVv6YGdPr8nMYN/i5EWpZJBIFwhc5GXrqu7J/PnbRA62hiUomhSYs3yI+H3Z9aQrckkBqXHYsv76teOixMFAoLJIhx3/LREWPMNhcWHMmYlISo8Ux+TzU4WKxWD/tM3gwg+fHBPngcSoyQnImphAo1+6QFBGynBgR6l05obwyvyvtVRmG2HCvBSkj4iWrvQcYnb49ZDmNmCwnVWwo16oIx6wH/v4hjrxmgesIw+bGoPFF/luw3CfyMyYfEYa5I6W0cRGCG/Z70oy8VSz6+NS4QRn8ANlz4tDqlTBkwky+2eZrQhibLDhxx+KxXmgsfr1g2Lq9MBa48Ry0kM9uOCW8UJP9IBVo69XBH7w8dTM1ak4NZgHPPOxbuuN+ioT6k+Q0ezV6wrSSSaeniKd9R4Llo+EnQaxB/zZepMZDTUtKqeOfjfQNe/vtZNNdO6NvffNd4U+kzmdLF6Zrc3b6bShuvPi35++dkBU8vRMNY2ldlGj2XvVbdm140Q1fQ8cTif2rCoXlnAgwQMv5/OKZiOJB964ZQn03C0SjCtDzbuuRTJxZxkMVuzb1FoiBgJDxsZC7mzpD3Z5Fee0DlPgssBcTsIbIY0hyBzZOt90b8AejKhMt8dDgAUQ2UVcRMgDLhpkbGxZtue/lZNaltkmz3V/0frJegHOpxaa3FpZ55WjhrrWy70esFTY+0E5TXHuBxIpYhdGC13ZGzGpGsy4KF3kd2NwnuPiojrk7Q9cUXhu7G1rCmAPaZkquZDleTfSwJM6xINzrhqHJhZCUmfy4Nv5fkmraTYQiIwlfdfR+t6MhfYWkhFqK0yijzzgPggfokRoLz083lCEypE4PMy9DkHgT7c1OmHWtzw/e1D4WnPT0Z+mjo+AKqxrPZnVoiO7qnDM6+gKfSYzIzJNJRrEG55kg97gBt38yQm4wrwkLpHjglsmSGctYNfZpHnpzS4lboDaYjOObKoCZxwKBNgNeeT7ajglLw8/Y/qkSGSOjhHn3kgYEobJ56XQ4JM6k4yv4qJ6UdoikFCrFaK4Tlt4q33sq5W14U9kcueurp6AhVqE5Iv2gAeytbGFzHYLBy+19D0bnWERSmGodoWio3UiP/bj533TfHSFfpG5LZEZHW3XZ3Ic3FBJI839QDyKU8ZEIHtqojj3Bku+rNnxpEdHigUAhkIbgu1fFcJE+nMgkLe7FsUFDc2NzbVDZizJRBhHx7UBS7VJC9OajSpWNeqrzDi8tVJEnwUTHF6EYnDrqrRdS8fuwC3kXpls4QK761pxg35ttSJJv7IXi//rCl++fQQxSaHQpimaj67QLzI35FvbrZdzWGJb5O8jcuQ3NOvGdmMTpi0gckR1HBSTkBaBMYuSSMXwECQE1flG5Gzxvy7KUuXAtnKYjbxe7u6j2EwtsuYkCv9uW3CnjKHXMrJaXJVsfG37okCUGw4UrGRTcNxMW3iveHLCc5fX+OLe4JLD/QG3D6sD3uoXD2hvY0/UBvR2vdGfcjvz+zpDPdleBz6rbOV56Q7iL9vqgT2BiD31smIZvPLEVUe9wfEVBzZWwFzfQo6YjFBkzUsQqgQbdmtW7sfKJ7bi7ae3i+Nff94h6jx735YiXIaP/poj4mz9CV21GTvWFjW748TycArp9pKKUVmkxz8e2dJ8r3x88e/DZPSQrSDdLw++ygMmHNpW4b4QAOh54ChbkyNqlKpVGyakRog+aga9Vl9M9905p7oFF9VkA8/z7AyuFagOa5GiKo2cyCxr/hpun4ZKK7hgZmfI2VImZkb264ujiaM0vL6kA4gea/IsZfUC1WVGUtTa3AydRrYJ22yobBROdLln6ZRGY9oQIsc4NzkqThiw6i+HsOm9Qmz414nm48B3Va2mJn6w2lwLfvyhSLriH2z94gQaa0nKSe3GOuG4cxJFDDFjzT8OYuPKglb3ykdtSWMr4qjj5Vj19wMBUzVKcuvFIpMHHLDDhX68wX5hVpk84DbluoONpr6rbw6zExXHeFnf/fD86VzDRRPZMk2ER6mhDadz6atZatccbhQxy51hwuwU3PfZYjyw6gz38fHpiInqOlRAYljvyXxkdwWcCq/GIwmWOi2iXSAPx6zqKi3N044gB6kQnkLum9YcFzoWu8B4SvEcHRWF1yTJseavh0UsrD/As8S6FbmihokHSigw4yz3oo6u1owt7xYRURWt7pUP74AdBqtfFUcDoxqxQXVsQ22rnTdM5pFT46UzN0QOvTauOWeIs8Pl556iosgAU7WtZSDTLYTRwI8ko9ADNhDDNXTupVZwHfIje8uls/aITQpH6rBosQbhORK6iZkWTxai6N16OHf6gbXsXWghM/thp5zZ3vn+2XNHxGKCByFGGWadmyl+5/d//XyeCCPklLMdHd5gwvCMcJirOvkBm7/IQ2MjdYzU33azC3OvzmjeJLDh01zYSNLywO3oXp3eRg8hlEj/0VP7pTP/oarUQISsowZq+X67zoUxU5KlMzd4yXj82Ymirzzg5efdX7Zffu4pNq4+TipgS/+ycR+u4uKkLYFrkdGhiGD102u88/L/56/0LlRh2Iwk6beO4SazqufuGZYC+zeXIy+3ppXx5xRGnVuCebDhM+p8dg1Jf8ZxFzOuSkNMgnuLUe7+Kky7MhXTL0zHtOVp7Y5ZF6WL6ak5BoTAU+nWj4p6FT/dE7A6sPa5o62W2u21Lpx1dUs4ZlVRI+Zem9nhvfIx9rTWRGFp1VBpxv6t/pPOPKv9+GUp8veTjeGZHegWwjNUGDKm/aLE3GXD4PC2degmj26rQvGx3ktnfs/6FYU0M7XwgO8hdXJkq+hE1pEnn5siCn56wNypL7Fg9Zv7e1yDZsKZbiHYGUQIKP+iVTqglHWv3x3ZVYH/PL4Hpfn65mAh7sDMsVG4/dVFNL241QeOOf7jpeuEo97jxbDUOvDUD+c2L1/3BFvX5uP127dDxaOfPoaJHZeixY3PzMaICa2nUQ8OkeQWIaC1LSGg05el47pHOg8B3f5VAd66bxdckt7JcRhTzknFbc8uEOc9xf3nrEZNWWPzQGdJNe2MDFz/5Mx2ZST6GgLqDfaavP/MXhEh5+EKr6DOu3gofv7QdLE52Bu6GjOeuuYb1JW3xDLzAhUHT/3s/skigKgnKM3X4bXfb0Z5nqGVv1hhk+OeDxe3q2Jr0FnwxAVfo17XelkbxhBc98x0TD8no8syG3aXHI32rjWI5o+1eMVZdARea1/zzwOieE3JMV0zkRn8MLPPG9pq/9mBrWVoKGddWWowItSkc5J7RWTGuNmpyJxAhos0hXND1BSZcHhLpc+kM6tNu1eXkmUuDWb6Krb6z7xqtPu8F7j87skiNrgZNJoKD9V1GMHWH1QU6/Duk7vxnz/tgbGeBq3Uk2wzs446dUl6h+GUHPB+2iXDW8127LnZ9W0R3vjdNhwmW6grcJvvXV+Ctx/eLoL1vYlsN7ow8ewUZIxsv7jENtLFD0yAubK1vdOkbcIHT+7Dx8/nkOAzSlfbozt+MuR33/fIo/wLb5SpLDUi98dSseuZj8KjtWKKXP3KIXzy54M4vKMKjUZ7KyILQyM7ARfeOZ6knpvMPGWvJkOtrEjXPPqt1U786q9zhVTtDdigtJH+t399BeTSdMYdxq6w6TTtdFRrhPXqvd+WwkqWNktmlo6poyIxeVF6h6GG+Qdr8f37x4nUvBPZPXVnz4nHkiuyhJupNwgjsvD+Rl2VeyDz5xkqrUjOiMTwyXHNg5vB8QvfvJnbbFPwa7zoFD9UQ5LP3QfeR8GhGuzZUIL/Pb0Xa184ihPUP7w135tQrAZOPysDZ1yb3eECFvvFE9LDcHxLLepJQIn+4X90ozyL7lpdgp1rimBX2N3pBqgvjXqr2LW9+4civP3QTmx8rwD1vMvH63u5zTRRStz95uJO2yxlaCQMpkbkbatrjnnh9rE7nSjYX4cfXs/H0cMVsDrsYtDwii9/t94UAiUbkN2gWc3w4MsV+/D5Cz+K38XSJz0878TlwJW2YCJHqjT4zbvzMDS7JcbieE4N3nxgK2rL3Nua+O8yx0fhdytIDelhzKw3Co/U4R/3bkUlSWSPBDJXOHD3fxZh4oJU9wUv9EbN4E748rXD+N9zOWLDLsNBEuayuybjzBuyWxGlJ+DP+/qfR/HBs/vIMHK/l2eVDFbD+PklNYzRVs1gsMS01HfsreH+kPFGXnVI+/uiXmQDNJUs/nv/u6TD1UpvnKCB8eI1m2GwW9r1Ld8vB0+JIvSSDcBbxhRhdDAX2nw3CwulTIH73jsdGaO7DiU16W34x31bcOCHylZBZx6wIS2+28Q5O4Dz7p6Kc347WXq1a7QbumffOglXPTMPYYlKUftZTVKj7cOyjsxfNHJ0QjsiszJ/dHsVqvKJeNLb+G+nLEgXLpu+IG1kNEaOT6RWli4Q1HFyfPpyTperSD0Bb4va/l2BWDJnMJkSh4djFEnm3hKZwe8ZszAJqVkR4rnFNdKf87fXo+BA98FSPFg1cYoOD+4PTvXQ9r44LoRXXicvTOsRkRnDxsbjt+/Nx4hssjvomVngeMD3y7k8NIkKMdD40CYphN3i/d1MYh746VnRuOmFuUjL6l6FZFX0qj9Mx/yLhot7ZuJ6LScIlyxzLjxdhWv+Pr/HRGa0IzNj9oVZuOvf52Py0qHinG+aCczB56wuDJ0QjUvvmoibX53TisgMHnm7vilqMYCooeLStMiezfG2HX5dt+AsSvOvHAa5V8gpD7Bjm+uQu69SutIa3g3UFY79WIWivTqv+yUpSp3jHerZW/DmhazpNPi87oG9JB+/mCOd9Q8eyWltcMJW68KERUm46qGp+NWfZ/eIyB5w393yyhxcfMdEMfgsVU7YyXj02CcdQRCYvpsXW2JStbjgtnG44enZmDA/RagwPQGHzl7+wCT88slZmHluBpRyGSy1TuHt4vZn3jH/mIe9QTs1oy1qSw3I21OOxgYTomJUGEYNEJumgTZC5S6r2wZs+L1022aopfA+ji0aNyuZbpys+V7qn95gCfzKvRtxeFN184IKD5SU4RG4/52l4twDNmLe+eNOmOrcK3k8dU1emoKr7p3RTs144rqvxOKGxw5g3fG6x6ZhyqKu3UDdofBoHV749QY4vSytRp0D9/xrEUZNdAdYsZrxyPKvEB7f8xlLHaEQwoET8QwfF4eR4xIRkRgqnqunZGoLnk3ZG1Kep8fBnaU4uqsaxQf1HRrYvKqYTQN1wqw0kdUonNSm/qRss5jsMNTbyL4ywkLqYOLQeMRKG4Z7i27JPIhBnCzo+5AaxCCCDINkHsQpg0EyD+KUwSCZB3HKYJDMgzhlMEjmQZwyGCTzIE4ZDJJ5EKcMBsk8iFMGHa4AalRAeOtdLh2C38ibks2BSWcxiEF0iQ4lc0+IzOC/4b9ti+Mf/AIvr/eqcVH3DV7+bUfXnsCWutZ/3+69Ejq73nccwiq6p1W8DU3cy79x3P3CIE5KAP8PTVl/9WBIBG0AAAAASUVORK5CYII=;" parent="1" vertex="1">
          <mxGeometry x="-80" y="-130" width="86.87" height="99" as="geometry" />
        </mxCell>
        <mxCell id="PgJAh9kEpaXaDXCcuAF9-99" value="&lt;font style=&quot;font-size: 24px;&quot;&gt;&lt;b style=&quot;background-color: rgb(255, 51, 255);&quot;&gt;Performance monitoring&lt;/b&gt;&lt;/font&gt;" style="text;html=1;align=center;verticalAlign=middle;resizable=0;points=[];autosize=1;strokeColor=none;fillColor=none;" parent="1" vertex="1">
          <mxGeometry x="-170" y="644.5" width="300" height="40" as="geometry" />
        </mxCell>
        <mxCell id="PgJAh9kEpaXaDXCcuAF9-100" value="" style="shape=image;verticalLabelPosition=bottom;labelBackgroundColor=default;verticalAlign=top;aspect=fixed;imageAspect=0;image=data:image/png,iVBORw0KGgoAAAANSUhEUgAAARgAAAFfCAYAAACV09NYAAAAAXNSR0IArs4c6QAAAARnQU1BAACxjwv8YQUAAAAJcEhZcwAADsMAAA7DAcdvqGQAAABhaVRYdFNuaXBNZXRhZGF0YQAAAAAAeyJjbGlwUG9pbnRzIjpbeyJ4IjowLCJ5IjowfSx7IngiOjI4MCwieSI6MH0seyJ4IjoyODAsInkiOjM1MX0seyJ4IjowLCJ5IjozNTF9XX3hR0erAAB3rklEQVR4Xu29CXhc1ZUu+ledmjRbtiWP8mw8G2xjBjManAChgwnd6dzw0mlyczO87iTcm0cnX38Zbl4Svv6ScPMuSW6aNOmb3IQmTdIQoJtgEoMZzWBsg8E2nmXLo+RJY42nzlv/OkdGljWUpCqpqrR/fKiqU4PO2cO//7X22mv7HAEMDAwMcoA+CSaZTKG1rR0d0Zg8T8K20zB8ZGBgkCl6JBgSy6nTZ9HeEcWYqgqUlIRh+f36niGYIkNaBg075b3wIOekor0XGcLnA7w2wkefFXCfG4xqXEAwzS1taDp5GuPHjUFZaYmoFtt7x6AgINXpkCCSCSUOR1Qn7KQ8evWYkucpnpcjEQcSfM3PJuVzPC+fk/P8jBJNWl7zsTssS4iEB8lEHvUI6HNfMAxfuNQ9HwjKaznk0f2OfD4Yct/jc/5GQL7H9w2KDucRzOkzzWoSTawdZ5RKvoNEQjLoJAUSgXfOSQpBtLchHYsqiTgdrXoOaflsNIp0Qs6TgDraAX5GzF8lGXkEySfW4ZKP/rac64FgfBYJQ1QKCUQPPpeDBBMpgb+0AiCRhOSQ176QkE4o4pJPWQX8JCA9JwffLykTESQKyJKjk3j4WyQiqiPwMCg0nCMYKpezzS2YNGG8tKceRiyDvAIJIN0hJNJ8BnbzWaRbzipppEkO7c1wmpuRbpdzba3ymSYhkzNCLvI63iYkIuThiGkEqWeHHVeIwS+E4ZNHdnLWP5uFNo0uHZvvEfJd+Z+89t7rfHRIcgk+UZIQhpJv8zdIHD4hEyGRkvHwV9bCVzkO/rJK+Mqr5JBHee4vLdfDVyaPPOS8VTlGFZCqJYOCgxIMfS4HG46ibsoEo1zyDGrOxGNIt7UoiditQhSxmBCGkEubEIsQjNNySh5PSd9uV6XipETFxGn+UJXIEY+KySTfScmjTSUjRECQF0gaPqoEkgw7sUcihPJGJ8HIoxKJtI/ONnJeW+F5IR5RSUo0ChIVD3nKr4rq8QWEQFS9lJxTOAjSRJJDzvtLSTpCKnL4K+SoHAtfaZk8r9Ln/goSkbyOlHrXY5DPUII5fuIkIpEQImGpbIMRhTpchRjSNFGEGFSltDYj1XgMqROHYcvhtArZtLeIImlzjw4+bxYSaZUfkN5sST36qUaEMOTRp89JJF3IYyTAa1NSotLxnMtpmmD0ASVcsysoKiciZFJSIcQiZFMihCRKxl9dA2vKDATGT4A1thbWmGohpwhAs4tmGE0t41jOO/gSiaRz6PAxTJs60Th0RxrS+WxRKakjh5DYtxP2wfeQbjoqJCOmDX0lsXYxgdqlf3YqA3ZY/aIcMpqfUw4c2eU4N8J3fZ4HUJLRJ95zHnI/et0kwm7X6xfzimqHpCPKheqHj9akmbDqZiM4bY4c8nzMOO8LBvkC36nTZyliUFYqo4FB7iFlrbM8YqaQNNLtraJMjsA+dkDUyV44bUIiNIXOnJTHZnXE0sxxzQ/GIXVOKUun007IzpgH6iSbUOIk4biPUmLuvXb6iHT2yueaTXqMgUWfTvUk+CfVITBpOqyaifCXCyHpjJV8j85ig2GHr+HIcWdstUjQfBrhig1qDkiH4ayMOmJFjbSSRBqROn4EqX3bkdy1Ccndr6n1oB0oFIRfTAVYJH63Q0l18ddGNzqVmxSUk4qJGdnhknDcgb+yBoH5FyM0fxkCM+chMGGy57cZo47jzqlyY0oNH3z76xucyRNrpM5YaQa5gDppO9pgc8bn5Amkjh5EcvsbsA+JGXTqsDsqczaHVcBDuUT+Rx9Kp8lg0AVUNnygyulUdvJUykmntR36cwJCLlUIzF6BwNxLEJy9UEwoIZuqap2ZKirFl8fw7dl30DGzR9mHkkq7kMrZU0IiJ8T8ETPo6F4hmCNIi/ljnzwuJtAZINYmaiUso2tYRlc5DAYPEg5jfUTVqD9KzCOruhb+sXQMV8NfOxNW7QxYYkZZY8bLe2JWCeGoojEknhP4du+tV4IxGDp0SpmBbQkhlzOnkGo8guQhIZUj9XqkDu+E09Yk/SAp5o+MojR/OMNjkAPIgJl2pE7agaSYUHa7kMwc+CfOEoKZjsDUWQh4DmJ/GZ3HJfCHS6Q+jLLJJgzBZBF0zCYb9iPJGaDD+2AfPwS7qV6jatUHo/EnnlJUh6XaQu5rg9xAg/88U4rmJgnE78BfMV6UzWQEJouqmX4RgjMXIDx3gU53G5LJHgzBDBHpjnaXWPa8IwplP9KNDaJcjrqBb4xVERPIEdnuU0Kx5JDGa+T4yIAzd5yFY32IOaoBf1y2ICZUoHYyrMnT5ZippBOcMl1noAzZDA2GYAYKOhQ5G8RQ/bYW9a0kD+5G7JV1QjD7gLjIcSoV4RA3wM0jlUKH+ujUkyr/ioAgdTZKCIdrrXhPFqOJIwjOXYLggmWILF4J/7iJOgPlLykVomE9moFhoDAEMxBIJ6Pz1j4tiuXwASGVp5Da8xbskw3yJtfycNaHjbDTYV5MnVFIlSQj9+PzF0nE9znS7AKnQ+7RFrIpQ/jyWxBa+QFEFi57f5rbYEAwBNMfSCqppGsKnW5C6sB7SB7YoVG2KTpvzzbpTBCjTDVEv1imP9n56L9gKD/XEJVWqX9CHdltZz3iLLIRXeu6VddtMR7JmjwNgWkXITBjMQIzFyIwZRassTWiaMp0eYJB/zAE0xu0sXHKkwsNm5E6Wo8EA+Leeg3JfduQbqzXFcFcIVx0K32VXFzHqC8YgL9qHKyJc5RAuTI7Vb9dWk7xmwxOrFGIJimDxwQEF10ux0qEZi+CNWEyLCkTf4SzgMZ06guGYHoB/Sz2qSZ3VkhUS2rHq0jufFnOi0zWoDjphPSxqBOwuBqYwxXXNIWCpQgtXYXg/EsQnDlfymE3kjs2Ib55vWsmFRuxdgdXhmtotdSvLw1/5RhY0y5BYM5ihOYuRnjuImM69QNDMN2gPpbWZiQP7lFzKHVwF+zGI3IcRPr0YUBsc1/nauViA4PUhFx8gRJYU2cJuVyFoHSkwOQZMmKPRccLTyH+5vNIvvf66CAYwlNzjh2VerfgKxcTadwEXe8UmLUIwRnzxHSagcC4mtFRHgOEIZhOpNPuwsOmo0gd2ov4W6JY9u9E+sRBMZVi0qFEqei6oCIFTaI0U2vGEJi6AKEVN6DsQx+DVVktrcSvSx3aHv3fol6eR7rpkEuwoy3cXonGXXjqC5UK0UxBaOGlCC1arorGL2XlK2Gq0CIcfAYJQzAeuLK54/XnkdiyAcntG+V1QoiFTk76IgS0s4u4QzEZFafVfWXVKLvjvyCy4lpYNZNEzViaMS8h5lH06YeR2PmmLjAcDT6YHqG+KQ9sEuGwxtEEZy5BeOX1CC1Y5q51MvEzitFLMOrETeoCxNShPUjueguJXZthH9mns0XsQO/HsRRxR1LlkpIRuURD50PLrkXkstXyfNY530Lq2GFEt76G+Ibfisn4npQHy4VlMgoJphNqOnHqXtRMIAR/xVgpMzGV5iwSRXOVmJXTxKwURcMyHI1E7GEU0qwQi51Sc8huOi4j8hbEXngS7b//uaiXZ3Uxoo9Z1QLeOqGibhyef8Gx4a+diuDSVSi7+S/FRJp5jlyUiJlZ79QJKbMzcJJRKRM2m1FMLgTbhT8o408YTADGWKj4G+sQXfcQYi89Je1qq7Yv5kjGKE7kNvoIhr6W1mYk9u5A+4Yn0fHkg4hvfk76mYziESaYrvQ+OAqgEcc+ue8KhC6+CuFLrtJE211nRZgcSxdvtjXrlicGPUDMIc64+UqqNWFY9E8PoePf/w86nv8PJA/u01X1oxWjimCYIS6xfxeirz+P2Mv/gcQbTyN1+ICOMrpNhk861qiaCRB5X1aBwKwl3mzRNOhWJF1VG5dFxLn1ibdgc7Q5djOClBfLRduPlF8qpaZ2YuvziD77GKJvvoBE/R4N1hxtamZ0tBYZqbluKNmwD7EtLyP+8jqRs+uR3LdFNyjzWVymP8psZfoQpPrpoAwtvRLButm67uYCcJ+lFHcmiKlFZQimD7D9cBFl+XhRfR1IHtiO2Ct/0HVqnJXUxbBUgqOIZIq/tdAk6uhAbNsmRMUkij37OyGWreDmYv7SWm0Qo4pYCDp2uao4XIrglNkovfJGWOMnCncY8sga/CEpz5DuQZXavRmx5x5F+1O/Qfy9t3XK/9zsZJGjeFuUdCJWZGLvdnQIscRfehLJna9rNjlwl0PKWlUto7BTcY1RKubmQpm10E2QHREV1xvRShlxunrUEfFQwHalhO13gzebjiD53puIrf9XtP/xITGZdouaaXU/W8Qoyt6lixOl8pJi98bE/o2u/zfEt2yAffyAvEsZyyhUIZfRCqYpSCcRnLUAwdmLdRFjr3EbdGAylQH3HzIKZ4DgIEZiDohZlIR98jBirz+N6B9+Le3yOc12SNNdTSY1WYsPRdliuNthfOdWtD/2M0T/9BvYR3dJBcobAeb14C2P4pGY5hHvPxBG8KIlCM2e757vBbqpGaNTS8ql7OR7mpXPYECg8hOSYegDZyrTLa3o+N2P0fGHh9R011mmIjWZiodgOJ0ai6q3PrrxGUSf+iWSe8TebT3jkosGzJkR2Em2w1daitDCVQhMqHOTKfUFmkfcW6iiEgjSX2XKcFBQkpGy40wTLDjRqJhMm8R0fxzR10XNNOzX9ltsSqY4WotITF1HdLwB8a0vIfbikzoNnW45LXUqnYLKhQQz6iGNN9EG7u8cWrlGt2PNBD4hFkaq+iKiYri9qzK2waBAohETnTNN9qkjYro/J+313xF/Z5NuwFdsgXmFTzA6S0Rn7g50PPsEon/8BVIHt8E/dpJ0jE6TyEAhvOAkbN33ObTgYiGNKu+NvsH1Ntb4GviZdIoRzmn+kCGZoUKDOh0Lyd2bhGSeQMfzTyF1+CDS0XbvE4WPgu59zItrn2lC7O3XEH/9WSS2vYT06VNw0hwl6LikapHnBlJYYuOnE/BX1cCaMB0BLmQMZ7Y6nA7eAGeauLaGW3tojhRDMEOGOoDlEMViH6tH4u0XEX32UcTf3aSJ5IvB31WYBMP1MYyWPN2E+O53EH9tvZhGLyLVsFve4yZmIuUNzgdzvSQ7lFz8U+bCr4mSAt6bfcNVMBPgrxwvZlKZ2/CNgskOSDBiwjvxdqQOvYcozaU31iOx+23YLWelzgp7eUZhEgzNotZmxN56FR2//99IvPMK0mebjEnUB5x0TBTfaVhTZyBQN1ennjN12NLJ6y8X82jMOPhKK+S3mOnNEExW0SUwL/7609Kuf6rKXFf2FzAKrjfS005nbscff434i4+JatkDJ9rmjqjaYYxJ1CO4jiiRgjVuggbWDShoTj5LtaOZ2yZN86T7CBGMRiEX4ZQu264Ojn6kYzFp1/sRe+4RxKhm6qWN61KNwiP1wiEYmkWJuG7HGn/nNUSf+Rcktr0g59qlcmQ05iIzgz5Af1QYfu7JXFXtnhogglNnwaqbMTByyhqkc5FYpBP6gkHXf8QOWVSmmpSr35LmXCaEkkBi858Qe3Ud4tteR4p7mXOGqcDut2AIhj6X1PEjiL7yNNof/Uek22LwlYyVypCGZmIz+oZ0TCaU8o+dqhnrNHJ3EKDyCdRMEfPKi4IeTiXBOKdUDP7KcbAmzYE1eQ64nzQjkosOJHCaTOExSB3co8tcoq8+h9SRQ3K/heVgL4ieqSuhD+2RQn4GibdfRfp0o5yVS6fNasilf5AIGMtSO003eteUDIOAX1QDE15bMxe7CoK7DwwHdG8mC/7qSQjOu0SXN7iKVUw39xPFB6oz5oDmTOmxg0hsEjXz5gYkdm8X1Z7wPpT/yO/e2WkWHWtAnFPRG/+IVP0uKXgSS+ZOytEO7sdM1WKNmwx/abkoEJpLg4A0emtMDUJLrhb1KDI+EfXeyCHYBpgvOBJCaP4KBBddBmvKdDjtp91Fq0XbBlxzibNMnGFK7tmCuBBMbPOLuve5Rv0WAPK6djrNotjmFxD9029hNzbIaJbyyKVox67sQ8wLOmm5rw/jWAZNMAJrbC0il10n4rECTkuOGzmVlyPqJdmKwPhqlH34EwhOmyOd6yzsg5vgdJxxO2Exg0qG5lIgAvvwHiRee8rNlHdon/eB/EbeEgwXgCUb9qLjud8g8eYfkT51XCQ57W25ZEMuAwPTM9A5yu1tuZ5oCJ2SCx8Dk6fDmjwDvurx8tOiInLhi6EzU37b6TiF0KIrEb5mrSYi56CTPt0ko3pUPkJ/RLG3Bbk/qjRdkW3DPnVCzKV1iG56FvFd21Th5zPyj2AoiZNJUS4HEd/yAuIv/JvIw818wy3kYh+xsg4pNyUYaagRUS8MruOoOEhwBseqrEJg1nxNDg7O4mlcTJbBhFg+UV6lEYSvuAWRq26HP1KKdPMp2KdPipQKyvujqC1wUNUE4zZS+7bKoPssYm++CPvkcSVbJeQ8RN4RjEOWPnsSsY3r0P7bHyHdFhdZz82/jFmUTwhcdDGCs+fBiZ5yVUyW4SRa4BOTLvKBTyM4/zLda4gzKOkzTaJghGC4w+ZozOkj/cBXMg72sQZ1/HZsXC9K/4A7u5SHJJNXBKNBdCcOI8ptH7a9DkczfskoxSXuhlzyCoEJU2BNnQN/FTdnC0nlZclM4u/YMV1tHJy2COFLrkagdrKIFRlg0mlde5ZuPimv6egfhWqW5hJnT7n1TtMxUTIbdO2STmGL+ZhvyA+C6TSLTjcisesdxF58CqmDu6WRjXULs9jJhdOwaW5JmsMYBylCzUiXpbLkXtWBSTNgTWFGvFL3+rMBZttLJWHVTkdg9iUIiSnGrVR0dGYagxaXYFxFm3cCfHjAOpT753YyqX1vI7ntVcR3bEW6hftW5VdcUF7UUKdZFH/nTcRe+A+kTx2TkzKSjQazSO7T6WiC094ojaNDOipJJvvQXSo5g6Q7DQ692nUBZM1khBZfAV9pWBp7Fvb+URXESN0IAlNnIzBrgaaU4Fooh4MQt1DpOC1K97TXLoq8bfQFHSwsKZc0knvfRvyVpxDf+Zb0o1PeB/IDI04wZFwmhiK5JN95TZTLDtczrp7zIm5AolrYcayJ0xG55iMIr/owrAmz5I2k+h+yak/TCevNJLmjn3d+CKDJwm1OLG53UjnedUAqQQzhuvl95v+tqkVg+jwE62aqU9ltB/K7/JeStsGDTXcU84vevPQR+qG4Q0bq8G7ENjyKxHub8yoF58gSjHSidDv3K9qPxJYXkdy1RcimSRtSca8tktGYSoUNpHQMItf/BUpu+iRCS6/WcHxfUO6dhDDUDtsJpmrQWZlO0s5Cz+S0d2m5mEl18I+dAn/JGO+aB3+9us9zWNTLpFkIThMFUzPJveaukHLjbpOjXsEQLAPtJ344rWcQf/OPSL71kka958viyJEjGEpesbWTh/Yj9uqzSOx4CfYZ7gs9GlIu+NRJyS1UkltfgU+kf3jBJSi/469R+ud3I7zyZikf6UQkhSyZTNy5UtcgiYmUrd0BuNVJcMo0WNPmwT9+ilwuG/XQrtdfWY3gksuEaKf0vGaKP59/vsyRBeuTwXjSd7iLRsfjP4d96rj2r5HGiPVkmkHJ/bs01iWxeT0cbt+gM0a8pFEwMvE+xUzSqFQmJpdROVAzGeHFKxG+9AY9/BXVLtEMGdIr5c8xt667RW52ylfzxFRUiWknKmb8RJ7xjkFABhz6iZgnOLxgOaxqMbt6IkL+PE/r6DzyI3R+QArFIxldt3dgB6IbRc0c3KOzTSOpZHqowdyDzGo3n0HsrVeQ2PoCUgfelX4kkjvAdIyjCJxlDXHqtRH22dPaSAK1kxCWETx87VpYU2fL+wyuikuhDYVopIHJb/e5/9Fg4P0mr1kVR5Cbt2nvd9/PFLw3+qRKyl3H8cw5QlwV3pudkE7Ef2I+6iZw/BuGX7qAJCMqVeok3XIWsZefQWLnVu1ndI6PFMmMCMGkpTMldr2lUbqpQ7t0lazGNYw2UEwE07o63D7zvvefuW/DCy9B6NI1CEybIw3miJDMENb9WKXyd8p05kcVTJYRmDgFATp7x9RI5w8M3KwTU9BJtMKaJObW9PlAZ66XLvCJ6tIN4CLVemiHMrgQDOsQvraP70di26uIbtnobu42Qk7f4SUYaXjplmbEd72N+Kt/EjvRc+hq0NSIcN3Igg66QATpjnakmZXPA6eSrYpKMZdWIDhvmYzsY6SYpHwG7I/hKC+mhyhDX0gIhgrGyn45029iiYrhQEEfz0D9ME5SCOZsK4JTZiE0e5FHgt0IhC9p2pWOUce4mn0jKP3zFiwjHnZSB+/ktpfVVLJbm70PDC+Gr1dLY2Aei+TRg0i+8wbiW1+WczIqScMfrdBQd1EXTiymU43nQToZZ1JCQjCB6Utl9A5LRxxgSD77H80P7igY9ggmB0TOzdssZsrjAsgwk0ANhGDkIu00nHhav8971nVTPYEqplwIRg73b4zMqJz/kPKzgqqMk7QU3tkE+8RhKWeW2fCS8vARDNWLsGh880tI7t0mnYV7v0hBZNMnUHDgaCMqhnE/PSQR4kgenDEPJbd8QpRvOZwWOsIHAjYmZrPjlqVCMFkKsusJ/qqxCC681PWdDGTxo7QLXyQMf90M+Mdy76VSOdkTwbhthWrJXzlWbs0QTK9QFSPtSuqai0PjLzzmxsd0DH98zLD17tSpRsR3bEby3ZeFTQ9q53Ebe0+NaZSADUHun8GGPU4pyvvsuOH5SxFcsALWhKkAiTlThUATggomJCZSaQX8ZUIyQ8gF0xcYzh+ev0Q6v5gvvC11Svc/WjrJNjEBIwhfer06intdLU/1wqx2VePUR4VUVP6Ema/uFUoy0r84sJ9pRGLLS4i+9LQM8lkO4uwHuScYaWhcxEg7ML75RXl8F+m2U/KXR8Eao4wglc1RpZeRxS8mh1UzCcGllyMwa56YmUIwjI/JCGKW0gcTKYWvrFJJINO9kAYKf2kZglNnwBo3Sf6ep2IyacjcyraMBLMa1nhOdfcCthUhHxKuv7JK5H7M/RsGvYMEo8sJgPjONxHd8Ji6KIZz58icEwz9LomD+zSXbuLtl2Tk8cMXNBujvQ8ZmaXT62rhnsCp4HAEwelzEZg03Ts5AAjBuwQjCoabpuVIwXTCmrkUgRkLdVZIF3FmAE1iVTdT03n2B+YU9pULgTH5mKokgz4hJOMLhIVhWmAfew+x15jeYb/3Zu6RU4Kh9LebTyPx7uvqd0kzoIz6eTQus+8J7PywxXwR00U6WY+gaSAjtzW+FtaUmbAmzQXYYDIavWXoooKhD6akXA6my8yNgulEcOZ8BKfN1b2qHM1A2AtIDox9qWQMzSxdne0L9R+qwHJiAKKvVD7P2cdhlPsFCyqZQERIP6nb0yZ3v6Ubuml8TI6RU4JJt7cidXg/km9vhH1kn3KLaxsa00hB85GdjNu49jV6S3lpxOykGQhMdzP6Z7ZdBzufu76HJkzWA+16QGDKdE3KrRvk8+jND8N7T0bhHz8N/kkXaba6TNQVlyf4K8bBP2aq/DH5jlExGcG1GsJgUCsJhi4LJxqVOspt+eW0taUOH0Ds9Q1yM28j3XFGpFpnpKcB4TCHSqpNR253U/leQIIRgrCqa2BNnCafD0rDyHT0EQVUIuQiHXM4oFPWcp3+8TNUOfXmkOa9O/FmWOPknmj6sQwyID8ud6Afxpp8kd5TUe6LlCuokgkjWb8H8Tde0Py+uc7pm5vervldxDTavRWJLc/B6ehgy3BvUGWMgUJGeCclCqO8Cn76FfqCmEn0Pfgn1kkHq5HOWya9tA/zQN+j/S3qpXyMux/SMIBT4f7qiQguulxUmRBAqlt8TyeoPFKiYKrGKMm4aRkyIJhIBNaYcV7MjXxHfsOYSZmCM3FhpE+fQHKv9M3d78I+c9J7LzfICcGk41Ek9+9EaucmlWRwuB3mKFtnlAk4uCf8sBjbISZQf6ATNDhZTIpxU0SVMMub/ECvnUvO+6Tcw6XwVVXrLNKwQFQIFyqGLl6l0+I6rX6BmeSwqasPhTlleKhvKAPTmWaeq2BEyZVIm9IZNUMwGYHly+jxWCvs4weQePc1JMXKyGVqh+wTjNh0TCAVfeZhJHa9DU1GxJsyuBAkmLiYP1JGTGrdH5Rg6mbCGjtBZ4bUPOjLB8FOG6lwo2wrholgBH5RZKE5i1yC6clE4rlgCXw1YuZU1YpZNbDBhz4la8IUIZqJ8px5aKRzGBWTOSw6fFNIvPUiEu94JJPMzW6RWSeY1IkjiG97E6mGvXA43y4SfXRH6/YCqg9LTJiKUiEO6WzBDGZQaH5wmlZMBDqG+3TQSYejT4O+HQamDZeJROjWJmNEZUzgAsgpcp2iMroSoTxnonBr/FRYYu75Swa2XERXcNdMQmDCdDUXXSWXW2dlUYGmqLSPdMtJsTB2ah5sXRCZg1ml7PV8uWBda3RoL+JvcQUnF1dRknFmwPhdzoeMttLpuB2qNVFGYU5RZ0LC/Ix0Xr8oEn85VxT3Bel08nk/UyBwR8cMYkyyBktMMyEN/6Q58NfOlP7PhObvE4BG4HKnyTET1AejDugBzCwqwYyX704Uc7F6ovt7ZtlA5ugsayFm++h+JHdugn3yBNI0lbKMrBEMQ91TTceQrN+FVP17OueeidNuVIKKPhWDv2IsgguuyoAs3odPypSRvdZ4b7uQXspY00oKGfmYQoFLBYZRRWpIP6fGq8X8oenXPdMd/SZ+moZjRL1VqskzEKiSKxfTT8qBm/EbhTwIcNIgVKlZJJO7XkFi/06kmxmnll1kp2akMTvRDs1QZx/chfTpI658NwTTC4RhuKF7eRkCcy8emANWRh9rrCgYOejE1d/qyf+QTuqUMbPzM5BvIAphyNDGGxaFMk6JAKl2ucQu08k031SJCfmVlroO3oGA9yLfoR/Gmjxd/hbvT8qip3Iw6AVShrQufAExlVoRf22diIOdbr/NIrLCAHQQMWKXS8NTDbvhxLjqVyrbEEwvEHMyGVffAyNfacZkDBIMO26lqB41P4nuHUte28wQV4rgbPn94ZpB6gQJgCYQp9/LKlxyUROJ1+m2C92Ev3qcOqsHq0DUDzNlhqZvUIe28cMMGL4AHfE+JN563o3w5d5KWfTFZIUBNGK3YR+S21+CfaJBRhTpMGY5QO9gPxOLgZ0rMHGyPIbd85lAOi9VgW5GpiNQD8pEfp/5ZfzhEEIXLXZVxAiAUbcQ889XUiucwuUNcmFy+AKiWko6F18GvU8PHJzaJ8lY46QMRTG5m+EbDAjafjjgiQWy9x1E33xZrZFsYWgEQ8euqBdG7CbeeQP2qUZhP/peZDTpqeEbSAfjjEcK1sTZGo2qszsDNBFoUnDK2j9ukjdyd/VvkF1stwNX1ehsTiYzVLkAU3RSPfkrauQ6eQ28Trk2+mdEdajzeQjXxkWi3OYlfNlqUXRVGt9hzKTBICB1Uo7U0Xok33oBqcYjmgEhGxgawTDXRHubBtXFt70qFxWTkcqQS58Qc8GxY7CmL5RjgXa2weTJ9ZVUIDBhmnTQgPxelxgGOlDl9/0c1Wu4rCD36496A/+25qGpZK5eUSo0YXjQ6UzzSQlm8AqGoLkYuex6UTG1ct9y7yRbQzIDg/rMqpA+exLJPZuRPLhXTaVsYEgtT/eTPnYYqX3vILV/qzs6M8+LQa/QnQkTLUIOE3UDeR3BB0EAnAbmuiQEpDMxXN6DY0eF6JsQnLNQjsXe2RECHb1cZFkq5pwoLW6sRuh6oog3fT5EguF6p4CoGKtuPvw103V2TknWYODwWWIexZHc9rqomUPeyaFhSASTFjs/vvVFJA/tdkfh3nwCBi5kZPVZQelw1fDXToWfe/8Msrw0bUGtqBRu4dF1wR/z2yaSulYnIMdIwi/k6aaJEDOQJCoDkJIMSZUmnqgYcKp9KJDfJUmH5i9HaOEKIVumichNVGqxg33YSdlINuxFqmF/VlI6DJpgdE/pM01ICMHYxw7BV1YtVzgwX8KoA+V7iL6TmQjU1ukapMGCDlRr/AT1Q7jJnAXsvFIHlLv6+4wRGUGw42uyq85AQs9EornE4DpVN7z+LCA4dzGCiy/Vv+Xz0ZlsVMzAIXUkhJJuFKvk8D4kjxzS4NmhYNAEQ3ZL7N0p5LIPTkezSy5GvfQBR0dWf1k5grMWS+efKJ1sYAFmXaHrccbXiiKKKG8Rjh0XohdymX+lu9viANf4ZB1CHq4fRlQMiYS+EcZZkGzonM5ic6G5FZyxEKGVa+GrGAMnfsb9ewaZQwcBB+m2RthHhWAOSd+ODy1nzKAJhgyX2PqyG7GrEaWGXPoE27odFWIIwT9phuvgpAN2kOB3VQE5QakMOcHOFGN+23KELrnWJbAhTAFnA5Tc9LHofWrzoMLyyTUyPoarx7PXZqiWmNM3tGQVrJppwjgsWxa6IZnMwfrQde6wqWL2bIV94siQcvgOnGCEzbj9AZcEJLZvkuvhKCUS2KAfuJ2LuXGtiXXwDTEGhIqAAXo+bg+pBEPzQ/pV1TiExFRgFK2OSCMJ+keoYoIkGGm8JEEftx4Zowswswr5W0z7EJq3BAFuxl8l5qGZURo4GBzLzQDPNCK1d5uutOZ2Q4MtxwG3QOZ6SezaDpurpRl3QNYb6Yac79DO78CqnobA1PmackFTRA4FjIZlZrswG0Rafj4F/8Q5CMxcguDEKboWKC9Ax7+Ygrpuis8FJFd18GZPwCjolwpOmorQ0qsQnH+pKkYwa6BB5uBAIKKBgXf22SNI7n0Xqcbj0oQHR9YDYwb5A7oFyYGdSB3nTnGsPP7RLLeUYgMJhrlxx9SqbyQwcar6UIYEbQiiiILyaImZmmzTdTnW9HluAu0hTv9mDTSTmDqTicq9vED0ydCUy3q7oWKScg3UzUJg9kJRcROlbITYjMN3YGDbYrklUki+txmphj1wOrhdDtvxwDAgguH6mXTLGaQO7VEJxT13DDKBW06a+Imh7cwwly0CCNEEkY5LITNlhiikWdKBy+SPuZ15pKF+GAbWiYLRIEwBF2EyjidX4OwZdzawJs/TaXJ3CYFpqwOBz+IEgYXUgW2wD72nqTU5hT1QDIhg7OYzbpTfUbHL2lvkIhjDYNRL/5CR1QoKuUzWFAZZAxVMhBn2hVgmLUJw5kJd25RXoK+oosJVMZ3r0zTJ+eAd3P2B6igwYSoCc5dK2YyXYmIzN+10QKCKgQ0ncVaslX1I7N8lzweeLyZzgkmnYZ8+iWTDPqTPHhf5JPYtG4xeiEGvoMpjA+cOjVMZ/5JNAhCCKamAv2aamARLNLCOjs58AnPD6IppBtd5BEP/ky6EzFHb4d+kWgwvvUzz5qhppmrbqJiBgRM45bCPcOuhDXBiA59NyoxgOHOUiOs2B3bDfjhtZ+QcFzUacukXlOecSSmvdvcMGlfjvZEFUMGUVOq2H8EFl8KaIAqJQW35BJpIolZ0SYS375Gmahiqk7sf+MvLEbpokZhJM3Xdkwy/2o4NBgAhZl94LOzGo0jueAXpZppJXaLGM0BGBOPYtma74iZqqUMilVhP/jxxIuY13OA6Rq1ak+eoushk98LMIQRTMRaBGfNQcvm1uvAv30AfjJ87G4REsYiZqNfMXMS5nnnk3xUSC150MYJiKjnxs1IX2U8JWfSg+raZyL8diYP7YZ855b2RGTKrZTsJ+2Qj0sfEPGrc544EJt9L/6Asj7XBqqxCeNkq9QdohWUJ7KjhRSsQXnL5iKZl6BM0kUpFrVDF0dEbKXeJJtfql78vJBaatUBIZqGckJFXd2EwZtKAEeQGd0Biy8uazH8g6L+1S4U48ThSR+phnziIdDsZjAST4xGoGMCyY+a6qmqELxYSyGDvowFBRunQgkvUFNAYkzw0WTU/L2eNhGDoh/FVjBMizJ2DtzsCjIuZNd/d6kUXhnaGVhhkCjeQ1tI95lOH9rrrkzIk6n5ZgjaXpsPUzONNYvOPlbP5MQWa19AKcFzzSEwXphQYytKA3qCRsnkyJd0jSDCRMlVXuoWKmHQYRoIh/OPrEL7hP8M/biKc6MmMO4eBB5qzMngxS6J9ulGT+2fqi+mfYGJR+dETSO1/B+mzQjBmf+nMkI5LJYh5VDcP/qlzXfMlF34HqpY8VC6dIPnpDoxCKprJrrJaTaXhhFUhCnLplbDGT5E6EPPMI3+DTCHti8Ul6s/mziFcBJnhntb9tnhuyMTkM/aJenfVtMlYlxHcxFJtCM5eisB0+gBGKRhdyxXVzIMTCIuCqZLH4Z0g0OTn0+cgMHEmfGWcxTNrlAYOMffTtlgxJBiaSUzs1X8Z9kswKU5R7dsBh6QyzNK2oMHETykHAbH/g9NmeydHN1w1U64O3+GE5jAWkrFmLBKyXyCN2qxRGiyc9hY4omKYKjcTM6l/gjm0B4k3X5IOw71s8mQBXb5Dd22sgDXpIgRqpmA4t23NW9AJHYoMeRX5oCCDI5dmBOpm6zolx+6QY2DxHAZShlKHTkebmElHdC1iuo2LnftG7wQj8oezRwysS723VdgqLZ/Ow2nQfAPLzY7BJ6ZA8KKV4PaoeTl9PNxgXhhmsGOk8XCXB9W3dA5GUQemznAD/fz0KzCgyyAjsAy5yjoqBHNKCOboQaRbznpv9o5eCUa3IzneIIx1BqBwMW6XDMGAgbPwV4rdv+hSMNt9doPrChPcA8mq4p7aI6BgPPhLmYtnhhD/taKkxmsQpLR0902D/uHzCy+0wjl7FGmaSaJm+kPvBBOPIbFvJ+yzp9yRxwvzNugL0ljZXn0h6UjVCHBbU4bum1k3d3vcyip3qj7XUby9gLNZ1thaWHUXiQkroyZ9MYZfBgbuPJCyYZ84rEuHdP+kPpZg9FzTah5Fkdq7A+mzp6ViKvSHDfqBetXT0nir4a+aqHtI501elhEG/VAkXaqX4dyIvytIbpwmtybVKdlIT5GzhmEGAh/dJI4F+/gh2CdFyYiKcQZMMNxQTb6YOrIH6WZRMAFjI2UEx9apPP/4qfDXTtPI3ZEyB/INTEbuHyPEy449gmqYaSOYr5gpNX3hMe6goAODQUZgcn8pL4atpJuEYOjoZba7XtAjwaTb2zViz2lrFpIXljdpGTKCw7UudlSTTweY1b+8QqdIDaShVVS4Sco1QfzIKBhCcxmPGaf+IK5El1rzDoOMoDyQhtPRhPTpo0hxu2hyRC/osabt1rO6YyNDg92FjYZcMoLOSqREwUyQY5I0YGaWM6YlQTWnOynQRBpJggmGYFWPha+qxvUL0SlvFEzmUC5wZ0rts42iZI4Cyd4XkfZMMKebkDoo5lE7s4mbfKYZQciFGf78zDAnjdfNOWvQCao5q8rbKpZTxCME+mG4LszP2T0hGEfz9Q48FeToBtOgStl1CMkcb0Caiah6MZMuJBhRLI4oGPvkCZ2q7txP2KAfkGACETex99ha7VAG74Prj/yl5VI2ohxysOgzY3DpgqgY7svEjfnlytzzBpnDJwQTLBMT6QRS9W8pX/RmJp1PMEIu6URM1x85LaeVlXymAjIA5aEQMRtulZhH0on8Kr8NzoEdm7tRMm/NSBKMB58oTDXZNBH5yJlsBQmaSVYY6RYxkRp2wG451evix/NKtjNzHWeOnA5vzyMTw9E/hF9035hAULPWcfMz7rtskL9gHenul1z+Ytr44JCy4bR3aBqXNLc16QHnl6ydgn3mtEifRqRbT6miUZIx6B8O12oxodIYd1N3E/+S1/CXlamCcZORSzcwjt6BQ0MwfEidOCyiRCyeHtBNwQjBtIiCOdskzCRfoP/FsHtmENmoCZWqxusOArq4zyBvwRk+NWO9TiKNXc8bZA7NTCjtPNWwT4RJk3f2fJzPHnTwdrSJ3DmjSZLVr2CmqPuHWpKWNNgKWLV5tG2rQa9gQnDNFWza9+DhD4LLBlK7t8BuPOSdPB/nCIbqhcsDuHOjE4uRnuSsUS+ZgQzD5NZCMDUTRHaPvBPToG9wLRIHBCbBGqm1UQUPBuDaDuyjh+Gc7Xll9fslm0xqEpn0aTGP4gmRjnR+GXbPGL6AOw07rsb4XwoAui4pXCaPEVGf0g2MD2bg8Pml2Bw4zWeRbm0W3ohfUI7vK5gUCaYV6ZPeMmydvjME0y9YoPRVcRo2UgarmgscTXqGggDrjFPmqmA4oWEwYJAiRIswrYumd0menymwG8G0wG4SucN9pw3BZI5O0hblojNIZnlAYYA7MnCXAzp6NaDUqJiBgom7fOEA0tFWpJpOKI90xfsEQxOprQXpM0fgxFrlm2aBY+aQhklS4TT1uRHRIN+hG8HpAsyg8EvK8MtgQI4IhTQOxj55HOgW0fs+wSTibkLfjlPyoQ5Sk/eOQd9wRz7u/ePn9LRB4UAGBX+kXMdS3fXRYBDgsoFyIZgo7BMiTnpVMLGoKJhmwDYLvwYESmvHdlfmMmO+QeGAuxyUCcGoiWTky6AgQoQzcRrecupoLwQjncSJdiDd0ixjsUgeEySWOVh2TkqnqDXzn0HBQLdR4Y4Puo0KCcaQzIBBL4omAxf+OHsSoJO3C1krwTiJJNKtZ3SJABw5pQ5eg4wgBONTBVOue+8YFBA4i6QxS6JCNQG4waCRtnUzNuaQ6qpizikYdfB2EowG2RlkAkfTZCZc567ZPaDwcM7XaKaphwQu9k3GYTMehonAPXgE48BpP4v0mRPynBssGQWTMeiDSSdFJYrcHuY9lw2GCM6A6CGS3vhgBgmvDMkhYh5x0WO6O8FwmUC6lauoD8sr6TBmBmngCAbVpjcoHDB1J5WnRmOIEpX/6XmDAUL5QspOTCO7teVCBcNsVE60FWlRMS6Ts8QNMoa0UE3MpS3VoGCgVcb/sc0bchkSVMHEVcHQ4dsJl2DkDdBBE5eDBGM6ygDAsvLKy8jswoJUl7Z3p0sdGgwKDmzlEYcJ67hZgAclmHRHh0byGgwcTNPgs8LuanQ5DAoHzDetAaYcFzTazpDMoMGyFBMp3dHqChYPLsEwB28qrmVsxMtA4Y5+THFBBWhQQGD+I2n3bmiGcdAPCSRp+rEYB9NluYBHMM06xQQTXzdICMF0tGs+HYMCAmM36C/gDLXF0Awzug4aLDpam4yBoZL33AUuwbSIrEnI6MtXpowHBpF9ji8oDVUIpotzyyD/oakFzp5y3QNqIhkMHi5xsCxJMpoEX0jGJZh2bhHLjcOY6lFPGWQKaZiMG6IKdDpavJMGBQEhGFsIBomE1KEoGDO4DgFSeBQtnCyS8uSUNU8om7h7UMu7FkPdDcEMCIwBoIppb0E62qasbVAYUKckt+hhZ9D1d4ZhBg3Peesk6YuMuiST7lQwDI7RQjZJpgYLJyUFKiOiziQZkikMcOYv2uo5Jc3AOmRIu2cScLpb0jo7l/YUjE4t0Q7laGwIZsAgodDmjHW4uUlVHhrkM9RPoLFfHXC4/5dp90PC+4Gm7AtefxC4BBNtd20ms0RgkJCClQKliZQ62ejKQ4O8BkMKmHtaYza8zmAwVLAfpF0HL0m708nrEozIRMPiAwfLjAcDjdpaYB8/IgTzfqCRQX6CStM+w+yNnto0g+vQwYW/yaimbNAFj+cIJt6ukpGLv5SFDAYGFpkjCqa9GalGIRgTcJf3ILnYTcddBcOOYZAF0DSSsqQfksTdSTAg2/CkYfHBQcqVdrzuK9V4VO1602jzG+mzp5A+dUxGXBkMTF1lARxldaR1zSSm3u0kmHRCCEbtUHlpBMzAoWXrc73nZ5qQbhPb3vhh8hr0v6hDXpN9G4IZMtS9In2AxEIV40EJRr3pfMOYSIMEk3RZOk2dPtsk8rtRG7BB/oGpSUgsjH9hcKRxC2QXOhvNkA2bJNNpIvEEp1qNk3fwYLCdFG66WQjm5HGkW3req9dgZEGfS+rMSaRPnoAjRMOE1WaZQJZADrHdpQK6O4m8dAnGYOjgSJhiZvWj6oexW6TxGuQdaLrajcdgNzXoYCAV5x0GuYBLMDpnbezQIUMYm87y1PFDsI8fdqf/zT5T+YO0Dae9FcnD9TIQNIpJK/WjYQbe+wZZh0cwlDPsHQZDAs0kWLCP7UfqyB5RMWdNVG8eQdVL8xnYDXvdNUjcLtYomJzCmEjZhLey2j6+UxrxOyLDxc43QXd5g7QoSrvpKFIHd2pqDV8gYrglx3AJhjMgxsE7dKjcliIVsyh9+iQS+3dqtkATip4foHpJnTgI++huDS41i3tzD5dguN2G34iZ7EAabKAM6ZYWpHZsgn2KKsbExIw4HEcjd+3D++C0HBPTNSZVZWaPcg1lFV+IUlEK2zh6hw5RMb6gEExzExJvrUOqYTdspiQ1GDkwsjSZQHLvNiR3b4cvMlbMI7PN73DgHMH4LI9gisHZm05Kg2qFEzspUviMO1vAiE11ZnszZrm8Tzp75efTYucndmxBcv973hsGI4F0RzuS9Xth129H+mS9tPqQ1NEwbZLHhtDZ5tj+0glRTx3aLp2otM+YtE91Nhd4v/P6k25kx/2+ySci5l2CCQubdxJMoYM3GgjAX1oOf3mZPIo6457RNAN5dI3c7Fr5evB1diqaW5nQVCLBJN57S52KxhczMki3nEZs80uiJndJPZx120DWfI5em+lsQ0oiHMjYjry2pH9PDrohrKAO6P4yaZ8VcpSx73m+oCy1vZGBXLvPccmFJBOg+emD9cUv/ddvBTdvUKcXs3tpyHvBOnxZ0SkE6i5C+IpbEVpxA6ypC+ErGSOVWiL35uVd5f0x9oejiR0How+5GtrX2SD4oEUwlHLwy5/x63a8VqQEVt08IbsyZXiD4UVy1za0PvBdpFvPinlUIVWTRfWiMWQp4RZRIdKe3IOZCeQ9uh1ksAMthBKSyRhYE6YjOPdihFZ+AOFLP4jAzMWwG49L/+N6QGmH7hf1pwsKJFe5doqVwPSLEJwxD1al9Lvde+udkn/6FtKN9XKjB72pO47yBQiOAEIYgRkLEVy+GpGLrxBGDcBmaHibmEwdLW5ybnmebjuDdLPI1PYWDR/XDPPMJRoT+ZqQg05AZWVpINIgffpIVh4ApNCdjjOwpsxB+LKbUHrjWgTrZg38dwwGjeTBvYi+sg7tv/weUFIqHV0IZqBQhWLLA9WJEIkQip5juwjKb8rghUBIHkUpc/QOU6GMEQVdpYePR5mo6ZB8VpVLNfzV4+W30kjufRdtD/8PaSdt8nsyABZq22C5yLX7x9QicvWHUHLthxCYONUlmNKH7oN9eBfsI3ukwKSwCphgSAzWhGkILbwCZR/+vxCcOtM1//g2s5i1t7rBVswHcqpRSOa0Jopi2lAuVExzoWJLo7yW85rTQr7LkYhpANnAzskbT/byeV+KjwVvhaTgx6PiE3cjvPQKaWBV3psGOYOYKRw02jf8B+Ibn0Zy+8tSZfQN9KEg1URhPctoDJo5etatZ7YBVjfbgE/ULs0d6Sv+ylohkPFCKEIiFZVCKDJqVwqxVI6DJSRiVcvjmLFyvlKJp2tbSTbsR+z19Wj71b3yyoKvdKz7RiFCCSYA/7hJiFxDgrkVgZqJLsGUP/qPSB14B6mD77re9YIdYaVFiLnjL6+GNW0+ym7/a4TmLHq/Q1NRcJUnkz1rUhxphHzO1eQygtinTwr5nFaVk26hwpHn8ujIo914APaJ3fr7PjoJZeRCgA1WRi6OPL1Crok2udjZJav/XEy3NYgsXem9Z5ArcCBJHWtAx7//EvEtL2kdu4NCL4MBSYUqheYynbDJFiBB2S+KREjDGj9NO4+vaqxI/2ohEyESqhEhFj+JRV77yyr0IJH41OcnpBGQtsFH9qluoSDR159H9KWnkHj1CWklYlIHy713ChA070gwtdMREXIpvfYWIdcal2Aq1v0LUu+9juSezSLzaKMWKsEI2JlFrlpja1Byy18hfPHlomJmeG/2Atsd7bhpN1WOE49ryj9VNWK306SyTx9FuqleTKiozkqkO+R9mlotp+SxUQc8bUB0bgVKpB13kbtkd6RhTV+I8MobULr6NreRho0/Jhdg9HTq6CHEtryM+KtPI1X/ng4E7pueQnGSQiZiFnPrWKpTGTR8JUIUQiC+ciGJSNA1aXhOTBrf2AmwqqTDyHskE19pufQVIRIxi3TmhI5bPg9yQqGf/uNdQ+tj/4jon36rQZmuKe5dYwGCeXVIqtbE2Yhc/2coveYWUXFSbiSYypefRPLt55F892Up2Gq5UbnZQgbZNBhGyfWiGC6/EZHFy92Rqy9TpgfoLnUc+UTpkHw4KqY7OoRsTiB1vAHOicMaFWoffw9OVD5LcuOfkFFPcxhRTktb0hds1KJ4QosuR+TGv0B43hKxw6XB9tcYDQYG6bz26SbEt29G9JlHkDq8W/1tbhiGV/9q8rBixNTxUdoHpd2LEhk3BYEpc+CfOF3VijWmWtWvXwlHzKGgmDgygKhCoTIZJFQ1yyDV+s9fR/sfH5bfnyzXI+QywPaZT3AJJghr6kXS79YKwdzkqjkSTNXrzyCxWY63npWTtQXNpArODImaCC29DpFVH0Tk8tVifkvjGGhnPjfaOfIgjwzY4pFIyBEFROk4XpLjVNMxpBpF5Rw/gtSRethH3hPi2SXkJL/DvxsU0pYGZI2fjuBFl6P05o8iOHepKBnjj8kaWE/SeePvvInYxqcRe+5XUj8keakzMXuQlPoMlAmxT4Y1ZaaQySx5nIGgHNbYWleRCJH4wnJ0kglNHSpTOXydg5QS1ODJgMtHEvX70PFv9yH22joZ6acqyRUyqAap3gIzL0bJmttRetUH9bUSTPWO1xF/5VHEX39KGHuS3GyBS3c1SRzpzFMQunwNSm+4HYEasZ+l8WQFnYRDAqJEkUc2mnTzWdj03dBRfPa4HMdE2YjJpWZVm+vPicm1+SIIXXYtIksvVyWjBFTAo1e+gLFGKVEv0Rf+HYltG8X0OCImT410YM7okDjErCmlM5aO11pVkDzoiGUIgRKJ1INmuePzHCF19CDa//CvSGxZr6vu1WqgE7mAwXAPxsAEL1opBPMRlK5a45IyCWbckV2Ir38I0ed/KxUibKp7VBcw2PGpPNJxhC65FiUf/DhC80QtVI2RN4exI5N4OGt19pQoHDGrjjUgfUzMqhPHYNVMQHDhUpRceo1rt+ewQY8KSFkzyRenpeOvPCUm7GFYk2aJuTMVgQli+tSKahknhFJWKeU9cmqBvr7Ezi1ofuD/RfrUCbedqq+usAcYx46pAgwtXIWSG29HyRU36HklmBoZaaNP/RzRdQ/BP1YIhrEwhQ5RMU7sFAJzliF8lTDqVWu0kQ27A5vTpSm5lhSXLyRFpot5xUe5Pl+kVEfXczLcYNBgTmkm+GLMk7zSMtWoUsr0AJ8LifOR9T+CapGDTGzLS2h/5H5VtnJhI3o92YIqmHApQkuuRsnq21By2XV6Xlu1VSGsLuyjA7+eLgJQ5gpRpqXBpd57E/bJEyJoOFU5zJAGzVkGLl2wqqrFbJuAwKSpsGqneORizKNsgP4RlrM1ZhwCE+sQmDxdVOLE82JQlMhHuKxJMKkDu2SQoRkvKJq6l/KXtuwrOT9aXQlGveScamNnKHCpdg5CML5gBZy2NqT2bBG7tx7c5D9fQJnumkaGYLIC2vsk8ooqt1zzDVSyoliSRw6IGbdbXotp5Ha/ooD6rQJB1wQVsdIJvUMfw5xFrvtKSuWFnKCUKQbITVO6pduakNi1VSvXwGAkkI5GkajfA/vgLqSbjsgZ6WjslMUCHdBFJYqCVB7x4N4h77W0Cv4xk9ybpuOpSMC5ecexkNiyEcntW3SmQYPxDAyGC9KfOIuYPLAb9rF6cH2aoliUqydIGBukEc1dZms9ghH2KRNbdewUvWld1FUssIRV/SVI7d2B1M4tomIYjTsCvhiDUQtGhtunG5Hc+w7sk0fhcLtaRTEQjDdjy3sR09SqFBOpO8H4QsI8jBWorpFXnN71HFDFArHP/WOrkGo8hI51v9U0lgYGw4XUyRNI7n4HyXdeAvfE5grsovO70QfGJTpV40TBXGAiyZtM0FTJgB9GPib1dNFAKpPRmem2s0juehOJgyJVz5723jQwyBE06juO1OEDql50Lyauf9JsesVGMJwtFWtBcx6972T3CEY6IBPikGBUwRSbj0Iqk6HYySjSTYeQ3LMdqSOHpLJFqRWLQ9sg78DYJ24hnDwg7W3/ux65SFssJvWi3cdR/4svIuSiS3JIoC5cE0lOMFbAP3a83Lt8o1idoEIydPgmd25BgiNKWxs0bYOBQQ6gOZn37kRq5+tINWxzI+QLfZ3fBeD6r4QbNDpG+KMLuRDnFIw/EhGSGSMMVCkFUWyF4EGnBX2wT9TDPrBDTKV9bjSlgUG2wZmj0ycQ3/gfopb3ywkG+fFwu1zRgA7eZIeYRiXwj5+osTBdce5uNdCOAXfl41wnVDGaDh7BpNtOI9mwG/Edb2pouYbuGxhkEWmuizokbezNPyF99rQM3GOKj1wUzKXUAX9pKazaqWoqdcX7d2y5UXicqvZFyoWYxF4sSpKRf1YY9rEGJGR0Sex+x1u/YmCQPcTefg2xF59203qo36UYyYUCRjgingSTcgWmTL8givp9BRPkVh8VsMZN1BmlzpQHxQdlGJF1MdiNh5F462Uk97xjAvAMsgJdDnC4Hsn3NiNJx65mNjx/VC8qCEU4cUe4oxKB2kl9mEjCPJqBaqwQDEN9dSuPYiQYgY4ocnupOBLvvi7HG5owymxUbzAk2LbmA4pv36KzRswJpLmVippg2JECYvUw3Wi1jN3nZyt4n2A4zcRYmDFjVc04qXY5W8QjuowsTNadPrUfyd1vIPbWa7BbzRavBoMHlwMw5iX++p90H2x3CyDpgMUKESA+yw//uDHwVZRLf7pw4e77hqG8wbwZ/koub5cvBBjuS3YqZhUjBUJ/zIkGJF57UveoYXIoA4MBwQuoSx7ch/i7b8Ju2KVkI51I3ixigqGf1u+DNXOh5jDuiUzP9zxZATd/RtV4kTwMuuPbRUowhM8PX7has84ld7yCxLbXkDy0XwOkipZYDbIOthdGhuuK/XdfQ7rZi9jliF7E0CRTfgfB2Ut0BqknnEcwqmBoIlVPFCUzXt6Vt0dBR9Np+WCV7p8Tf+tlbSxm6togU3CAiu98S8jlVaQObpczNBXODzgrSjC5vi8Fa8p04Y1x3snz0U3BWG7WNeZ0KKuSL/Nk8aRu6BWatjCoybpTu95C7I3ndUEkU10aGPQFmtSJ3W8j/sLvkDq0Ux29anoXs++FoPAQ05Cb3Gu+40rmu74Q5ysYkXScqtZUjmWVPCO/MxoIxvXHcAPz1GEmjX5G7Ok9ulOAMZUMeoS0C5pGyf27EN+0AfHNf9SUDNx0j6Y3+07Rgn2CKV2CDM6tRmDsBPi7JJnqivMVDB29TOXITbvFVNJdCkcLeO9WCE60Fal6GZE2v4jEvh3uWiVDMgbdwN0BaErHnnsc0XWPSr+RQbmQt34dENz1R9bYaQjMukzESIUwSc9ccT7BENLRuK2pNWka/JFyeTkKbMlOeCMPd3NMvPcmEm9vFJJ5z50RMDDw4AbT7UfH+n8TBbMdSMWkJ4V67WRFB6qXZAt8VVWwpl2kgoT+255wIcEI6LDhbnc+MZdGTaF1QhekBWEf2adBeLGtG3VHAo5YBqMcnlmUOnkciR1bEV3/KOxTx+Dj7pyjatsZ7pQZhb+8XITIdDGPynQGuif0WCp02AREwWh2cPonRoMfphOeP4bLztOMj3n1aSR2blWSMRjdOGcWyaATf/1ZOK2n3dGcTt1RBWavK4NVVYMAt9ztRb0QuvFa3ZQJ3ksP6bRu7t7y0I+QfG+LFORJ+U2RgOx8owW6LkmI1QoitOgyBOcvF3tzofuewaiEE2uH3XgUyXdeV9PIaT8rZ2WMHk0qn/2CY3A4gsjqO1C65s9158yueyF1Rc8EI+AK47Y//BaJN9cjdeAd+YHy0VWQhBSm46SEoSOwJk6HNX2e94bBaAQXxKYbjyB9So5oqwgXrjEaRYOuQIPr5L6tugUoue7DKLlqje4k0JuK6ZVg0u1tiItpEF33S8RefsLdFN/qmaWKF5yO82aQuGudNZrsbIMLwKbAZQFy6PPRpOg9OPGz8EUiCF95O0qu/hDCSy+TfiHCo5ey6JVgNPxZVEz7I/8T7b//GfzVRbJn9WDgzfsX1XYuBgMGt6dVk2g0BNL1BDq57ajGyUVuvBMll61GaO4i782e0SvBdKL1N/8Tbf/y/8FXwhkl+mHMKG5gMPoggyz9LzSPJk5DyU13IrzkUgSnTPfe7xn9soU1eQ6Ci6+RT8pHbbNhmYHBqATVSzol5lEZrHFTlFh6Wx7QFf0STGDSdAQXXqqK0EmahEwGBqMWThq+iipYE+qEZGqEbN7fwbE39K9gaiYjNHsBuHGZOrY6nZ4GBgajDpovavJ0+Bm92y3/bk/ol2C4kbU1fhKsqfPdFA6OWZtjYDD64NPF0IGaCQhOm50RuRD9Egy3geTSgcDcS+AfOw5O/IxLMgYGBqMDjOT3yb+SCvhrpiI4ZZpudJ8J+p1FItJtrYi9/Tqiz/4LEm/8Ab7SWqEm/oFRNFXHQh5NSyYMegB7mXeMprbPxFLMdjllLspu/QRKb7jNe6N/ZEQwTjyG5JGDiP7pt4hueEyDjVT8jJrVo3K/UsjcYMpgFIPxL4GwmAoyuI6iqHYnehL+sjJEbvksSq64EaG5i713+kdmBGOnkG5tRvSldYg+/wTsw7uFZMRM4l67RQ0G2MlDIKhmIj3nBqMXTKPKCHen+aR0unYhmd4X+RUNOD0dPSFtfzwq/u//gdC85Zr1MlNkRDD6R1JJxLa9gdjL65B48xm3gAM9Z7EqGngmEdOHBuevQGjFdfraYHSCGQ7t+l1I7noD9omD8LH9F3NEL9t/mrmpYwhMn40x/88/IjBppvtehsiMYAghmUT9HsTfehXRP/4G6VMn3MIt5sheUWkO0rDGTETk2g+j/LZPem8YjEakpM3Htr6G+Eu/Q2rfW/CViKIt6vafECFxCtbMJQivvBnlf/YJWNXjvTczQ+YEI7CbTyO5byfaH/8FUvU75Y+3uM7eYmVxEoxjwxo7BSVr7kDFRz/rvWEwGpE6eQLR119E7LlfI7XrTVG20m+KOReMHUe69agMrneg5Ka/RnjBMvhLy7w3M8OA6Ncqr0Rg8nQEpsyGr6JafTMibdw3DQwMige6sDcNf5n0+SkzEZw5D77wwLMpDEzf+d1dBwKzF8OqnSKvi1geGhiMYjjJNunfaQSX3YTAnOWwuG/9IPr7wL4hphBzQYTmLhBWm+UmoSJMfIiBQfGAkfpi+vnLqhGctxyBidPdyN1B+JsG/A3+ocDUGQjUzdYlBJRRrqfZwMCg4EFycVLwhytg1UwT02g+rHEMrB2ctTLwb1HFcE1C3RyEllwhL+NwEq3emwYGBgUNJlZLtME/fiICF12K4MQ6+EsGv9/T4GhJSCYwqQ6hRcvdHSApnch8BgYGhQvtw9x8sQRWbR0Col40326QuYcHh8ERjMCqHofQ7PkITJkrDFcFpOJygcYXY2BQsGD/FVPIVz4e1uRZ7qppbgk7hMmcwX9T4CutQvi6jyIwYwHSzScA2/hiDAwKFsyS4BNSmDBd+vQ8BOtmDkm9EEMjmEgJQvMudlM51EyXX5Or4xolAwODwoPPB395BUJLVgq5zNK9j4YaqTw0ggkEEZgwGcG5SxG8aIUuCnTMjJKBQYHBEWFgi1qJaL7d8JLLEJg41XtvaBgaPXFGSUglOHUWQhdfDn9puesoMr4YA4PCATcYTLTCP24CAvNW6ASO9uUsYGgEQ1BWjR2P4KwFYrct1JydSEUNyRgYFAJUENjaZwN1MxFetgpWeRW40WA2MHSCEZDtAhPrlP2smimumaQEY6auDQzyGppjm7sFVItImIfwvKWu7yVLyArB0Ezibm8hubhA3Vz4It5+KZr5zsDAIF/hdDRLB3ZQcu1fIjjvcpdcsrjGMDu/RF+MXFhw6kydsuYcuiuxzFarBgZ5CVoY3Mi+tAqBqfMQXHKFWCHTskouRNZ+zcekwGNrEJy5AMGLlsmFe3kjTISvgUH+QfqlYyfgr61DcMEVCIl55K/qf6fGgSK7dCUIzpiDkqs+iMCEmfKCm7XRxjMkY2CQN9D+KIfP0gTe4Stu0JzTdHVkG1knGHX4Tp6G0LKrdS7daTf7KBkY5BXYHwMBBGYsQmD2EnVtuEF12c9MmXWCoQ3nL69EePnVombmyUXL/TC6lzvzGxgUBaRRF2ouXs+aYKa60MLLpI8uUNOIGRJygZyUEnPGkBWDi6+U41q5+JSbIcvAoAjg84spwaPQNl9z0vIvAV9JOazJsxFixO7kOpdccqBeiAEl/R4okgd2Ifrmi4j96V9gn26UG2FWrNzdTNahqsvRbUuY+yZy5Qfd8wajEumWs0ju3Ynkjo2wjx9wt+0plLZMpJNw4s0IzrsM4ctuUl8pk0n5QgPPtZspckow3KQqeXg/2h/9OZK7t0gFnYQvUCLsnxs5lnV0OsOsIPxjJyAwYbp73mBUwknGpQ2fQfrMcTjRVmnHBbTxGgdLRwgmHUXpDR9H5AP/CaHpc7IaVNcTckowDLRLt7Ygtu01xJ7/N8Refwr+knFSMcKYBcP8QjDkGV6vVUCjlUH24Y035waeAjKRnPhZUVx+BGYsQ+nNd6JU1IvuEpBjX1JuCUbAHSHtU02IvvYMYi8+DvvoISCVks6aO1mWdbBBMZWgbuVgMFrh00FROmQhmfnadqlckrBqJqP01v+M8CWr1Ec6HMg5wXQisXcHom9sQPyFR0ViNslfLuIN2wwM8gJCLmJFOHYc/jG1CC++HBV//WVYYu4PF4Ztri0g7BlZvBLBmRfDV1mj3mx6tQ0MDHIEXQuYFsEVRnjZtSj5wF/CX1rpvjdMGDaC4dKBwJTpCK24FsHpF7nkovKNtqyBgUFW4Zn1vnAJQosuR4iD+7Q5YjiI5TCMGD6CCQbhrxqH8MVXIDDvYnk+3iUZ3X7WwMAga/D8Ljr7KZZDaOUNCM5ZAn9llfT44Z3BHTaCIXyWpbvzRy6+CpHr/wJIOki3NHvvGhgYZAW6t1G7bu8cWnwVwksuRWD88PldumLYnLxdQVJJ1u9B+6P/jOSeLUi3N4qUE9tQoyNHKzxz0Y7Lg5mtGijORdcWagh/tsBlOT6mTylB5MqbEL7qQwjNWQB/SZmeH26MCMEQ6bZWRF/fgNjLv0di63oxoSjfBrf/beGDfih3x0xuOK660sywZQgpNykqcrKTkrLT6Gs5MRrLTwYoTkeTTAKzl6F0zUcQuew6d5X0CJXHiBEMfS928xlEX3sW0Q2/h31op+uPYfj1aIOMOhxx/GMmSMNYqFHDuVg6X5SwhI2DYaT2bkeqfifsxnpPzRRQlG02oOuMknrvgWlzUfYXnxPlslhzNI0k2Y4cwdAckNEmIaZSfNtriG98Gvaxg3DiHaNP6toJ+MrHIDB5LsJX3+J6+xlladA/2E4CFmKvPYfE5heQ3LtJp2ULKpBzqNAZ2ZT8SyA49xKEV96A0us+LAPW+CFvnDZUjBzBeHBiUaSajqFj/RNIbHsZqYb3pM2IqaSp+0aDzPUyi1WOR3DmEpR++E6E5i6BvzMjoEFGaP/j7xF98d+R3P6Cu97Nyu0am7yBzhi5M7Hc5rVkzV+i5Lq1CEyaqlkNRhojLhO4ktMaNwGRK25EaOFK+MvGykkhltGWMFzMw3S0Aw6PZMI7aZAp0h0tcNpbRpf67SQXDlAVVYhc8xGEL7kGgYlT8sbEHvmaYIKqCBOGT0fo4itE3l0vpOOTTtbmFmDRw6f/0Vzk1GI62m4IZhBIn21C+swJGZsY5zEKCEbJJSltpgX+2qkILbtO+06AW74y/UKeOLnzoyb8ljIw97mOXHWTmwRH5J2TiGnHK3pwxLWFYKKtcDra4MTlvg0GhhYhmOZGKUsuRBwNBMN+4UB385h3CcJX3ITwvMWwxogFkEfIq5rQjbdnL0bZR/8rQouuRvrECSGZePErGSFYrjrnKGw3nxaiaffeMMgULjlzj59RQjDcciRSIsRyGyJXfgjhBReLcsk/v1Ne1QS3PvGXVehm+mTkyLV/phu6KVurkilWohGTMB2XTiLk0nwSaVExBplBJwmONSDdzojwtBRlkU8MpFOa28VXXSOD8JWIrLpJBuWF2m+yvadRNpB/V8TlBFVjEVlxFUrX/hWCM+ard1zJRZVMkZIMCTQZFRUjBNN8Rp2+o8MHNTSQjBP7diIdbYMvUOTKhVG6SMIXtBCctQihyz6A8JLLYI3QMoBMkLc14hdbMjT/YoRXfwTBhVcAgbB0OEZqFufsksZuhCpgn2qEfVxG5DaR/GI2GfSNdFszku9tEwUjpnS4qqgVjGalQwrBSz4g6v42lKy4Bv5Ifgem5i3B6H7XFWPEtlyG8IprEbp4Ffzc9Z8oxpHdZ8HnDyPd1CAEsx/22VNwkoZg+gL9c2kpp9Sh3WoqKUkXY+wUk3VHT8JfPQGhpdei5KpbEJq71Fsdnd+qLa+vzsfNoSZOFRm4EuErPgCLG+vTXEoV4ewSHZNCMpwJsY/XI3XiiDubZMykXpFua0Gq8ZiU1UEhGCmrYlweQLPIoVnkR3CuKPorb0OEmxrWTPI+kN/Ib/rzwPUUESGZkhv/AsGZ82XUOiHmQ/HOLqXPnETi3c06OjujLeBwAEgebUCqXtRLyynAFrVXVLNH0ra5vih+Ggg6CK/6c0Suu0PI5Qr4ysryXrl0oiCukjEx/qpq1ydz1YcQuf4jci4ohd/iKZkiIRpR975gBDYJZst6pI4dMFPWPUCn9FubxTTai1TDXl1qof65YgEHTrbrVAesCTMQXrYGEaZduOhiWNIPmFepUFAwlM8p7EDtJEQuuwGlH/4UgtNmwxcq0U6pFVIUakZuxooIqbRpnpzknm1qKhmcD5qOqcajSB3YidTR/V7dF4nvRRcuyiEKxafbu14pg+rtiFx8ubZ/SD8opHstOE2pwXizFqHsL7+EyLWiZEoqpEKE7dPF4xAlcfrLqhF7+WnEXvujd9agE/S9xHcK+da/hfQppmeQTlcgJkOfoEnEduykNL1s5LqPqlqPLF2Zl0F0maDgakWD8crLERS5GL78BpGOt8Cqu0ijGikp3RDqAodPOkwgDPtkPVJ7tyC+fauaBAbQ2bXk/p1IbtkAu+m4nOmM3C1wBcOZIpKLkKVVNw/hFatFra9GcOZF0t6Z7bEwCbRAr5rBeNUIz1+GkutvQ2jJVbAmTncrgcmONSCpgMFYDnYaW0wBMQFir65H6niDu2xitIJmkJ1CquEAEts3y/E6nI4O+IJMa1HI5OL5W+SR/jeLCxeXrEL4ig8iNG+JBp0WMgqTYDwwZ0pg6gyUrr4V4av/DNbMpVJPUemIZ7xPFDCEYHyRGqRb2hF/7SlRMW8KyYxef4w6dttaEX/nNSS2bXRnEYlCnzkScuGKaF+4VNTKYjefy1Uf0Dy6+ZDPZaiwvvil//qtqspy72WBgY4wBuRFSoVsyuGrGKOjnNMWRfpkk840FcxG+z2BC/fYAOMyUjsySgdCsMbWanwQTcXRBLvxCKKvPIPElhdE1e2T8pCTNCULOHLXEZPeB/pbahFafCXCl65GePEKBCZMddcWFUFUcmETDCGVQJKxKqulYurgBEqFYDpgH2sQgulCLgVdWQ7s5rNKnr6KKiHTCs3h6ysGx2Z/ENMo3XIGiR2b0fEfDyF1ZI+M+DSNOINYiPcvzKiznrY0STmYpmS+kMuVH0BkxdUI1E7Wui0WjHjKzKyBlZZOI93ehsSB9xDf+iriLz8K+9QJdZhqIuhCldOdDVJUmlUzFaUf/iTCSy6HVT3O+0CRgrMqto32df+mOZuTezbJSRk0tC4LVJnS35JOiHqJIjBjMUJLrkHJdR8SYpkCX5mocI1xKXzl0onCVzCdoEKhyRSO6AjPxZJ87rNCcGIJIMmwezrThGQKTc3wetnZktIw25vdQ55zQ3OqN5pMxQYOFMkj9Yi/+RISb/wRqQPbpQ6lHjVfcwHeL2NbuB87FXd5NYKzhFxW3iiq5TqEps91TXw154uHXIjiIZguILFwdA/UTpPn5TrbQFmtszCsZFaikkwBVSadvqJknFQMtpgJaGvWhsq1Wf4QidQb0QuNPLuBikVzvBw9iPg7byC6/lGkDu6Uc63whbh5WAEqF5ILDxkAmek/MGMBQpffhJJLr3WducyfW+D11huKx0TqDu2MzBJ3WhtrbOtGJLa9gOTu1+EPjxFqjUiFF1pj9ex3xkuI/e4vCSLywf+M8LLrEZwx21Nsha1m6GtKHtwryuV5JHe8LuQiyoWkog7dAqyvtBx2BxCMIFA3H8GlV6kjN0jVUl4ppFnc26sUpYJRUIrKqM79hViR/vIxMuKL6RQqgRONyojYJmZGuwgDNtxC8c14yovXawt5drQC8ZiYTK1yLymV2Jza9IUKbHoz7Zp/JJbEu5uQePM5JHdtRfpEg5hFojrpcyk0s0hNoqTcVyusCdMQWnAZwsuvQ3jRSiUXXVNE5VLkKF4Fcx6495CtyZwS+95DbMPvkdwnDfjsMSmBTgcwiaaAZKo6ftkx28UcrEVgzgqEll6O4OyFCEyqc216xlHk+T1xXVFaCJIryKNbXkbyndeR3PO23JeM+gLd46iQoOYQw/2lfugTFJUZXr4GoWU3Ijx/CfyVQiyiNEcLRgnBCNRkSsHpaEfykEjw7W8gvuUlpHZtUgewr3xc4ZGMSvCUXLMoGsYDjakRGT4XgfnLxb6/Rohmmqq4fEbiwG4kdr6F5FuvINWwE/bZJlFn3pudaq2QYEdFWZ6Qci9FYMZSlH74LgRnLoBVM1lIv0yaWCEp5qFj9BBMJ3QquxWpE0eRrN+N5LuvIHngPdhctUzfhpohBUQ0npLRGTJRYoyr4EZ2walT1ZkYmHspAjUTXXufgYds3CN1b7xWUZIpUStM1J06uAupQ0IqR/bDPn5M6qXZrQPOFOk1FkAdaPnLIazoCNnTPLVqahGctRTBBSsRvvgqVS1+qpbRELfUDaOPYLqAdn9i/y7Et76sdr996pjOYKhjjo2m0EZQtfu5R3EMiDfDmjoX4Stvl8Y+D4GJ03QGQ00nOhbpn+K9+XN0jyw/+lZ4TZwZ4hR7tB3pltO6H3ly51Yt9/RZ+llEQdLxXlD+MK+N8P5IhFZA7sGCVVuH4LLVKLlsNUKzF7gfHcUY1QTDBkIfgN1yRkbQw4ht/BMSYv/bx+qFaJql2UjDCZS6nbAQRlPiXKOnnUE1kIAvUiHm0kViOl3tLqCbyFD0cnV4+yKR7PsE1GnLXQdjSMc6dA1R6shBzW+TePtFpE8yHWiHXJuXyJ1lqzNFBVLGBJdw2G5WRV9JJQKTZyO49HKEFy5DcPpFupFgMUXkDhajm2A6ISMsO0JS1EzywE49mCmNCbjTrWd0ZHVzjshRSEjHpCO3yBM/fGXVsMZPhVUtKkZMKD+fj58Mf3WN2xlE1bhHSCxEMbUsMafEpNLlCD11fJKIRqXKY4qzJaJQEnKoUomquZM+3SSq8KiUY71m6UufPCGm6GG5JlGJpO9IeWERi0feTqpdLlmuv2ICrEnTEKybg8CsxQjOuEhe18GS8hyN5lBPMATTDbZ0iuShfYjvfAup3VuQ2v+2dIiEkpA2MJ0yLbDGo2YKO3+7Orl9kTL4a2bCmjxDSGYi/JVjdQrfV1oFJvTyl5S5AXyMq+FMFOOFzpGAaxqow5wHSSUmpk9HK5zWVqSjLXDaWpBuPg278agcQi7Hd+k3GVVdeKaQB5IpVaHcPnxxDXuwZl6K0JLLEZp/CYLTZkl5iWLJc6f6cMMQTDdop5ERNt1yVkPVk/u2I/n2a6Ju3tGR2FdVK51OzKZCkvMESabzIJQ05DkPpKXjlwvBVEvHGS9qh4spS9UprARDNdMZwCeKxc10T5IhuVAlCXFx+ULraSGaRvWpCIvJnxIS0VGfnZOgGiowU8iDE+dmeDQ3qxFceDmCjGeZI6ploiiW6nGi/MTM5H0V4L3lEoZgeoJ2nqTONjF2hpnrk/veRWrv2zqVmm4/qx3FF6qQPpP/sSYXoLPTMxCMszY6A0XTSBRLSMhTSYVEIKYV1ZqaSVQcrnpRktHfobkgZMNdKFNx9bnQfHB/LyyHEBRn5AouYtoDy4d5Z2TA8U+YisCU2QhMm6fbhwSmizk0VsxLqr1CC2wcRhiC6Q8kGyaZPnEUib3bEX/+ISQP7tCRW+wKOaTzsNMpCnwEU+JxFY2SR+frc/fX5T71gfcrJOQ9CpO4j4VaBt3vk7fhc+SWHA2UCy67DuEFl6hiIbEY9A9DMJmg05EZi8JubtT4mcSOt5Hc9RbsE4fgRFu8UZ5TvxyxtWW63y04kFS8p+8/8dD5uvu9ea/1oUDvW4nUFo5xyZV1bk2egxCDFq9ao6ks/RVj4SspkWpmHZNQDfqDIZiBQhqe3XwaqSMNcuxD6tAenXFi3hmn9Yw6PDVYjKM4zYRCVjTFDiWSlJAK13GJOUcnd9VYnVnjzokWZ4dmzEdozkLjwB0kDMEMGmI6JZNIHT2E+HvvILVvO+yj+2GfPAyn/axO1yJNcqGDUx4LbhlCkULNvk6ns0DqhJkPdVZo4mxYU+WYMQ+huYsQGD/BTV1pMGgYghkKpLGSSNLRDk3rmDpxWKe47SP1uiG7feg9OB3HpZTFdIpwrZPrODUYIahiYcwOHdEMkKuCNWmubkdMUgnWCbnUTNT0q9wGR9cNFaqDOk9gCCYrcNUMs7BpQBnX2hytF4IRkjl1CHbjMTnEhKKvRj6rEZ46+2TIJucgqdic4WqTMnfNIKtmiiZP10fODE2ZBat2smselXJ63swKZQuGYHIAVTVtrbBPN4qqOYbk7reReGcj0k2HXB8NzSWd6vWcpp3KxhDOEEHzhw9iAgmxOLaQuUXzlGUd190yrQkzEVh4lUbdBiZPgzWu1l2fNYpSKAwnDMHkAjSdGPnLLVRINq1ndRdC+0wjkgd2Ibn9TST3bobT0ggE/CLHxwBBGTk13yz9NMZXM2BQqeg0sw0uj9A0qS1J+GsnIDB7AULLrtFET9x5QpWKBhMKqeiyCEPuuYIhmGGATnHHRabHOmCfPI7UEYbP70f61FHYZ0/CPnFCt4bVnMHqJ2AMirs7pa54LvT4kmxCnbRUJCyjtDczLgqQyw+4ojkUhr96LKwx42Ex6pqm0MQ6BKddBGu8qJWycpdU6FsxU805hyGYEYIj6sY+fRLJQ/uRePs12Ef2Id1yUknIibbp4kt3/VPnyCxdyetY5whHZ6eKmHT0vkko3iPvXWfjeP/6AXXE+rgqvKzS9a9UiBk0ZxGCc5cgLI8++lRGQWrKfIUhmJGCdBqSjKtsuFiwDQ636jhc7yqcY4eQbhep33oG6WYhHk59J+R1kpuOlcpoHZaBWzpOZ4crNiixirmT4nR/Uo6EvEzAXzlZDlEm5e4GdGrujJuEwLTZCEyaKsplHHwavh+BP0JnOsmoiEk4z2EIJl/A/CKJhJhMp+U4pdPeXJVsC7mkm44Lyci5NgbyMcE3o4pjujLa6Tgl3xO1w9W+KvvpU+AMFR3HnvM4H9HV1OG10zGb5rYynmkYroIvQlVSIY+Rc4c1dhJ8Yya64frlY9xUE2WiXMbK6wp5XVKAC1GLGIZg8hVUOEyG1dqsKSS4ujvNNAgkFZLO6UYhHk5/70G6tQngyma1G0TRQJSNWhXsxOy87ktC+572v84nHgGd65TyeO79TNDlxzufnDNpuhz8x6ce3OugupBDs+ql4XOEYHxyvfSlVE4REhFFUlsnhFIDf/V4N5dNpZhAVUIkTEPJnRCLfNuPQochmHwGnb0c3ZlCgiuWbTo2RekIyejMlKqcZl31nY6SeGhOnRJCErVzWlTPqcNIn62X70vnpvuCv0n+Yci7mFeqdDS/DU+yk1vyT94751T2yKc3KIGRNUhivDZ5rqkcqEZ4vWL+6WpteZ6kSeh+jWCyKX+1kIgmvRKTZ4wQB/PSCHlooBvNn7JKne3RaWRRJpoSgeSj1+89GrWS1zAEU4BQEynJ4DE59LkcfN7eJgpHVA5npNqoeE7LuZPSuaVnMxAwLgqBnV4Ji8QlZKXfl9cpIQIv9YIuc+AjCYPExpgdZSiSTpcOLcpDHaja2b1HRr8GpOPT+SqPmlMmJM85BR/0subxO5EyMW1o4owVU4dmDomkC5kwQTlJMMjfIRnK75q1QAUHQzBFBM3NQsVD5dNJDHpeSEQUjt3iqR0hIsaJMK2l0yqEJCqIM1f8jB4d8joedYmIyaPoaCUhqWJ4X9XoJm8lDFKjU7XEda7y4PYcPF/BDHkkESoRUSwkkUrXT9I5s3OOOPx+97mZOi4qKMHMnT3de2lgYGCQPZjhwsDAIGcwBGNgYJAzGIIxMDDIGQzBGBgY5AyGYAwMDHIGQzAGBgY5gyEYAwODnMEQjIGBQc5gCMbAwCBnMARjYGCQMxiCMTAwyBkMwRgYGOQMhmAMDAxyBkMwBgYGOYMhGAMDg5zBEIyBgUHOYAjGwMAgZzAEY2BgkDMYgjEwMMgZDMEYGBjkDIZgDAwMcgZDMAYGBjmDIRgDA4OcwRCMgYFBzmAIxsDAIGcY9p0dt/xoBu74ofciE9TMwarrV2PtrR/DLVfPQSX3aTcYhdiCn8y4A/d5r4ibf7QJD9xW470yyEfkv4Jp2ouNv3sQX71rDZau+RTufabBe8PAwCDfUVgmUv0GPPi5a3DH9zeixTtlUFho2bcRG1/teuw1dVnEKEgfzJaf3om7frQFce+1QeFg71N34s6Pdz3WYa/3nkHxIQ8I5gv4xbZt2HbBsQnrf/8wfvGje7B23oV29pYffgMPbjUUY2CQz8gDgomgqrISlRccNZizbBVW3/YF3P/Ms3j4b5Z7n+/Edtx3/+MwHhkDg/xFgZhIlVj1lftx/x3dlMzzT2BjvffcwMAg71BAPpg6rP0vn8Ui75WLjdi+17gIDQzyFXkQB3MPHqv/ArobQD0ivhH3zrsTD3oviQtiIU7vxcZdjd4LohaLr5wjGoiIo+nVR/Djhx7Hhqe2eOaVmGJr7sEDP/8Y5ujrHiC/ueHZR7Duyc3Y+FLn91zUzFuFG65fi5v/8hasnu3+lb4h17BtM/a0ey8FVTNWYNGksPuiZS/W/eZXeOSxp7FhV5N7Tq/xFnzyE5/B7dfXeffSFS1oeP5xPPi7rvdF1GH5ratx+0d7+14/SLVg78uP41e/W4eNb2zE3s7LEfC+V6y8GbffeQtuXthHLEq3+tj75J345m+8F4qP4du/Wdut7Kswd/ki1HhF4qKfOJimLXjiN4/gkaeek7/3/oXWzFuNW+64HbffsRbL+7jM3hA/tgXrfie/u2EjNm7tWvNSttdI3X90LdZevwp1GRQuZ9De7do0y+ZixdIanHebPULq4dV30fWr57WZnhBvwpZnHsfjz0g7Oq9NvN9mV6+9oe+6ywIKi2AyCbba+hPM+EjXT3i/f1q++5XP4b71XXrJOfRyDakmbPznb+Cr/7AuI19PzZWfwde/ew/Wzu6ryTThib9dibuf8l4KOu+h4Zl78dWvP4iNPV2ih5o1X8Mv7/8MFpV5J05vxH1/ezd+8mofXxJc8L1+0PT8T/CVb92HDRmYoLzv7/zga7h5qneiKy6oj0xwM+5/9QGsneS9VFxY95/8+TZ8ew2w/Zdfwee/1V8d1eFjP/gFvv3RORl0aIEQ/SP/8Hnc95u9UmP9oQ43f+sBfP+uRX2S+AVt/9b7sel/rZXhoz8MJMgwLiR+H775nb7bUSf6rLssoLCmqev3iFF0PsKW96QvtEsFfVoqqEdy6QWHN+CbH12JOzMkF6Lp1Qdx941r8NUnM/1GJ2JoePJu3PG5/htF0/p7cesnfoLtnEA7/ATuvunOfsmF4Pfu+sYTGdxLCzb+8E586K7MyIXgfX/+I3Idm4bXXK0dF8eGb92FW/slF6IBj/zdx/GVDOomvu8RfPU2qceMyIVowLpv3Ypb/07KN+WdGhHEseWnn8LHv5QZuRDn6i5HM7IFRDBSeE/+qhvBLMLimf3xfyOe/pEol63ey0zAjvuRT+FXA/nOOUhD/tIduHsAJNPy/H24+0tPZNiYBVvvw30PPYKffPFuPJHxl6QxPSZK55m+SEDK+Ed34c4fbbzwWrhkQ0wCPZbVeSe7oEmU1Efvwk+2DV/owLu//i6+8sst3qtMIOrxO/dh3THvZU+Quv/Kf/oqHumBXOuWefcvx5weml3D72SQ+Mq6zOsxy4hvfRDf+P4g6+6z92LDae91FlEwBNPy0o/x3R9u9155WHg7Vi30nveKX+HBn71f5HW3fgbf+9nDePg37vHADz6DtfO8NxXb8WCPHVdk8Jfvx8PPbsK2XfWor6/Hrm0v4amffa2HOB1pyF+SzpzhqLDxsSdEBBM1WPXp7+Gxl7dhl/x+/a5t2PTsL3DPmgtb84bvfLULadZg9d/cf973Xvr99/CZKy/83iMPPd3raN/01FfwuR9267AzbsbXfrMJuzatx8O/ljLj8fuX5G9swsN/f7OUSldswX3//UFXXXWiehG+9vdfO3d88nrv/Dmsxie7vO8eq1GXgSm3Tsqts5rqbv0afnGubnZh28tP4YELrk/Q9AR+/GS3dtSJ+PYeSJt1cj+e2lIvZerdvxzrN9Vj2x/uv6CMmx77Br771AWNZxggyvPR+6T1dsVyfOGXPdTdlqdw/6dXdTPNNmLDphxcN30ww4nN9093pk/vevzY2ey9dwGSMae5YbPzr9/+uHPped/hcanzpf9o9D7YBVt+3O1zncdHnG+sO+R9qHcceviuC797+w+c53r4U++j2Xn353ddeI23/5PzrveJ99HoPP433T6nh9zPo71d3yHn8f92aQ/f4fER5wcvNnuf64bkHuf//HX3z3/OebzBe78r2l5xvntpt8/eLnXTy093ovnFHzgf6fodOT73RO+FNaD6Pw+bnR+f973O41Lnrp+/68S8T3VH8xs/vuD6pt/SU730VPd91YmHtj3Ov3avm1vknnq4oAvu/W8el9aQCS689wvL+MLPfPzXe7z3ekLM2fw/PuRMv+4u57u/3ew09laAQ0QeKJj7cMeMGZjR0zFnHpZefQe++s8Xyr6aO76Oe269cITuGTVY+6P78e2bepCHXRHfiEd+uMF74WHhF/DYQ/dgdZ9/qhKLPv0Afvblbm7irffiV32aJO+j5hPfx3fu6O36epqid7H8K9/BF6/pxbUYmIOPffoz3otOrMOeHkyEhj88iAfPK+Sbcf+Pv4Dl/cyOVF7zRXz9y+df2brfPZeBTyQ7qPnc/Xjg04t6ddxWrvzMBdeHHe+ioXuD6qHuF33pZ/h+r3XioUzK+O++LqXVBTvuw9NvDJ+p2BsqS/tyZ4ex/EuPYdfzv8DXPrq824xd9lBYTl4PNVfeg599Z+2F8rc3XH8P7rmt/0/H39iAn5zX8Grwmb//IpZnNPMiFfY5Ib1uJtsjT27IwCZfhM/eubrvaeSFK8SY6I6P4bP/qffORYTnr8Ba73kn9h7rfkUN2CjX2RWL5L7XZjSzIPd92yfPv7aXNmDLYe95TrEa93x8VZ/3r9d3ZfeS2yhl4D31cGHdfwxfvGt5P7/tYdLN+OTfnD8CPbipFzMsZ6hBzTXeUw/rfv0INvblVwmEM7u/IaDACIb28AN47NcysmY43UrcfMcNGZHR9k1dI2wECz+L268ZQBWEl2Ptp7o15qc2493+RExGvqQwqrp/5tZVWDHWe94bamox13vaK45twYaXvOeKObhlaR1aWloyO8bWYcVs76uKdXj3wDCM4LfejhtmeM/7wtS55ysMUr7tPfWwfevj3jMPd6zCokAP99rjEUfdnFXeFz1s3TNsKs5FHVbd1q3tbf0J7rxpDe7+0RNC+C0YCU1VGARTMwerP/Ft/OL5Z/HwN25G3YCSTi3Cip5c/hegCQ37vKedWLOiR7OkL9QtkobpPXexGXv7G82vWdR7kN851KJ2pve0E/PqujnqBonjDUIJXbEX9318KZYuzfS4E/d1K7uGM7mfsl60fE527p913yU4T/HY3bimx3vt+bjmy094X/TwUlMGyjW7qPvoPfjaMu9FJ5r24okf3o07rl6KeTOuwR1/+03c97t12H54eOgmDwiGkZwPn5vV6Xo8xlmBbbtQv2k9fvFdkeEzMgiXvAB1qK32nvaJBjR0CX4jbp6TsRH2Pqpru6ml7Yj3V5dlkUFJ1ZunZql7NbzrPcseNh/uGneaG9SJOssOLqz7oWMPGoebYWRo+8xDT+FrPcw6umjAlqd+hZ/83edx69XzMOP6z+Mnz2xHSw5jd/KAYOqw+MpVWNXDsXx2DSorc20lFjACEe9J/mFu9WAGg2JCrbRd7+lwokxI5ufPYv2PPiMDsneuN9Svw32fuxU3/tW92JAjn1lBOnlzgzDC3XwcLe0x71mRw+pO4r3l6Mn8eKC/2Ze8gtx/t0H/5n9Y3+N9ZX7cg1UjNjZWYs5tX8Mvnt+Fbc8+jPu/9QV88tblvfohGc37qY/c3XcA4iBhCOYcxLSZ7z31sHH7INI5Ht7TzZ9xs0h572meoqZubrf+Jffd3lOOngEcBSU8azGn2wzM5qaWnu8r4yOLBdDUKAbXYBBG5exVWHvXPfj2/3oMLzEAkYTz5bUXRiI3PYFv/Hpj1h3BhmDOoQaLVnabCXhoXd/TfBcgjo0bHvGee6hZjLocLSTLGmYswi3eUxdy39ty76TNH9SgbtH5rvmmdZu7RcXmAAcaz1sh3Rvi721GNxfyIOERzpfux/pnHsYXujmEm366AZuzzDCGYLqg7uLV3WaAHsE/PTSA3L/1j+PBn57v2av5q1UZrhQfQVSuwKqPes89PPLAIwPoYEKsv3wQG+oLl5QWXXn7+XW/45/wyPoB3E/9Ojz4uy1o6sNhGi7rNie5Y/MF8TgXognr/rVb+ERfaGnAhl/ei1/1tyZs7Cp88cvdgzAb0JTl9UiGYLpi4e347K3ecw9bfng3vvlUBhENLVvwk//2VZwfrrYcn12T9/QiqMSqmz55vpm09V58I8PE6g1PfgV3f+tefOr6pbjmb3+CdTt675g1U8+PSGHQ2558yEq4cBVuP29Eb8Kv/v4beCIT5ydX6/+3z+Pev7sDK6+8E1/95UY09VBwddNXeM86sQ7/5w9903jDk9/FdzOY4Yof24hfff1TuGbpNfjUtx7EN//7g9jSJedQTwhHcm/HGoI5DzW4+XP3dFMcDXjkb+/Ap34qjaaX0allB5f333HBiu0a+a1P9htAlx+oXPMZ3NNtIeKWH96Bj3/rCfSeNLAF2//5U7ijy0rwhqfuw+e/3/uCyqrK7lPLG3Hfjx4572+07BMTbZf3YtiwCJ+UEf08km1yV9X3mQ7j8Dp88xNd6r5pIx751t34px6WClQuWtEt4E/K+DvfwDd73OurBXuf/GaGq+zj2P67e/HNhza8X+5b78Pn7n4Q23uru1SDJug6H3Wo6S9wc4AwBNMN4aWfwXe+0l11NGHD9++U0WkNPvX1+0QKSwd45hE8+LN7cfdNK7H0Qz0s7192D372pf7C2PMJdfjYd+/H2m7Ovy2/vBtrbuR9P4gnnu/cy2gDnvjZN1Wx3Pqdbkshatbi/u9+rNcZi8rlq/Ax73knmh77KtYsfX8N2tIbP48tHd6bw4jwNVJn3deTNW3AfR9fiWs+8lXcy3rv3M9J6v/eL63Byqs/f0Faj+Vf/hnu6SkCfBKzC3rPz2ELfvW5a3DNXd/EfT97BOuefwK/0nZ1I9Z86VfeKvv+EMbyT8hg1q3uNHeQ1N3d/yC/e24fKq/u1lyDux87n7oWffkWrMhygy2wjHYZ4IIMaj1lR+sPLdj4/btw508HkmukC2Z8DA889L1esoRdmNEOX34M9V/qrwR6z4TXNwaSDU3GQim/j0v5De7Ol+Oe3/8GX1jWVytlzpk7pA30bRrc8/v6bk7Igd3HeTj2BD5/5d3nze5d+PudkJH9y3dc0PkyRc0d9+OxH/axTm7Hg7jjQ/cOqHxrPvcLfMf6FD7/U++EoKd7H1LdyYD42EMDW4KTCYyC6RGVWPWV32D9D3ofiXtDzRqpqMd6I5f8R3jZF/CbZ7+Hj2WyxqcrhFS/92x/5ELIaPvp7/cRbTrSqMPaHz6Lh0V9DuwKa7DqSw/j2b7IhVj4Gdz/o0zSZLqo++gDeOzvV6M2g5hK1t0vf/0FrBpo0S77JH7BlfNZJhfCEEyvCGPOR7+HlzY9jK/d1v+al5p5a/G1X76EZ38uFZVlO3a4EZ4tZLF+Ex7+1sf6b6w1c7D27x/GpvVCSn3mIu4CL9r0sd5+X34zo1SoOYMMMF8WsnjmAdxza/9DTN31Qhrcu+vLq/peEe+h7rb78ezvvoab+yLxGavxmR+tx1M/6CFpVh+oFDPv4WfX4/7Pre7/ezVirn5L6u5338bqHA2Iw24iFSziLdi7YyM2v9FwXvBd5YwVWLF8EebkKqHGiCOOln3bsXHLZjR0ncIcW4dFixZhxUV1CA9o8Wl3yO+3NKJhewOaUYW6RXWorazML99VewO2b9qCzbsa5Wo7EUbtvMVYtFTqfuxgr7ansq1E3TWrsHrI5SrQNrsZ29/ei8auPmeufl++Cotm576cDcEYGBjkDMZEMjAwyBkMwRgYGOQMhmAMDAxyBkMwBgYGOYMhGAMDg5zBEIyBgUHOYAjGwMAgZzAEY2BgkDMYgjEwMMgZDMEYGBjkDIZgDAwMcgZDMAYGBjkC8P8DEbJjjydzPogAAAAASUVORK5CYII=;" parent="1" vertex="1">
          <mxGeometry x="142.25" y="609.5" width="72.19" height="90.5" as="geometry" />
        </mxCell>
        <mxCell id="PgJAh9kEpaXaDXCcuAF9-106" value="" style="swimlane;startSize=0;" parent="1" vertex="1">
          <mxGeometry x="-280" y="50" width="790" height="530" as="geometry" />
        </mxCell>
      </root>
    </mxGraphModel>
  </diagram>
</mxfile>
